<?xml version="1.0" encoding="UTF-8"?><svg id="Layer_2" xmlns="http://www.w3.org/2000/svg" viewBox="0 0 50 50"><defs><style>.cls-1{fill:#002752;}.cls-2{fill:#a4f950;}</style></defs><g id="Layer_1-2"><g><circle class="cls-2" cx="25" cy="25" r="25"/><g id="ebqRCx.tif"><g><path class="cls-1" d="M11.34,19.64c4.61,3.84,9.13,7.61,13.66,11.39,4.53-3.78,9.06-7.55,13.66-11.38,.05,.45,.14,.83,.14,1.21,0,3.81,.02,7.62,0,11.42,0,2.11-1.58,3.63-3.71,3.63-6.73,0-13.45,0-20.18,0-2.13,0-3.69-1.49-3.71-3.62-.03-3.83-.01-7.66,0-11.49,0-.35,.08-.71,.13-1.15Z"/><path class="cls-1" d="M12.43,17.36c.71-.6,1.51-.88,2.41-.88,1.95,0,3.89,0,5.84,0,4.81,0,9.62,0,14.43,0,.93,0,1.74,.26,2.47,.88-.74,.61-1.46,1.21-2.18,1.81-3.39,2.82-6.77,5.64-10.16,8.47-.17,.14-.28,.18-.47,.02-4.04-3.38-8.08-6.75-12.13-10.12-.06-.05-.13-.11-.22-.19Z"/></g></g></g></g></svg>