<?xml version="1.0" encoding="UTF-8"?><svg id="Layer_2" xmlns="http://www.w3.org/2000/svg" viewBox="0 0 50 49.65"><defs><style>.cls-1{fill:#fff;}</style></defs><g id="Layer_1-2"><g id="WT0J7d.tif"><path class="cls-1" d="M29.09,49.65h-.12c-.03-.21-.08-.42-.08-.63,0-5.4,0-10.8,0-16.21,0-.19,.02-.38,.03-.63h5.79c.37-2.43,.73-4.8,1.11-7.24h-6.99c.06-1.97,0-3.91,.22-5.81,.16-1.45,1.17-2.39,2.63-2.61,1.07-.16,2.17-.12,3.26-.16,.38-.01,.76,0,1.15,0v-6.16c-2.29-.3-4.57-.62-6.88-.4-1.52,.14-2.95,.55-4.23,1.39-2.61,1.71-3.68,4.27-3.84,7.25-.1,1.95-.04,3.9-.04,5.85,0,.21,0,.41,0,.68h-6.3v7.22h6.26c.02,.19,.04,.32,.04,.45,0,5.5,0,11,0,16.5,0,.17-.06,.34-.09,.51h-.12c-.09-.04-.17-.09-.26-.11-2.3-.41-4.49-1.14-6.59-2.14C3.45,42.35-2.23,29.99,.82,18.65,4.36,5.54,17.19-2.28,30.45,.59c13.03,2.82,21.73,15.9,19.07,28.96-1.96,9.62-7.77,16.02-17.06,19.22-1.1,.38-2.25,.59-3.37,.88Z"/></g></g></svg>