<?xml version="1.0" encoding="UTF-8"?><svg id="Layer_2" xmlns="http://www.w3.org/2000/svg" viewBox="0 0 1000 1000"><defs><style>.cls-1{opacity:.4;}.cls-2{fill:#025b82;fill-rule:evenodd;}</style></defs><g id="Layer_1-2"><g class="cls-1"><path class="cls-2" d="M578.85,116.11c-.73-.14-1.14-.37-1.22-.67-.27-1.04-.96-1.96-2.08-2.74l-.51-.47c2.63,1.67,4.92,3.65,6.86,5.94l-3.04-2.06Zm383.1,192.54c25.37,61.26,38.05,125.03,38.05,191.36s-12.68,130.08-38.05,191.34c-25.37,61.26-61.51,115.32-108.4,162.21-46.87,46.89-100.95,83.02-162.21,108.4-61.26,25.37-125.03,38.05-191.34,38.05s-130.08-12.68-191.34-38.05c-61.26-25.37-115.34-61.51-162.23-108.4-46.87-46.89-83-100.95-108.38-162.21C12.7,630.09,0,566.31,0,500.01s12.7-130.1,38.07-191.36c25.37-61.26,61.51-115.32,108.38-162.21,46.89-46.89,100.97-83.02,162.23-108.38C369.93,12.7,433.71,0,500.01,0s130.08,12.7,191.34,38.07c61.26,25.37,115.34,61.49,162.21,108.38,46.89,46.89,83.02,100.95,108.4,162.21ZM296.63,201.6c.61-1.51,1.35-2.41,2.18-2.67,1.22-.33,2.39-1.31,3.49-2.94,.69-1.1,1.33-1.74,1.88-1.9,.65-.18,1.47-.69,2.49-1.49,1-.82,1.61-1.47,1.82-1.96,.35-.86,.69-1.33,1.04-1.39,.47-.12,1.14-.51,2.02-1.22,.86-.71,1.57-1.43,2.12-2.16,.65-1.02,1.14-1.59,1.47-1.74l6.37-4.98,.31-64.98h-109.66v163.43l4.76-4.53,.65-.55c.18-.14,.45-.24,.8-.33,.78-.14,1.2-.53,1.31-1.14,.04-.33,.47-.88,1.25-1.63,.78-.76,1.49-1.33,2.14-1.69,1.39-.69,2.23-1.27,2.53-1.71,1.27-1.94,2.27-3.1,3-3.49,1.39-.63,2.29-1.27,2.67-1.86,.9-1.53,1.8-2.53,2.67-3,1.8-.86,2.88-1.63,3.29-2.33,.63-1.39,1.37-2.25,2.2-2.61,1.57-.61,2.63-1.37,3.18-2.29,.92-1.76,1.57-2.71,1.94-2.9,2.41-1.04,3.86-2,4.37-2.86l1-1.67c2.49-1.35,4.06-2.55,4.7-3.67,.59-1.14,1.08-1.78,1.51-1.9,.55-.16,1.29-.63,2.2-1.45,.94-.8,1.55-1.49,1.84-2.06,.39-.86,.96-1.37,1.67-1.57l5.78-4.12c.65-1.06,1.43-2.06,2.33-3,.9-.96,1.61-1.51,2.14-1.67,.65-.18,1.04-.59,1.18-1.25,.04-.27,.51-.82,1.39-1.59,.88-.8,1.53-1.29,1.98-1.47,1.35-.49,2.16-1,2.47-1.53,.78-1.51,1.74-2.63,2.92-3.35,1.71-.96,2.65-1.63,2.8-2.02,.2-.69,.65-1.41,1.35-2.2,.69-.78,1.37-1.33,2.02-1.61,1.63-.63,2.61-1.27,2.92-1.92,.55-1.2,1.29-2.06,2.27-2.57,1.78-.84,2.88-1.65,3.25-2.43Zm463.57-10.47c.55-.39,1.18-.71,1.88-.96,1.27-.47,2.69-.69,4.33-.69,2.49,0,5.63,.78,9.45,2.33,.84,.35,2.08,.9,3.72,1.65,1.63,.73,3.12,1.45,4.49,2.12,9.43,4.7,16.76,6.96,21.99,6.82,4.61-.1,8.7-.96,12.27-2.53,5.49-2.39,9.31-6.51,11.47-12.35,.98-2.65,1.63-5.76,1.94-9.29l.24-5c-.06-.06-.27,.14-.61,.61l-1.35,1.8c-5.31,6.72-11.21,11.08-17.7,13.09-3.1,.96-6.23,1.37-9.39,1.22-1.76-.06-3.72-.31-5.86-.69l-.71-.12c-2.31-.49-5.12-1.35-8.45-2.53-3.37-1.22-5.92-2.02-7.63-2.41-.9-.18-2.1-.37-3.59-.51-1.49-.14-2.71-.2-3.63-.18-5.92,.1-9.94,1.88-12.08,5.27-.29,.47-.53,.94-.71,1.47-.18,.51-.24,.8-.16,.88,.04,.04,.08,.04,.12,.02Zm-74.55-108.05c-.02,3.12-.65,6.31-1.94,9.57-1.67,4.31-4.61,8.92-8.82,13.84-2.84,3.33-4.94,6.43-6.27,9.31-3.27,7.04-3.41,12.45-.43,16.25,.24,.33,.59,.69,1.02,1.08,.41,.39,.67,.59,.76,.57,.12,0,.16-.1,.12-.31-.49-2.45-.08-5.02,1.27-7.72,1.04-2.12,2.76-4.45,5.1-6.96l1.92-2.04,4.8-4.67c6.37-6.21,10.49-11.37,12.35-15.47,.33-.73,.67-1.63,1.02-2.71,.35-1.08,.61-2.06,.82-2.92,.57-2.65,.86-5.23,.84-7.74-.02-3.63-.88-6.96-2.57-10.02-2.33-4.14-6.23-7.63-11.7-10.47l-.02-.02-1.49-.69-3.65-1.53c-.69-.29-1.06-.41-1.1-.39-.02,.04,.02,.14,.14,.33,4.08,5.7,6.57,11.37,7.47,17.05,.24,1.61,.37,3.51,.37,5.67Zm133.32,155.02c-1.2,0-2.12,0-2.71-.06-4.47-.39-8.78-1.78-12.94-4.14-1.65-.92-3.55-2.18-5.67-3.78l-5.12-4.16c-1.92-1.55-3.57-2.74-4.96-3.53-3.51-2-6.82-3.25-9.92-3.72-4.31-.63-7.61,.29-9.92,2.8-.33,.35-.59,.71-.82,1.08l.8-.14c1.92-.35,3.98-.08,6.21,.82,1.8,.73,3.9,2.1,6.33,4.1,.63,.51,1.47,1.25,2.49,2.23,1.02,.96,1.96,1.88,2.82,2.76,5.23,5.39,8.82,8.9,10.76,10.49,3.94,3.2,7.78,5.35,11.55,6.43l1.57,.45c2.78,.61,5.39,.94,7.86,.94,5.25,0,9.8-1.61,13.62-4.86,1.9-1.61,3.72-3.72,5.41-6.35,.47-.69,.98-1.61,1.55-2.72,.55-1.1,1.04-2.14,1.43-3.08l.98-2.41c.31-.69,.45-1.08,.41-1.12t-.04,0l-.08,.06c-.2,.12-.55,.33-1,.63-3.65,2.47-7.19,4.29-10.59,5.45-2.27,.78-4.72,1.35-7.35,1.69-.53,.06-1.41,.12-2.63,.14Zm-109.62-98.07c.18,.39,.29,.59,.35,.63,.04,.02,.1,.02,.16,0,.04-.04,.08-.08,.1-.14,.29-1.65,1.14-3.27,2.57-4.86,1.61-1.78,3.98-3.37,7.06-4.78,2.16-.98,6.39-2.57,12.68-4.76,8.59-2.98,14.53-6.23,17.86-9.72,5.14-5.39,7.96-10.9,8.47-16.54,.53-6.06-1.63-12.08-6.49-18.05-.41-.51-.73-.9-1-1.18l-3.2-3.57c0,.33,.04,.61,.08,.88,.61,3.76,.86,7.1,.71,10.04-.27,5.51-1.55,10.31-3.8,14.39-3.33,6.02-9.23,11.02-17.68,15-4.29,2.04-7.14,3.55-8.57,4.53-3.57,2.51-6.27,5.16-8.06,8-2,3.16-2.55,6.19-1.63,9.08,.08,.31,.22,.63,.39,1.02Zm-83.94-71.08l-3.9-.16c-.51-.04-.78-.02-.78,.02-.02,.04,0,.06,.04,.08,.51,.35,1.2,.86,2.1,1.55,.88,.69,1.74,1.39,2.55,2.08,3,2.59,5.35,5.25,7.08,7.96,1.41,2.23,2.51,4.39,3.31,6.49,1.53,4.1,2.04,8.49,1.51,13.19l-.12,1.1-.25,1.57c-.18,1.1-.47,2.41-.86,3.9-.41,1.49-.8,2.82-1.22,3.96-1.61,4.51-2.61,7.57-3,9.23l-.41,2.25c-.1,.53-.2,1.35-.29,2.49-.1,1.12-.16,2.04-.16,2.71l.12,1.98c.35,5.9,2.57,9.61,6.7,11.13l.96,.27-.33-.55c-.88-1.47-1.35-3.02-1.43-4.63-.06-1.55,.04-3.06,.35-4.51,.59-2.94,2.35-7.41,5.29-13.41,3.57-7.33,5.82-13,6.74-17.02,.92-4.04,.76-8.7-.49-13.92-.69-2.94-1.84-5.53-3.41-7.8-1.2-1.71-2.61-3.25-4.27-4.57-3.59-2.9-8.33-4.63-14.23-5.21l-1.61-.16Zm14.86,192.72c.67,.63,1.37,1.12,2.1,1.49,1.43,.59,2.33,1.29,2.74,2.08,.59,1.35,1.37,2.27,2.37,2.8,1.8,.86,2.92,1.61,3.37,2.29,.86,1.53,1.63,2.45,2.33,2.76,1.71,.65,2.88,1.47,3.49,2.47,.88,1.57,1.88,2.55,2.96,2.92,.16,.08,.45,.24,.82,.51,.37,.27,.78,.59,1.18,.94,.41,.35,.76,.65,1.04,.94,.29,.29,.43,.47,.45,.57,.14,.67,.35,1.08,.63,1.22,.98,.45,2,1.08,3.06,1.92,1.06,.86,1.69,1.51,1.88,2,.33,.84,.59,1.29,.8,1.37,.69,.2,1.18,.43,1.51,.63l3.27,2.67c1.14,.35,1.82,.9,2.02,1.67,.04,.14,.22,.39,.55,.73,.31,.35,.69,.73,1.14,1.14,.45,.41,.88,.76,1.29,1.06,.39,.29,.69,.47,.86,.53,.78,.22,1.27,.55,1.45,.98,.27,.67,.9,1.51,1.88,2.47,.96,.96,1.84,1.59,2.59,1.92,.65,.24,1.14,.47,1.45,.69-2.78,.51-5.57,.86-8.41,1.06-5.16,.39-10.25,.22-15.25-.43-5.78-.78-11.37-2.14-16.74-4.1-7.55-2.74-14.49-6.59-20.8-11.57-4.8-3.76-9.12-8.04-13-12.82-5.04-6.23-8.96-13.11-11.74-20.6-1.88-5.02-3.23-10.15-4.08-15.33-.9-5.41-1.18-10.84-.88-16.27,.8,1.51,1.88,2.61,3.25,3.27,1.27,.51,2.02,1,2.29,1.47,.8,1.49,1.51,2.39,2.14,2.69,2.41,1.12,3.8,2.08,4.14,2.88,.59,1.39,1.18,2.2,1.78,2.51,1.98,.8,3.33,1.86,4.06,3.18,.49,1,.92,1.55,1.29,1.67,.92,.24,1.9,.78,2.94,1.55,1.06,.78,1.67,1.45,1.84,2.02,.2,.73,.51,1.14,.88,1.27,.45,.14,.82,.31,1.08,.49,1.86,1.49,3.14,2.82,3.86,4l5.43,3.92c.96,.37,1.57,.84,1.8,1.41,.59,1.43,1.92,2.71,3.98,3.88,1.02,.55,1.61,1.04,1.74,1.45,.12,.43,.53,.98,1.2,1.61Zm105.8-109.09c1.06-.2,2.33-.37,3.8-.51l3.12-.16c.63-.02,1.69-.04,3.23-.04s2.69,0,3.53,.04c.96,.04,2.92,.04,5.92,.06l2.78-.1c6.19-.2,11.08-1.18,14.72-2.98,4.49-2.2,8.06-4.94,10.74-8.19,2.92-3.55,4.47-7.57,4.7-12.06,.22-4.33-.78-9.17-2.96-14.51l-1.25-3-.14,.78c-1.08,5.72-2.82,10.59-5.23,14.7-1.88,3.2-4.12,5.86-6.76,7.98-4.7,3.78-10.88,6.19-18.58,7.21l-6.65,.65c-3.39,.33-6.57,1.1-9.57,2.33-5.14,2.08-8.47,4.8-9.98,8.12-.57,1.27-.84,2.53-.78,3.78,.04,.86,.12,1.33,.24,1.39,.02,0,.08-.04,.16-.16,1.74-2.71,4.72-4.47,8.96-5.31Zm-7.51,32.25c3.59,5.49,6.37,11.31,8.35,17.41,2.33,7.31,3.63,14.84,3.9,22.64,.04,1.55,.02,3.39-.1,5.51-.1,2.12-.27,4.08-.51,5.9-1.02,8.17-3.29,15.88-6.76,23.13l-.78,1.63-.14-.22c-.76-1.61-1.59-2.47-2.51-2.61-.45-.08-1.08-.45-1.88-1.12-.82-.67-1.35-1.27-1.61-1.8-.53-1.18-1.06-1.92-1.57-2.18-2.33-1.14-3.74-2.16-4.25-3.06-.65-1.25-1.18-1.94-1.63-2.08-.76-.18-1.61-.65-2.57-1.39-.94-.76-1.53-1.43-1.8-2.02-.31-.84-.73-1.31-1.29-1.43l-5.59-4.08c-.98-1.16-1.88-2.14-2.72-2.94-.86-.82-1.45-1.27-1.82-1.39-.76-.22-1.22-.47-1.39-.78-.82-1.65-1.98-2.9-3.49-3.76-1.31-.65-2.08-1.12-2.31-1.45-1.1-1.71-2.14-2.84-3.08-3.41-1.63-.92-2.57-1.51-2.76-1.8-1.02-1.78-1.8-2.8-2.33-3.06-1.92-.86-3.14-1.67-3.65-2.47-.82-1.31-1.41-2.06-1.76-2.25-2.45-1.29-3.86-2.31-4.25-3.08-.67-1.51-1.25-2.37-1.71-2.55-2.35-.86-3.78-1.86-4.25-3.04-.31-.84-.63-1.31-.96-1.43-1.02-.31-1.71-.59-2.04-.88-.63-.57-1.27-1.18-1.92-1.86-.65-.67-1-1.06-1.02-1.16l-.27-.84-5.7-4.16c-.9-.27-1.41-.57-1.51-.9-.2-.53-.76-1.29-1.67-2.25-.94-.96-1.65-1.53-2.18-1.76-1.08-.41-1.78-1.06-2.02-1.94-.02-.08-.18-.27-.51-.57l-1.12-1.02-1.22-1c-.39-.29-.63-.45-.78-.51-1.35-.51-2.16-1.04-2.45-1.53-.8-1.57-1.61-2.57-2.43-3.04-1.78-.86-2.76-1.51-2.9-1.94-.31-1-.98-1.84-2.04-2.51-2.9-1.82-4.39-2.9-4.51-3.27-.31-1.12-.9-1.88-1.76-2.25-1.8-.67-3.02-1.69-3.67-3.1-.39-.94-.84-1.47-1.33-1.59-.61-.14-1.45-.59-2.53-1.37-1.1-.78-1.82-1.45-2.18-2-.59-1-1-1.55-1.22-1.67l-.92-.53c4.37-2.86,8.92-5.23,13.62-7.1,9.84-3.94,20.15-5.74,30.91-5.41h.14c12.15,.39,23.54,3.43,34.21,9.17,6.59,3.55,12.53,7.98,17.8,13.29,3.92,3.94,7.39,8.25,10.43,12.88ZM105.95,420.36c-.8,.24-1.22,.61-1.35,1.08-.12,.49-.59,1.14-1.43,1.92-.84,.8-1.65,1.37-2.43,1.74-1.06,.41-1.67,.88-1.86,1.41-.14,.41-.63,1.02-1.51,1.84-.86,.84-1.59,1.39-2.18,1.69-1.08,.47-1.76,.9-1.96,1.29-.84,1.67-1.78,2.8-2.84,3.33-1.57,.69-2.57,1.33-3,1.88-.73,1.08-.94,2.59-.61,4.49,.33,1.92,1,3.14,2.02,3.63,1.45,.67,2.49,1.63,3.12,2.88,.92,2,1.76,3.18,2.51,3.61,1.33,.73,2.08,1.25,2.23,1.53,1,2.08,2.1,3.49,3.29,4.21,.96,.49,1.53,.92,1.71,1.29,.49,1.18,1.1,2.25,1.82,3.2,.71,.96,1.33,1.53,1.84,1.71,.82,.24,1.29,.59,1.43,1,.16,.57,.65,1.35,1.45,2.33,.8,.96,1.49,1.63,2.04,1.96,.94,.51,1.51,1.1,1.74,1.78l4,5.67c1.08,.65,2.14,1.49,3.18,2.51,1.02,1.02,1.57,1.78,1.65,2.29,.08,.76,.29,1.18,.59,1.31,1.65,.55,2.84,1.61,3.51,3.18,.47,1.35,.98,2.16,1.53,2.47l2.1,1.16c1,1.16,1.76,1.45,2.25,.86,.29-.35,.53-.57,.71-.69,2.23-1.18,3.57-2.16,4.04-2.9,.61-1.12,1.06-1.76,1.33-1.92,2.35-1.22,3.72-2.35,4.08-3.41,.27-.8,.59-1.29,.98-1.43,.96-.33,1.96-.86,3.02-1.55,1.06-.71,1.74-1.31,2.02-1.8,.49-.96,.84-1.51,1.02-1.63l2.67-1.88,2.76-3.16,1.74-.96,5.21-3.88c.31-.69,.94-1.55,1.9-2.57,.96-1,1.67-1.59,2.14-1.74,.88-.27,1.35-.53,1.43-.73,.2-.59,.67-1.27,1.43-2.02,.73-.73,1.41-1.22,2.04-1.47,1.33-.47,2.12-.94,2.39-1.39,1.1-2.04,2.14-3.33,3.16-3.88,1.74-.82,2.71-1.45,2.94-1.88,.67-1.37,1.41-2.25,2.18-2.65,2-.9,3.18-1.67,3.57-2.35,.84-1.67,1.63-2.67,2.39-2.98,.65-.22,1.45-.71,2.35-1.45,.9-.73,1.43-1.33,1.63-1.8,.29-.82,.63-1.31,1-1.45,.88-.29,1.49-.55,1.86-.78,1.65-1.31,2.67-2.45,3.04-3.45l5.06-3.8c1.14-.49,1.78-.84,1.92-1.04,.94-1.57,2.2-2.9,3.82-3.98,1.02-.61,1.59-1.02,1.74-1.2,1.47-2.08,2.63-3.35,3.51-3.78,1.82-.84,2.82-1.45,2.94-1.84,.39-1.16,1.22-2.12,2.53-2.92,1.82-1.02,2.84-1.8,3.04-2.29,.27-.71,.78-1.47,1.53-2.27,.76-.78,1.43-1.25,2-1.41,1.49-.37,2.41-.98,2.74-1.86,.33-.98,.94-1.69,1.84-2.16,1.92-.96,3.08-1.8,3.47-2.53,.8-1.65,1.47-2.59,2-2.84,2.61-1.08,4.1-2.1,4.43-3.02,.31-.88,.63-1.35,1.02-1.43,.61-.12,1.43-.59,2.43-1.45,1-.84,1.69-1.63,2.1-2.39,.49-.98,.9-1.53,1.22-1.67,.71-.24,2.08-1.12,4.08-2.61l7.82-6.94c.61-1.33,1.92-2.47,3.9-3.43,1.27-.59,1.96-1.14,2.12-1.61,.16-.53,.65-1.2,1.49-2.04s1.53-1.37,2.1-1.59c.96-.33,1.57-.73,1.82-1.18,.88-1.86,1.78-2.92,2.69-3.18,1.57-.43,2.65-1.06,3.23-1.92,1.02-1.71,1.8-2.74,2.35-3.02,1.84-.92,2.98-1.76,3.43-2.51,.88-1.57,1.51-2.45,1.92-2.61,2.25-.78,3.76-1.78,4.55-3,.61-1.1,1.06-1.71,1.31-1.84,.94-.45,1.9-1.06,2.84-1.84,.94-.78,1.47-1.39,1.57-1.84,.24-.98,.63-1.55,1.18-1.74,1.16-.33,1.92-.63,2.29-.96,1.55-1.39,2.49-2.14,2.86-2.27,.73-.22,1.2-.57,1.37-1.02,.18-.61,.73-1.35,1.61-2.27,.88-.9,1.63-1.45,2.25-1.67,.82-.27,1.25-.55,1.33-.86,.12-.65,.27-1.06,.39-1.2l4.02-2.96c1.02-.35,1.65-.71,1.86-1.1,.94-1.96,1.96-3.18,3.06-3.72,1.53-.65,2.41-1.2,2.61-1.65,.45-1.08,1.14-1.92,2.08-2.51,2.35-1.37,3.65-2.31,3.94-2.78,.92-1.65,1.61-2.57,2.08-2.76,2.18-.76,3.49-1.76,3.9-3.02,.24-.82,.57-1.31,.96-1.47,.94-.31,1.86-.78,2.78-1.43,.92-.63,1.59-1.27,2-1.9,.8-1.29,1.31-2,1.55-2.12,1-.47,2.35-1.47,4.04-3.02,.94-1.1,1.61-1.76,2-1.98l5.67-4.31c.27-.61,.86-1.37,1.8-2.31,.94-.94,1.74-1.55,2.39-1.86,1.33-.55,2.04-.98,2.14-1.29,.51-1.55,1.59-2.69,3.29-3.43,1.1-.43,1.76-.78,1.92-1.08,1.04-2.06,2.08-3.35,3.14-3.84,1.78-.73,2.84-1.39,3.16-1.96,.8-1.55,1.45-2.43,1.94-2.61,1.94-.71,3.25-1.71,3.92-3,.49-1.06,.88-1.65,1.16-1.82,2.51-1.18,4.08-2.25,4.67-3.16,.8-1.35,1.39-2.08,1.76-2.23,.9-.33,1.82-.88,2.71-1.65,.92-.8,1.45-1.49,1.61-2.08,.18-.76,.47-1.18,.9-1.29,.76-.14,1.37-.41,1.86-.8l2.8-2.33c.98-.47,1.59-.94,1.8-1.41,.08-.16,.29-.45,.61-.84,.35-.39,.73-.8,1.2-1.25,.45-.45,.88-.84,1.29-1.16,.39-.33,.69-.53,.86-.59,.9-.41,1.39-.71,1.47-.98,.16-.53,.63-1.16,1.39-1.92,.78-.73,1.55-1.31,2.31-1.67,1.51-.67,2.33-1.27,2.47-1.78,.14-.49,.61-1.12,1.39-1.92,.78-.8,1.47-1.33,2.04-1.59,1.08-.45,1.71-.82,1.88-1.1,.92-1.74,1.92-2.9,3-3.47,1.94-.96,3.08-1.76,3.45-2.43,.57-1.25,1.33-2.12,2.25-2.59,1.74-.78,2.82-1.59,3.25-2.47,.65-1.47,1.33-2.33,2-2.59,1-.31,1.94-.8,2.8-1.43,.86-.63,1.39-1.25,1.63-1.86,.27-.82,.61-1.29,1.02-1.41,.67-.14,1.51-.61,2.53-1.41,1.02-.78,1.63-1.45,1.88-1.98,.53-1.33,.98-2.02,1.37-2.12,.61-.1,1.1-.27,1.43-.43l4.7-3.63c1.69-2.02,3.06-3.35,4.14-3.96,1.02-.55,1.55-1,1.59-1.31,.1-.63,.35-1.1,.8-1.37l5.14-3.45c1.47-2.2,2.51-3.47,3.18-3.8,1.53-.71,2.41-1.37,2.59-1.98,.24-.88,.88-1.59,1.9-2.18,2.82-1.49,4.37-2.59,4.63-3.35,.35-1.02,.94-1.78,1.78-2.25,1.61-.78,2.71-1.59,3.31-2.41,.94-1.49,1.76-2.37,2.45-2.61,.82-.29,1.69-.82,2.67-1.61,.96-.78,1.49-1.41,1.61-1.9,.14-.73,.45-1.14,.92-1.25,.65-.14,1.53-.67,2.61-1.57,1.08-.92,1.78-1.69,2.06-2.37,.35-.82,.61-1.22,.86-1.27,.84-.1,1.61-.49,2.33-1.16,1.35-1.27,2.12-1.94,2.31-2,.96-.33,1.55-.71,1.8-1.12,.41-.88,1.08-1.76,2-2.67,.92-.92,1.69-1.45,2.33-1.61,.86-.18,1.35-.49,1.49-.96,.1-.45,.51-1.08,1.22-1.86,.73-.78,1.35-1.29,1.88-1.51,1.63-.63,2.57-1.2,2.78-1.76,.47-1.41,1.27-2.41,2.37-3.04,2.23-1.18,3.53-2.1,3.9-2.74,.65-1.27,1.47-2.14,2.45-2.65,1.69-.76,2.71-1.53,3.08-2.31l.63-1.55c.76-.94,1.61-1.39,2.59-1.35,.96,.04,1.69,.55,2.18,1.55,.67,1.43,1.37,2.25,2.12,2.45,.43,.12,1.18,.61,2.29,1.47,1.1,.86,1.74,1.49,1.94,1.86,.41,1,.9,1.57,1.43,1.69,.59,.14,1.39,.63,2.37,1.47,1,.84,1.61,1.55,1.86,2.12,.31,.84,.73,1.31,1.31,1.41l6,4.18c.55,.9,1.31,1.82,2.27,2.76,.94,.96,1.65,1.51,2.14,1.67,.78,.24,1.22,.59,1.39,1.04,.16,.53,.63,1.2,1.45,1.98,.82,.8,1.51,1.29,2.08,1.47,1.33,.37,2.18,.96,2.51,1.78,.45,1.22,1.29,2.2,2.53,2.92,1.76,.98,2.78,1.65,3.04,2.04,1.25,1.9,2.31,3.06,3.16,3.47,1.98,.88,3.12,1.63,3.37,2.31,.41,1.1,.98,1.86,1.78,2.25,1.69,.76,3.02,1.88,3.94,3.37,.59,1,1.06,1.59,1.45,1.76,.92,.33,1.88,.86,2.92,1.59,1.04,.76,1.61,1.35,1.76,1.78,.24,.78,.61,1.22,1.08,1.35,.37,.1,1.02,.55,1.96,1.35,.96,.82,1.67,1.51,2.12,2.1,.59,.88,.94,1.35,1.02,1.41l5.27,3.55c.86,.24,1.33,.59,1.43,1.04,.06,.31,.22,.67,.49,1.08-.76,4.82-1.1,9.72-1.04,14.7,.02,1.88,.1,3.98,.27,6.31,.12,1.8,.37,3.9,.71,6.27,.37,2.39,.73,4.45,1.14,6.14,.67,2.94,1.43,5.65,2.23,8.14,3.06,9.64,7.68,18.41,13.82,26.37,2.53,3.29,5.23,6.37,8.08,9.25,4,4.02,8.35,7.59,13,10.74,5.96,4,12.37,7.29,19.25,9.86,8.04,3,16.39,4.74,25.05,5.25l1.61,.08c.51,.04,2.23,.06,5.19,.06,1.06,.02,2.27-.02,3.65-.08,1.41-.08,2.59-.16,3.57-.27,5.59-.57,10.84-1.55,15.76-2.9l.63-.18c.76,.53,1.22,1,1.41,1.41,.35,.94,.73,1.51,1.18,1.76,2.12,.98,3.45,1.92,3.98,2.82,.69,1.33,1.31,2.14,1.8,2.43,1.65,.82,2.9,1.61,3.74,2.37-.94,3.51-2.67,7.88-5.27,13.15-3.9,7.94-6.14,14.11-6.74,18.52-.14,.98-.2,2.16-.18,3.55,.02,1.39,.12,2.67,.29,3.88,.45,3.31,1.22,6.21,2.35,8.7l.18,.45c-.41-.29-.88-.67-1.39-1.14-1-.9-1.59-1.61-1.82-2.16-.29-.8-.57-1.25-.86-1.33-1-.29-1.84-.69-2.49-1.27-1.31-1.1-2.06-1.69-2.25-1.76-1.18-.41-1.88-.88-2.06-1.39-.31-.73-.92-1.61-1.84-2.57-.94-.96-1.69-1.53-2.27-1.69-.78-.16-1.2-.55-1.33-1.1-.08-.37-.49-.9-1.2-1.57-.71-.69-1.33-1.14-1.86-1.37-1.59-.55-2.55-1.08-2.88-1.61-1.2-2.16-2.25-3.43-3.14-3.84-1.25-.47-2.1-1.02-2.61-1.67l.24-.27c2.84-3.33,4.94-6.43,6.29-9.33,3.29-7.04,3.43-12.45,.41-16.25-.29-.35-.61-.71-1.02-1.08s-.67-.57-.76-.55c-.06,0-.1,.02-.12,.08-.02,.08-.02,.14,0,.22,.53,2.16,.24,4.47-.88,6.88-.98,2.18-2.51,4.45-4.57,6.78l-2.92,3.12-3.65,3.57c-.41-.63-.8-1.04-1.14-1.2-.82-.33-1.69-.86-2.63-1.57-.92-.71-1.51-1.33-1.74-1.82-.41-.88-.73-1.39-.96-1.47-.82-.29-1.71-.78-2.74-1.51-1-.71-1.61-1.31-1.84-1.76-.39-.9-.92-1.51-1.59-1.84l-5.92-4.55c-.37-.65-.96-1.35-1.8-2.08-.84-.76-1.65-1.35-2.45-1.76-.96-.47-1.49-.92-1.57-1.37-.08-.47-.57-1.12-1.45-2.02l-.59-.55c-.02-.78-.14-1.53-.37-2.29-.1-.39-.27-.8-.45-1.2-.16-.41-.31-.63-.37-.65-.04-.02-.1-.02-.14,.02-.04,.02-.08,.06-.08,.12-.2,.94-.53,1.82-.98,2.65-.61-.27-1.02-.57-1.22-.92-.71-1.39-1.61-2.41-2.67-3-1.88-.98-2.92-1.74-3.16-2.25-.61-1.61-1.71-2.82-3.27-3.59-1.67-.73-2.63-1.47-2.92-2.23-.41-1.22-1.18-1.96-2.37-2.2-.55-.1-1.16-.47-1.82-1.06-.67-.61-1.25-1.31-1.71-2.14-.55-1.1-1.02-1.71-1.39-1.84-.78-.25-1.63-.69-2.59-1.35-.94-.67-1.51-1.2-1.67-1.65-.43-1.12-1.04-1.86-1.8-2.16-1.78-.67-3.16-1.8-4.18-3.41-.53-.88-1.06-1.41-1.61-1.55l-5.51-4.18c-2.25-2.55-3.72-3.94-4.41-4.18-.88-.29-1.37-.61-1.49-.94-.2-.63-.65-1.31-1.39-2.04-.71-.73-1.49-1.31-2.33-1.74-1.2-.53-1.88-.96-1.98-1.29-.18-.53-.61-1.16-1.31-1.92-.69-.73-1.35-1.27-1.94-1.57l-.78-.37c1.43-.8,2.57-1.86,3.41-3.16,.31-.49,.57-1,.78-1.51s.27-.82,.2-.96c-.02-.02-.04-.04-.08-.04-.02,0-.06,.02-.1,.04l-.14,.12c-1.43,.86-2.96,1.35-4.59,1.47l-.04,.02c-1.12,.06-2.25,.02-3.33-.12l-.45-.29c-1.74-.67-2.82-1.37-3.27-2.12-.78-1.43-1.51-2.31-2.2-2.65-.94-.41-1.82-.94-2.61-1.59-.82-.63-1.33-1.2-1.53-1.71-.49-1.29-1.2-2.1-2.16-2.41-.78-.22-1.65-.69-2.63-1.39-.98-.71-1.49-1.27-1.59-1.67-.1-.65-.37-1.04-.73-1.14-.59-.16-1.51-.8-2.74-1.92-1.22-1.1-1.9-1.92-2.04-2.43-.14-.65-.41-1.02-.76-1.1-.67-.14-1.22-.39-1.67-.76-1.63-1.39-2.61-2.14-2.9-2.27-1.35-.47-2.08-.98-2.2-1.53-.1-.47-.57-1.16-1.43-2.08-.86-.92-1.55-1.47-2.06-1.67-1.12-.39-1.8-.96-2-1.71-.1-.37-.65-.98-1.61-1.82s-1.71-1.37-2.25-1.59c-1.18-.41-1.88-.8-2.08-1.14-1.04-1.96-1.96-3.1-2.8-3.45-1.59-.57-2.49-1.18-2.71-1.84-.27-.96-.94-1.8-2.04-2.49-2.86-1.82-4.33-2.86-4.43-3.1-.49-1.22-1-1.98-1.51-2.29l1.41-.18c.47-.08,1.29-.12,2.41-.12,1.14-.02,2,0,2.59,.04,5.59,.43,11.15,2.57,16.66,6.41l2.08,1.53,6.04,4.9c2.94,2.37,6.23,4.21,9.86,5.47,6.31,2.18,11,1.57,14.09-1.84l.78-1.04-.65,.14c-2.12,.45-4.41,.12-6.84-1-1.78-.8-3.82-2.18-6.14-4.1-.41-.35-1.1-.98-2.1-1.92-1-.92-1.74-1.65-2.23-2.14-4.12-4.25-6.8-6.92-7.98-8.06-5.27-5-10.23-8.19-14.92-9.53l-1.71-.49c-2.82-.61-5.41-.92-7.8-.92-5.74-.02-10.64,1.92-14.7,5.78-.73-.43-1.45-.65-2.12-.67-.45-.02-1.22,.41-2.31,1.29-1.08,.88-1.84,1.69-2.33,2.47l-5.14,4.25c-1.35,.8-2.12,1.45-2.31,1.94-.14,.43-.67,1.04-1.59,1.84-.9,.78-1.65,1.31-2.27,1.55-.96,.35-1.51,.8-1.67,1.33-.1,.39-.53,.96-1.29,1.74-.76,.8-1.37,1.33-1.88,1.57-1.61,.73-2.51,1.27-2.65,1.65-.53,1.45-1.27,2.43-2.2,2.92-2.02,.96-3.27,1.76-3.74,2.41-1.02,1.57-1.67,2.43-1.98,2.59-2.2,1.08-3.53,2.06-3.96,2.98-.69,1.63-1.51,2.55-2.43,2.74-.63,.12-1.41,.49-2.33,1.12-.9,.65-1.45,1.18-1.61,1.65-.35,.94-.76,1.49-1.22,1.65-.69,.22-1.53,.76-2.51,1.59s-1.53,1.53-1.69,2.02c-.18,.61-.29,.96-.35,1.04l-6.02,3.88c-.82,.2-1.25,.57-1.33,1.1-.04,.35-.55,1-1.51,1.98s-1.8,1.67-2.49,2.1c-.88,.47-1.37,.86-1.47,1.14-.16,.51-.31,.82-.41,.96l-3.47,2.74c-1.49,.57-2.33,1.14-2.51,1.76-.12,.53-.49,1.08-1.1,1.69-.59,.61-1.31,1.12-2.1,1.55-1.06,.47-1.65,.88-1.8,1.18-.61,1.45-1.57,2.53-2.92,3.29-2.1,1.08-3.29,1.88-3.55,2.39-.63,1.37-1.16,2.16-1.61,2.41-2.25,1.02-3.57,2.08-4,3.16-.33,.94-.69,1.49-1.06,1.63-1.18,.41-2.31,1-3.41,1.82-1.1,.82-1.78,1.53-2.02,2.18-.33,.82-.59,1.25-.84,1.31-.61,.1-1.02,.22-1.25,.37l-4.23,4.14-4.98,3.84c-.9,.29-1.39,.61-1.51,.94-.24,.67-.94,1.61-2.12,2.8-1.16,1.18-2.02,1.82-2.55,1.9-.78,.1-1.22,.37-1.37,.8-.16,.61-.55,1.22-1.2,1.88-.63,.65-1.35,1.14-2.12,1.49-1.08,.41-1.76,.82-2.02,1.2-1.29,2.16-2.39,3.51-3.29,4-1.82,.88-2.84,1.55-3.06,2.04-.57,1.35-1.31,2.14-2.18,2.41-1.25,.31-2.37,1.12-3.39,2.49l-1.8,2.53c-2.69,1.39-4.18,2.49-4.47,3.27-.33,.98-.84,1.61-1.53,1.94-2.1,.9-3.53,2-4.29,3.33-.53,1-.94,1.53-1.25,1.63-.69,.2-1.59,.82-2.74,1.86-1.04,.76-1.78,1.55-2.18,2.39l-5.51,4.16c-.82,.25-1.31,.57-1.43,1-.12,.51-.57,1.16-1.33,2.02-.78,.84-1.45,1.37-2.02,1.61-1.27,.51-2.02,.92-2.23,1.25-1.06,1.78-2.18,3-3.41,3.63-1.61,.82-2.49,1.37-2.61,1.67-.63,1.71-1.71,2.94-3.27,3.65-1.33,.53-2.14,1.06-2.45,1.59-.8,1.37-1.65,2.31-2.55,2.8-2,1.06-3.18,1.98-3.51,2.74-.67,1.57-1.39,2.49-2.12,2.74-2.04,.51-3.33,1.45-3.86,2.82-.31,.84-.69,1.33-1.2,1.49-.76,.2-1.65,.73-2.67,1.59-1,.86-1.71,1.67-2.14,2.47-.43,.92-.82,1.45-1.12,1.53l-.88,.27-5.39,3.92c-.57,.8-1.29,1.63-2.18,2.51-.88,.88-1.61,1.45-2.14,1.76-.84,.43-1.31,.86-1.43,1.27-.1,.43-.59,1.04-1.47,1.84-.9,.8-1.67,1.35-2.35,1.63-1.25,.47-2.02,.94-2.33,1.39-1,1.76-1.9,2.86-2.69,3.29-1.61,.76-2.51,1.39-2.67,1.88-.35,1.12-1.08,2.02-2.18,2.67-2.43,1.37-3.78,2.25-4.04,2.67-.9,1.47-1.55,2.33-2,2.55-1.71,.8-2.84,1.65-3.37,2.57-.73,1.39-1.39,2.14-1.96,2.31-.59,.14-1.47,.65-2.61,1.51-1.16,.86-1.84,1.51-2,1.94-.29,.73-.55,1.18-.84,1.33-2.14,1.04-3.65,2.33-4.51,3.84-.61,1.18-1.06,1.8-1.35,1.82-.73,.04-1.29,.2-1.63,.49-1.69,1.47-2.63,2.25-2.82,2.33-1.04,.41-1.61,.73-1.76,.96-.35,.69-.92,1.49-1.74,2.41-.8,.9-1.53,1.57-2.18,2l-1.96,1.2c-.76,1.51-1.92,2.61-3.47,3.33-1.41,.61-2.2,1.08-2.35,1.39-.84,1.96-2.04,3.35-3.59,4.14-1.35,.61-2.23,1.25-2.63,1.92-.8,1.47-1.57,2.39-2.39,2.76-1.86,.71-2.96,1.41-3.29,2.08-.71,1.57-1.47,2.51-2.27,2.84-.71,.27-1.51,.73-2.35,1.43-.86,.69-1.39,1.31-1.65,1.82-.37,.9-.78,1.41-1.18,1.53-.88,.27-1.78,.76-2.74,1.45-.96,.69-1.53,1.33-1.74,1.86-.35,.92-.65,1.43-.94,1.51-.55,.18-1.29,.61-2.18,1.31-.92,.69-1.65,1.37-2.23,2.06-.63,.82-1.04,1.31-1.25,1.45l-6.47,4.74c-.82,1.84-2.1,3.14-3.9,3.92-1.12,.41-1.74,.8-1.84,1.14-.39,1.35-1.49,2.51-3.27,3.45-1,.45-1.55,.8-1.67,1.02l-.04,381.77c0,1.31,.02,2.16,.08,2.59,.06,.59,.29,1.04,.69,1.33,.67,.43,1.04,.88,1.1,1.33,.14,1.57,.53,2.88,1.12,3.94,.61,1.02,.96,1.65,1.06,1.9,.51,1.49,1.22,2.41,2.12,2.76,1,.33,2.06,.88,3.2,1.67l586.91,.55,1.02-.94,2.94-3.02c1.08-2.39,1.82-3.63,2.18-3.74,.67-.18,1.14-.88,1.37-2.12l.84-385.04c0-1.43-.02-2.37-.1-2.86-.12-.67-.55-1.22-1.31-1.63-1.74-.82-2.8-1.55-3.18-2.2-.73-1.39-1.53-2.29-2.39-2.69-1.94-.84-3.06-1.61-3.39-2.33-.47-1.16-1.02-1.94-1.63-2.33-2.31-1.29-3.72-2.33-4.23-3.1-.69-1.16-1.25-1.86-1.65-2.04-.96-.39-1.88-.92-2.78-1.63-.88-.69-1.45-1.35-1.71-1.94-.35-.8-.63-1.22-.84-1.31-.76-.22-1.31-.51-1.63-.8-1.43-1.39-2.45-2.25-3.06-2.59-.98-.49-1.61-1.1-1.94-1.82l-2.33-2c-.65-.67-1.14-1.06-1.49-1.18-.86-.24-1.37-.55-1.51-.92-.27-.73-.71-1.47-1.37-2.2-.65-.76-1.29-1.27-1.9-1.53-1.63-.63-2.57-1.2-2.76-1.76-.39-1.18-1.31-2.16-2.76-2.96-1.63-.9-2.55-1.49-2.74-1.8-1.16-2.16-2.33-3.49-3.47-3.98h-.1c-1.33-.53-2.12-1-2.35-1.39-.71-1.31-1.33-2.1-1.88-2.43-2.33-1.16-3.78-2.31-4.33-3.41-.53-1.16-1-1.86-1.41-2.08-2.53-1.27-3.98-2.27-4.33-2.98-.49-1.04-1.18-1.67-2.08-1.9-.33-.1-.96-.57-1.9-1.41s-1.57-1.51-1.92-2.02l-1.02-1.69-1.31-.59-5.1-4c-.53-.63-1.25-1.39-2.16-2.25-.92-.84-1.59-1.41-2.02-1.65-1.04-.57-1.65-1.12-1.82-1.63-.31-1.04-1.61-2.16-3.9-3.39-1.1-.51-1.71-.88-1.84-1.12-.9-1.69-2.04-2.92-3.39-3.65-1.2-.63-1.9-1.08-2.06-1.39-.8-1.53-1.51-2.51-2.2-2.9-2.84-1.47-4.35-2.47-4.53-2.98-.24-.67-.49-1.22-.8-1.61,1.61,.53,3.35,.94,5.21,1.25,.59,.1,1.55,.2,2.86,.31,1.33,.12,2.37,.18,3.16,.18l1.37,.04c.39,.02,.61,.02,.63,0,.04-.04,.02-.1-.06-.14-3.8-2.65-6.98-5.55-9.55-8.63-.94-1.16-1.88-2.47-2.82-3.96-2.18-3.49-3.53-7.17-4.02-11.02-.31-2.35-.39-4.51-.22-6.49l.18-1.94c.08-1.12,.37-2.61,.82-4.47,.45-1.86,.96-3.61,1.53-5.23l1.35-3.84c.98-2.84,1.67-5.37,2.08-7.63l.2-1.67,.18,.37c.22,.78,.53,1.18,.92,1.25,.49,.08,.88,.22,1.16,.45,1.57,1.35,2.9,2.27,3.98,2.78,.92,.39,1.45,.84,1.57,1.35,.08,.45,.57,1.14,1.43,2.08,.84,.94,1.53,1.51,2.04,1.74,1.14,.45,1.82,.84,2,1.14,.98,1.86,2.04,2.98,3.2,3.35,1.47,.43,2.45,1.04,2.9,1.86,.67,1.51,1.45,2.55,2.33,3.1,1.92,1.08,2.98,1.8,3.2,2.16,.8,1.55,1.61,2.51,2.47,2.9,2.02,.84,3.25,1.61,3.61,2.31,.71,1.49,1.31,2.33,1.74,2.53,2.04,.88,3.47,2.04,4.31,3.51,.51,1.02,.94,1.57,1.27,1.69,1.06,.31,2.08,.8,3.02,1.47,.94,.67,1.51,1.31,1.67,1.88,.22,.73,.51,1.16,.88,1.29,.69,.22,1.53,.78,2.51,1.63,.98,.88,1.76,1.78,2.33,2.67l5.7,4.21c.86,.24,1.37,.55,1.51,.94,.22,.67,.65,1.37,1.27,2.1,.63,.73,1.29,1.31,1.94,1.67,1.55,.84,2.39,1.39,2.55,1.69,.47,1.08,1.37,2,2.67,2.78,1.94,1.1,2.96,1.76,3.1,1.98,1.12,2.06,2.27,3.41,3.47,4,1.25,.57,1.98,1.02,2.16,1.35,.86,1.59,1.57,2.49,2.14,2.71,2.02,.65,3.39,1.61,4.12,2.88,.8,1.49,1.43,2.37,1.92,2.61,1.84,.78,3.12,1.76,3.82,2.92,.67,1.16,1.31,1.78,1.9,1.86,.47,.06,1.22,.49,2.23,1.29,.98,.8,1.63,1.49,1.94,2.06,.45,.9,1.06,1.55,1.88,1.92l5.7,4.45c.12,.18,.37,.47,.73,.86,.37,.41,.8,.82,1.27,1.27,.47,.43,.9,.82,1.29,1.12,.39,.31,.63,.47,.76,.51,.86,.27,1.37,.57,1.51,.94,.22,.65,.71,1.37,1.43,2.16,.71,.78,1.43,1.37,2.16,1.78,1.51,.76,2.35,1.33,2.51,1.74,.2,.49,.63,1.04,1.31,1.67,.67,.63,1.39,1.16,2.18,1.57,1.08,.53,1.74,.96,1.94,1.31,.94,1.76,1.69,2.78,2.31,3.08,2.16,.96,3.55,1.9,4.14,2.8,.59,1.1,1.08,1.78,1.47,2,2.16,1.18,3.51,2.18,4,3.04,.82,1.59,1.59,2.51,2.31,2.76,1.76,.55,3.14,1.59,4.14,3.14,.45,.78,.88,1.2,1.31,1.33,.49,.12,1.25,.63,2.27,1.53,1,.9,1.63,1.61,1.88,2.14,.39,.9,.69,1.39,.96,1.49,.96,.35,1.61,.65,1.98,.94l2.71,2.16c1.33,.39,2.1,.94,2.29,1.71,.1,.41,.61,1.08,1.51,2,.88,.92,1.57,1.49,2.06,1.67,.9,.37,1.43,.76,1.55,1.16,.14,.43,.65,1.06,1.57,1.92,.9,.88,1.65,1.45,2.29,1.76,1.61,.69,2.49,1.25,2.63,1.61,.47,1.37,1.2,2.35,2.23,2.94,1.78,.94,2.76,1.63,2.98,2.12,.47,1.16,1.22,2.04,2.23,2.63,2.43,1.31,3.82,2.25,4.14,2.8,.78,1.47,1.35,2.25,1.67,2.37,.78,.27,1.63,.76,2.53,1.47s1.45,1.33,1.65,1.86c.27,.78,.53,1.22,.8,1.35l2.49,1.25c1.51,1.27,2.45,1.76,2.84,1.45,.37-.33,.63-.51,.8-.57,1.33-.49,2.31-1.25,2.92-2.27,1.08-1.98,1.88-3.14,2.41-3.49,1.39-.84,2.12-1.53,2.25-2.06,.1-.63,.47-1.37,1.1-2.2,.63-.82,1.22-1.37,1.78-1.61,1.25-.51,2.04-1.1,2.43-1.82,1.04-2.04,2.04-3.41,3-4.04,1.22-.76,1.94-1.39,2.1-1.88,.22-.78,.67-1.57,1.35-2.37,.65-.82,1.39-1.45,2.16-1.9,.78-.39,1.31-.94,1.61-1.65l3.8-5.08c2.06-1.8,3.41-3.2,4.06-4.27,.67-1.25,1.2-1.94,1.61-2.08,.65-.22,1.33-.69,2.04-1.41,.69-.71,1.2-1.49,1.53-2.29,.39-1.12,.76-1.74,1.12-1.86,.63-.2,1.27-.61,1.9-1.2,.65-.59,1.18-1.27,1.57-2.02,.73-1.57,1.43-2.51,2.08-2.8,.37-.14,.59-.29,.69-.41,.24-.29,.33-.61,.24-.96-.08-.35-.29-.57-.61-.65-.82-.2-1.33-.53-1.49-.98-.22-.67-.63-1.35-1.27-2-.61-.67-1.2-1.1-1.8-1.29-1.49-.43-2.41-1.06-2.76-1.88-.55-1.43-1.35-2.45-2.35-3.06-2.02-1.14-3.16-1.88-3.39-2.23-.92-1.55-1.65-2.45-2.16-2.65-2-.71-3.37-1.78-4.06-3.16-.47-1.02-.88-1.61-1.22-1.78-1.1-.47-2.1-1.06-3.04-1.78-.94-.71-1.49-1.31-1.65-1.82-.27-.8-.61-1.29-1.02-1.43-.92-.27-1.82-.73-2.74-1.41-.9-.65-1.49-1.29-1.78-1.9-.41-.86-1-1.51-1.8-1.92l-5.39-4.06c-.45-.71-1.67-1.9-3.65-3.57l.04-.04c-.35-.33-.67-.53-.98-.61-.8-.2-1.25-.47-1.37-.8-.27-.8-.76-1.61-1.49-2.43-.76-.82-1.45-1.33-2.08-1.51-1.2-.33-1.98-.8-2.33-1.41-.63-1.33-1.53-2.35-2.69-3.04-1.84-1.04-2.84-1.74-3.02-2.06-.98-2-2.1-3.27-3.37-3.82-1.33-.49-2.12-.94-2.41-1.37-.88-1.43-1.49-2.23-1.86-2.43-2.23-1.16-3.61-2.2-4.16-3.14-.78-1.49-1.47-2.39-2.1-2.67-1.98-.86-3.29-1.8-3.92-2.86-.57-1.04-1.18-1.59-1.82-1.63-.35-.04-1.02-.51-2.02-1.41-1-.92-1.65-1.65-1.94-2.18-.37-.8-1.04-1.47-2-2l-5.23-3.92c-.84-1.02-1.69-1.96-2.57-2.8-.9-.82-1.55-1.33-2-1.49-.86-.29-1.37-.76-1.57-1.41-.12-.41-.61-1-1.43-1.74-.84-.73-1.63-1.29-2.39-1.65-1.06-.45-1.69-.82-1.88-1.12-1.06-1.9-2.2-3.16-3.43-3.78-1.16-.47-1.92-.98-2.25-1.55-.86-1.53-1.71-2.53-2.61-3-2.31-1.22-3.61-2.08-3.92-2.59-.71-1.41-1.2-2.16-1.47-2.29-1.02-.43-1.92-.92-2.69-1.51-.78-.59-1.25-1.14-1.41-1.61-.31-1.1-.92-1.82-1.82-2.18-.98-.37-1.59-.63-1.86-.86-1.82-1.57-2.76-2.43-2.8-2.57-.16-.71-.47-1.12-.92-1.25-.53-.12-1.39-.73-2.57-1.82-1.16-1.1-1.84-1.92-2.02-2.47-.18-.67-.43-1.02-.78-1.08-.88-.1-1.71-.53-2.49-1.27-.98-1.02-1.65-1.61-2.04-1.76-1.35-.45-2.08-.96-2.2-1.53-.1-.39-.51-1-1.25-1.78-.73-.8-1.45-1.41-2.12-1.84-1.25-.63-1.92-1.12-2.02-1.45-.16-.67-.65-1.27-1.47-1.78-.76-.69-1.33-1.16-1.69-1.43,1.16,.16,2.35,.22,3.51,.18,5.37-.2,10.72-2.51,16.07-6.92l4.31-3.86c-.35,.02-.67,.06-.96,.1-3.23,.55-6.51,.78-9.9,.71l-1.47-.12c-2.2-.14-4.35-.51-6.43-1.06-5.33-1.41-9.9-4.14-13.72-8.19-2.92-3.12-5.7-7.49-8.31-13.13-2.14-4.57-4.41-8.25-6.8-11.02l-.78-.84c-.31-.33-.51-.55-.65-.67l-.45-.41c-.57-.59-1.31-1.22-2.2-1.88-.9-.65-1.76-1.16-2.57-1.57-3.04-1.49-5.88-1.67-8.55-.55-.35,.14-.69,.35-.98,.57l.57,.14c2.61,.71,4.86,2.37,6.72,4.98,1.76,2.45,3.57,6.35,5.47,11.74,1.63,4.72,3.08,8.55,4.29,11.51-.88-.49-1.65-.98-2.33-1.49-.84-.65-1.35-1.2-1.51-1.61-.33-.86-.59-1.31-.8-1.37-.67-.18-1.16-.41-1.49-.65l-2.98-2.67c-1.02-.45-1.59-.78-1.71-.98-.37-.65-1.02-1.41-1.98-2.29-.94-.88-1.84-1.55-2.65-1.98-.9-.45-1.45-1.04-1.63-1.8-.04-.12-.2-.35-.49-.67-.31-.35-.65-.71-1.08-1.12-.43-.41-.84-.76-1.22-1.06-.37-.31-.65-.51-.82-.57-1.29-.51-2-.94-2.12-1.29-.31-.82-.88-1.55-1.78-2.2,1.94-3.57,3.59-7.23,4.96-10.96,3.02-8.17,4.86-16.64,5.49-25.39l.16-3.41c.16-7.8-.59-15.37-2.27-22.72-2-8.8-5.39-17.25-10.15-25.35l-2-3.16c-2.2-3.53-4.98-7.17-8.31-10.88-5.74-6.41-12.35-11.92-19.88-16.54-10.33-6.37-21.43-10.43-33.29-12.21l-4.92-.59-4.76-.33h-.04l-1.22-.02h-5.61c-11.23,.47-21.86,2.84-31.93,7.1-5.94,2.53-11.55,5.72-16.86,9.53l-.06-.04c-.8-.22-1.25-.67-1.37-1.33-.06-.35-.55-.98-1.43-1.9-.88-.9-1.61-1.51-2.14-1.8-1.35-.61-2.1-1.08-2.29-1.41-.8-1.59-1.63-2.57-2.53-2.94-1.65-.59-2.69-1.25-3.08-1.94-.98-1.8-1.94-2.92-2.84-3.41-1.67-.78-2.69-1.45-3.06-2.04-.88-1.49-1.51-2.29-1.92-2.37-.49-.1-.96-.29-1.45-.53l-.12-3.92-.18-2.16c-.51-4.82-1.71-8.94-3.61-12.35-4.45-8-10.27-12.51-17.43-13.55-1.02-.14-2.25-.22-3.63-.22-2.82,0-5.88,.53-9.12,1.59-.43-.69-1.12-1.33-2.08-1.9-1.67-.92-2.59-1.53-2.74-1.8-1.2-2.14-2.37-3.47-3.47-3.98-1.61-.61-2.61-1.25-3-1.88-.61-1.14-1.16-1.84-1.63-2.1-2.06-1.12-3.33-2.1-3.84-2.94-.82-1.53-1.47-2.41-1.98-2.61-.92-.33-1.82-.84-2.74-1.51-.92-.65-1.51-1.25-1.74-1.76-.29-.76-.67-1.18-1.14-1.27-.67-.12-1.47-.61-2.39-1.53-.92-.9-1.71-1.94-2.39-3.14l-5.61-4.04c-.76-.14-1.2-.41-1.37-.8-.2-.53-.73-1.29-1.61-2.2-.86-.92-1.57-1.53-2.14-1.84-1.02-.45-1.67-.88-1.92-1.29-.65-1.27-1.74-2.37-3.18-3.25-1.1-.63-2.98-.98-5.67-1.08-2.69-.1-4.31,.14-4.84,.71-.49,.57-.88,.9-1.18,.98-1.55,.37-2.53,1-2.96,1.92-.59,1.37-1.08,2.14-1.45,2.29-2.2,.78-3.53,1.78-4,2.96-.41,1.2-1.06,1.98-1.96,2.35-1.16,.45-2.18,.96-3.02,1.57-.86,.61-1.37,1.18-1.51,1.69-.22,.84-.49,1.29-.8,1.37-.76,.18-1.63,.71-2.67,1.63-1.02,.9-1.69,1.74-2.02,2.51-.24,.73-.84,1.22-1.78,1.47l-5.49,3.63c-.41,.88-1.16,1.88-2.23,3-1.08,1.12-1.88,1.71-2.39,1.78-.8,.1-1.29,.35-1.43,.73-.27,.76-.67,1.45-1.22,2.08-.53,.61-1.08,1.02-1.65,1.25-1.65,.55-2.63,1.18-2.94,1.9-.2,.61-.65,1.27-1.31,2.02-.67,.73-1.31,1.27-1.94,1.63-1.51,.71-2.45,1.39-2.84,2-.61,1.2-1.39,2.04-2.33,2.51-1.69,.78-2.82,1.63-3.39,2.53-.71,1.33-1.45,2.2-2.2,2.61-1.82,.88-3.1,1.92-3.9,3.16-.61,1.06-1.18,1.65-1.71,1.78-.59,.14-1.35,.55-2.27,1.29-.92,.71-1.49,1.37-1.76,1.92-.45,.96-.82,1.47-1.14,1.55-.45,.1-1.18,.53-2.2,1.31-1.02,.76-1.74,1.41-2.12,1.92-.57,.86-1.02,1.39-1.33,1.61l-6.06,4.41c-.41,.78-.96,1.53-1.63,2.29-.67,.76-1.29,1.27-1.82,1.53-1.61,.69-2.53,1.37-2.78,2-.18,.51-.65,1.1-1.39,1.78-.73,.67-1.51,1.2-2.29,1.59-1.06,.43-1.67,.8-1.82,1.12-.86,2.06-1.9,3.37-3.12,3.92-1.69,.61-2.61,1.1-2.78,1.47-.47,1.18-1.14,2.04-2,2.55-2.43,1.41-3.78,2.39-4.04,2.96-.65,1.61-1.37,2.53-2.1,2.78-2.04,.51-3.33,1.45-3.86,2.82-.29,.84-.69,1.33-1.2,1.47-.63,.18-1.51,.73-2.63,1.67-1.12,.94-1.86,1.74-2.18,2.39-.41,.9-.71,1.39-.92,1.47-.86,.27-1.76,.73-2.67,1.41-.92,.65-1.55,1.27-1.88,1.84-.49,.92-.88,1.43-1.18,1.55-.69,.2-1.41,.65-2.16,1.29-1.39,1.27-2.14,1.94-2.29,2.02-1.04,.59-1.65,1.04-1.82,1.41-.27,.55-.9,1.29-1.9,2.18-1.02,.9-1.9,1.53-2.65,1.88-.9,.33-1.41,.69-1.59,1.08-.55,1.51-1.76,2.74-3.59,3.63-1.04,.45-1.63,.84-1.8,1.18-.61,1.43-1.57,2.51-2.9,3.29-2.06,1.12-3.25,1.92-3.53,2.41-.76,1.37-1.29,2.16-1.65,2.37-2.31,1.1-3.67,2.23-4.08,3.39-.27,.8-.59,1.29-.98,1.43-1.12,.39-2.27,1.04-3.47,1.96-1.18,.92-1.86,1.65-2.02,2.25-.16,.67-.49,1.06-1,1.14-.63,.08-1.39,.53-2.31,1.39-.92,.84-1.69,1.82-2.33,2.9l-5.92,4.23c-.78,.2-1.2,.59-1.31,1.14-.02,.16-.2,.47-.57,.92-.37,.45-.8,.92-1.33,1.45-.53,.51-1.02,.96-1.49,1.31-.45,.35-.76,.55-.94,.57-.84,.14-1.31,.31-1.39,.51-.92,2.02-1.96,3.23-3.12,3.61-1.65,.47-2.65,1.29-2.96,2.41-.1,.33-.51,.86-1.22,1.55-.69,.69-1.33,1.18-1.84,1.49-1.51,.71-2.45,1.39-2.84,2-.84,1.57-1.63,2.49-2.39,2.78-1.61,.55-2.67,1.2-3.14,1.98-.92,1.63-1.67,2.59-2.25,2.86-.82,.31-1.67,.82-2.55,1.53-.88,.71-1.41,1.31-1.59,1.8-.27,.8-.61,1.29-1.02,1.43-2.12,.71-3.59,1.78-4.39,3.12-.55,1.06-.96,1.63-1.2,1.76-.96,.45-3.04,2.2-6.27,5.29l-5.84,4.33c-.96,1.84-2.27,3.12-3.94,3.9-1.18,.49-1.84,1-1.96,1.53-.12,.45-.51,1.02-1.2,1.69-.67,.67-1.35,1.18-2,1.51-1.53,.63-2.45,1.33-2.76,2.1-.24,.69-.73,1.43-1.45,2.16-.73,.76-1.39,1.2-1.98,1.37-1.1,.24-1.82,.69-2.16,1.35-.76,1.41-1.55,2.33-2.37,2.74-1.84,.8-3,1.61-3.49,2.49-.76,1.53-1.39,2.43-1.86,2.69-2.53,1.22-3.94,2.2-4.25,2.96-.35,.94-.8,1.47-1.35,1.59-.63,.18-1.53,.76-2.69,1.76-1.18,.98-1.84,1.71-1.98,2.18-.22,.84-.49,1.31-.8,1.39-.92,.29-1.84,.78-2.78,1.51-.92,.76-1.65,1.55-2.16,2.41l-5.35,4.33c-1.22,.76-1.94,1.37-2.1,1.86-.16,.43-.69,1.04-1.61,1.84-.92,.82-1.67,1.33-2.27,1.55-1.02,.37-1.59,.69-1.76,1-.37,.78-.88,1.53-1.51,2.25-.65,.69-1.29,1.2-1.92,1.51-1.22,.47-2,1.04-2.33,1.67-.73,1.49-1.55,2.49-2.49,2.96-2.25,1.04-3.53,1.9-3.9,2.57-.63,1.29-1.12,2.04-1.49,2.25-2.31,1.1-3.63,2.1-3.98,3-.43,1.2-1.08,1.98-1.96,2.35-1.08,.35-1.76,.65-2.02,.9l-2.49,2.39c-.14,.73-.47,1.18-1,1.39-.76,.29-1.65,.86-2.65,1.74-1.02,.9-1.61,1.61-1.78,2.14-.27,.88-.53,1.33-.78,1.39-1.29,.35-2.1,.69-2.47,1.02-1.51,1.49-2.53,2.29-3.02,2.37-.76,.1-1.2,.47-1.29,1.12-.04,.16-.22,.45-.57,.88-.37,.43-.8,.9-1.33,1.41-.51,.51-1.02,.94-1.47,1.31-.47,.37-.8,.59-.98,.65-.67,.18-1.06,.59-1.18,1.25,0,.08-.14,.25-.41,.51l-1.02,.94-1.18,.98c-.37,.29-.65,.47-.84,.57-1.65,.73-2.59,1.41-2.84,1.96-.51,1.31-1.51,2.39-3.02,3.23-1.37,.78-2.12,1.29-2.25,1.49-.92,1.67-1.96,2.78-3.12,3.37-1.8,.9-2.88,1.67-3.25,2.35-.73,1.33-1.25,2.08-1.53,2.25-1.08,.51-2.04,1.06-2.86,1.65-.8,.59-1.31,1.08-1.51,1.51-.43,.92-.82,1.49-1.18,1.74-2.74,1.57-4.43,3.04-5.1,4.37l-2.37,1.61-7.94,6.94c-.22,.18-.45,.37-.69,.51-1.04,.53-1.61,.96-1.74,1.25-.2,.55-.78,1.35-1.71,2.37-.92,1.04-1.63,1.65-2.14,1.88-1.33,.53-2.04,.94-2.14,1.27-.33,1.02-1.41,2.02-3.23,3.02-1.41,.78-2.18,1.33-2.37,1.67-.86,2.02-2.08,3.37-3.69,4.04-1.16,.41-1.92,.92-2.25,1.53-.76,1.39-1.49,2.25-2.25,2.55-1.78,.69-2.94,1.51-3.51,2.47-.82,1.59-1.55,2.55-2.18,2.9-2.12,1-3.47,2-3.98,3-.57,1.14-1.04,1.76-1.39,1.84-.84,.2-1.71,.63-2.65,1.31-.94,.67-1.51,1.29-1.74,1.86-.35,.98-.88,1.61-1.55,1.9-.18,.08-.51,.27-.96,.57-.45,.31-.92,.65-1.43,1.06-.51,.39-.94,.78-1.31,1.1-.37,.33-.59,.57-.65,.71-.41,.82-.82,1.31-1.18,1.47-.65,.27-1.12,.49-1.45,.73l-3.35,2.8Z"/><path class="cls-2" d="M453.39,622.21c1.37-4.49,1.16-8.02-.61-10.64-1.63-2.41-4.88-4.47-9.74-6.21-5.29-1.88-13.58-3.76-24.88-5.59l-24.93-3.06c-17.88-2.2-31.44-8.19-40.64-17.96-12.68-13.43-18.64-30.93-17.88-52.52,.06-.76,.33-1.08,.8-1.02,.18,.02,.67,1.49,1.47,4.41,.61,2.29,1.27,4.53,1.96,6.74,6.9,21.92,20.96,36.36,42.19,43.3,4.76,1.55,9.23,2.69,13.41,3.43,3.63,.63,8.19,1.16,13.68,1.59,6.31,.49,16.31,1.04,29.99,1.63,19.96,.88,32.01,5.74,36.07,14.64,1.57,3.37,2,6.68,1.35,9.92-.37,1.76-.76,3.23-1.2,4.41-.37,.98-.92,2.27-1.67,3.86-.96,2-2.9,5.92-5.86,11.78-8.43,16.76-12.6,31.64-12.47,44.66,0,.22-.04,.45-.14,.61-.1,.18-.2,.27-.33,.27-.78,.02-1.88-2.35-3.31-7.1-1.43-4.76-2.35-9-2.71-12.78-.82-8.41,1-19.86,5.47-34.36Z"/><path class="cls-2" d="M435.36,533.12c-37.72-14.78-55.01-39.64-51.89-74.57,.65-7.39,1.55-11,2.65-10.86,.16,.02,.27,1.12,.33,3.31,.06,2.35,.37,5.47,.92,9.39,1.51,11.06,3.88,19.8,7.08,26.19,2.96,5.88,7.12,10.88,12.51,14.98,5.88,4.47,14.39,8.76,25.56,12.88,27.78,10.27,49.18,20.31,64.16,30.13,12.51,8.19,19.6,15.33,21.23,21.41,2.65,9.86-3.27,19.35-17.74,28.48l-4.31,2.25,2.59-5.14c1.9-5.74,2.74-10.06,2.47-13-1.18-13.62-23.03-28.76-65.57-45.44Z"/><path class="cls-2" d="M488.66,792.52c.63-3.08,1.71-8.94,3.2-17.6,6.14-35.54,17.94-61.1,35.36-76.71,4.12-3.69,7.94-6.88,11.47-9.53l2.82-2.14c.24-.08,.45-.1,.63-.08,.18,.02,.29,.08,.29,.2l-4.61,8.39c-13.78,25.07-19.45,44.64-17.02,58.69,2.74,15.9,3.63,29.46,2.69,40.7-3.2,38.46-25.15,59.67-65.79,63.61-8.88,.88-18.52,.84-28.91-.06-.57-.04-1.12-.04-1.63,0-.37,.02-.67-.02-.92-.12-.24-.12-.39-.27-.41-.47-.02-.35,1.96-1.14,5.98-2.37,24.58-7.47,41.83-23.09,51.73-46.85,1.67-4,2.84-7.08,3.51-9.27,.55-1.78,1.08-3.9,1.61-6.39Z"/><path class="cls-2" d="M515.12,691.41c-1.96,1.47-3.39,2.59-4.31,3.37-1.29,1.1-3.59,3.33-6.9,6.65-24.64,24.8-35.64,53.79-32.99,86.96,.12,1.51,.31,2.74,.57,3.72,.08,.31,.1,.65,.06,1-.06,.35-.16,.59-.31,.71l-.82-.94c-1.43-1.76-3.04-4.65-4.82-8.7-1.78-4.04-3.14-7.88-4.1-11.51-9.47-36.15,14.88-77.69,73.1-124.65,34.91-28.15,56.71-56.1,65.45-83.8,3.69-11.74,5.94-25.39,6.78-40.99,1-18.74,4.7-35.34,11.06-49.77,4.47-10.06,9.82-18.84,16.05-26.27,2.76-3.27,4.25-4.84,4.47-4.67,.22,.14-.12,1.14-1.02,3-11.02,22.37-15.76,51.32-14.23,86.86,.49,11.72,.71,20.54,.63,26.44-.06,5.21-.35,9.66-.88,13.33-.59,4.18-1.69,8.7-3.29,13.53-7.94,24.01-32.66,51.63-74.2,82.9l-30.31,22.82Z"/><path class="cls-2" d="M553.7,597.89c-6.9,12.74-14.45,22.29-22.62,28.64l-9.82,6.57c-18.23,12.21-36.97,31.74-56.24,58.57l-1.49,2.06c-.51,.37-.86,.37-1.06,.04l.78-7.45c.76-7.21,2.76-15.53,6.02-25.01,3.27-9.49,6.94-17.64,11-24.46,9.41-15.82,22.03-29.46,37.83-40.89,27.01-19.54,36.09-60.44,27.25-122.73-.73-5.08-1.67-10.59-2.82-16.49-1.14-5.9-2.14-10.33-3-13.31-.06-.24-.06-.49-.02-.71,.06-.22,.16-.37,.31-.43,.63-.29,3.16,3.41,7.59,11.1l.69,1.18,.02,.04c25.37,45.09,28.68,89.8,9.9,134.1l-4.33,9.17Z"/><path class="cls-2" d="M535.47,749.48c.04-.57,.12-.88,.29-.96,.06-.04,.16-.02,.29,.06l2.14,4.02,.35,.71,.02,.02c6.94,15.07,11.59,26.88,13.9,35.44,4.43,16.25,4.9,29.87,1.41,40.81-3.23,10.15-2.33,18.25,2.72,24.27,3.82,4.55,9.84,7.98,18.07,10.25,.76,.24,1.04,.55,.84,.92-.12,.22-2.71,.49-7.78,.82-21.33,1.31-33.74-5.21-37.25-19.56-1.76-7.21-.27-16.9,4.45-29.07,7.08-18.23,7.59-39.6,1.53-64.14-.18-.78-.45-1.53-.78-2.27-.14-.35-.2-.78-.18-1.33Z"/><path class="cls-2" d="M621.21,655.99c-11.31,4.82-25.74,8.25-43.3,10.31l-3.27,.39c-.16-.1-.12-.35,.14-.71,.2-.29,1.22-.8,3.06-1.57,30.99-12.86,52.95-33.5,65.85-61.87l4.82-10.55,10.08-27.52c2.16-5.88,4.06-10.7,5.72-14.43,1.8-4.12,3.67-7.88,5.61-11.29,8.49-14.98,19.94-25.03,34.29-30.13l1.88-.53c.08,0,.12,0,.14,.06,.04,.18-1.59,1.82-4.92,4.88-18.21,16.74-28.29,36.36-30.29,58.87-3.88,43.58-20.47,71.61-49.83,84.1Z"/><path class="cls-2" d="M299.43,528.83l-.02,.02c-1,.53-9.76,2.2-26.25,5-1.71,.33-2.51,.71-2.41,1.18,.02,.14,.86,.27,2.51,.43l29.21,3.67c.51,.33,.65,.73,.41,1.22-.22,.41-1.76,1.45-4.61,3.08-2.88,1.65-5.16,2.82-6.9,3.51-11.9,4.82-24.29,3-37.15-5.41-1.14-.73-2.39-1.82-3.76-3.27,2.08-2.33,4.45-4.43,7.08-6.31,10.29-7.35,20.6-9.94,30.93-7.82,2.16,.45,4.51,1.16,7.08,2.14,2.57,.98,3.98,1.69,4.18,2.16,.06,.1-.04,.22-.31,.37Z"/><path class="cls-2" d="M289.53,626.76l-.02-.02c-1.65,1.33-2.47,2.04-2.45,2.16l.12,.14c.33,.18,1.41-.08,3.25-.84l28.66-11.62-4.51,9.04c-8.29,12.37-20.56,18.11-36.81,17.21-1.82-.1-3.96-.39-6.39-.82,1.82-5.57,3.55-9.84,5.19-12.82,6.55-11.92,17.25-18.68,32.09-20.27,.65-.04,1.04,.08,1.18,.37,.14,.29-.02,.63-.49,1.06-.31,.31-1.02,.9-2.1,1.8l-17.72,14.6Z"/><path class="cls-2" d="M285.99,577.44c9.23-10.37,21.25-14.58,36.03-12.62,.37,.06,.59,.22,.67,.45,.22,.57-1.55,1.8-5.35,3.65l-9.39,4.59v-.02l-11.06,5.47c-.14,.1-.2,.2-.16,.33,.04,.27,.39,.41,1,.41,.53,0,1.43-.1,2.76-.29,1.57-.2,4.65-.69,9.23-1.43l20.25-3.31-4.94,6.45c-10.78,11.19-24.62,14.37-41.56,9.61l-5.39-1.74c2.9-5.02,5.53-8.88,7.92-11.57Z"/><path class="cls-2" d="M325.58,513.03l-6.7-.47c-15.25-3.2-25.44-12.39-30.52-27.56-.27-.8-.92-3.67-1.96-8.61,6.41-.04,11.29,.27,14.64,.94,8.8,1.71,15.64,5.19,20.52,10.37l.02-.02c3.02,3.33,5.51,7.23,7.45,11.7l1.8,4.14-26.37-16.31c-.24-.02-.43,.06-.55,.27-.04,.08,.1,.33,.45,.73l21.23,24.82Z"/><path class="cls-2" d="M347.42,444.06c1.45,1.41,2.9,3.2,4.37,5.41,1.47,2.2,2.61,4.27,3.43,6.21,.55,1.29,1.04,2.59,1.49,3.88l-26.8-16.15-.1,.16c-.06,.24,.02,.49,.24,.78,.14,.2,.47,.59,.96,1.14l21.27,24.09-8.19-.84c-13.78-3.02-23.39-11.33-28.86-24.92-.65-1.61-1.65-5.04-3-10.29,3.06-.49,5.92-.63,8.55-.43,11.29,.92,20.17,4.57,26.64,10.96Z"/><path class="cls-2" d="M324.68,634.35c2.04-6.19,3.94-10.82,5.7-13.86,6.55-11.47,16.17-17.88,28.84-19.25,1.84-.2,3.63-.29,5.41-.29l-22.62,18.47c-1.18,.73-1.59,1.37-1.2,1.88l.08,.08,31.68-12.76-5.14,9.74c-8.63,12.11-22.13,17.47-40.46,16.15l-2.29-.16Z"/><path class="cls-2" d="M380.41,651.34l-3.98,8.17c-8.55,13.11-21.68,18.92-39.4,17.47l-4.12-.33c1.04-3.74,2.12-6.8,3.25-9.17,7.04-14.72,18.35-22.74,33.95-24.07,.78-.02,1.2,.06,1.33,.24,.18,.27,.06,.59-.37,1-.31,.29-.96,.86-1.98,1.69l-16.76,13.84-.02-.04c-2.43,1.98-3.59,3.04-3.51,3.16,.14,.22,.51,.24,1.06,.06,.41-.12,1.25-.45,2.49-.94l28.07-11.1Z"/><path class="cls-2" d="M341.48,492.82c-.37-1.43-.71-2.96-1-4.59,7.19,.02,12.51,.41,15.94,1.12,8.51,1.76,15.13,5.23,19.86,10.45h.02c1.59,1.76,3.18,3.88,4.74,6.39,1.57,2.49,2.76,4.78,3.57,6.88,.2,.53,.02,.82-.57,.88l-24.76-14.72c-.45-.24-.8-.27-1.06-.02-.14,.14,6.78,8.04,20.8,23.74,.69,.78,.78,1.27,.29,1.51-1.16,.53-3.96,.2-8.39-.96-4.43-1.18-8-2.53-10.72-4.1-9.17-5.23-15.39-14.09-18.72-26.58Z"/><path class="cls-2" d="M375.47,430.77c-.53-.06-1.94-1.41-4.25-4.02-2.31-2.61-4.08-4.88-5.35-6.84-6.55-10.13-6.98-22.74-1.25-37.83,.45-1.2,.94-2.39,1.45-3.57,3.37,2.12,6.25,4.29,8.57,6.49,4.63,4.37,8,8.74,10.1,13.09l.04,.02c3.61,7.74,4.45,15.62,2.55,23.68-.39,1.59-.82,3.16-1.33,4.72l-11.29-28.15c-.2-.31-.43-.37-.71-.16-.22,.16-.31,.61-.29,1.37,.02,.53,.1,1.63,.24,3.29l2.12,24.17c.16,2.59-.04,3.84-.63,3.76Z"/><path class="cls-2" d="M399.66,569.66c.06,.57-.16,.88-.69,.94l-4.39-.49c-12.33-1.69-21.23-7.51-26.76-17.41-3.47-6.27-5.72-12.51-6.72-18.72,3.9-.24,7.92-.1,12.11,.45,8.59,1.12,15.68,4.16,21.25,9.17,3.78,3.39,6.88,7.76,9.29,13.09,.63,1.41,1.2,2.84,1.71,4.27l-22.9-14.27c-1.41-.88-2.33-1.43-2.78-1.67-.63-.37-1.02-.45-1.14-.29-.24,.33,.02,.84,.8,1.51l20.23,23.43Z"/><path class="cls-2" d="M410.46,676.55c-5.49,4-8.21,6.08-8.12,6.25,.12,.24,.45,.31,.98,.16,.37-.1,1.12-.35,2.29-.73l26.39-9c.55-.18,.92-.31,1.12-.35,.27-.04,.47,0,.63,.16,.35,.37,.27,1.02-.31,2-5.06,9.78-12.04,16.19-20.92,19.19-5.37,1.82-12.06,2.49-20.11,2.02l-6.57-1.02c.9-3.06,2.51-6.72,4.82-10.94,7.53-13.8,18.21-20.41,32.03-19.84,1.53,.08,3.04,.02,4.53-.12l-16.76,12.25v-.02Z"/><path class="cls-2" d="M410.58,637.13l.02,.02,29.62-16.45-2.02,6.76c-6.37,14.74-18.21,22.84-35.54,24.29l-6.76,.08c1.84-7.49,3.49-12.84,4.98-16.05,5.16-11.1,13.72-18.03,25.66-20.76,2.37-.53,3.59-.59,3.61-.16,.04,.37-.16,.82-.59,1.33-.33,.37-.98,1.08-2,2.14l-16.58,17.29c-.94,.96-1.35,1.55-1.22,1.8,.06,.12,.33,.02,.82-.29Z"/><path class="cls-2" d="M439.55,406.13l-20.03-23.6c-.1,0-.2,.08-.33,.24-.14,.24-.18,.49-.1,.76,.04,.18,.18,.55,.41,1.06l12.47,29.44-7.31-3.27c-11.98-7.21-18.49-18.21-19.52-32.99-.18-2.55,.08-6.23,.8-11.02,7.25,2.57,12.39,4.78,15.39,6.57,4.86,2.9,8.74,6.41,11.64,10.49l.02,.02c3.47,4.94,5.57,10.76,6.29,17.45,.18,1.63,.27,3.25,.27,4.84Z"/><path class="cls-2" d="M432.48,448.38l-.35,.1,.27-.04,.08-.06Zm-7.72-18.56c4.67,3.18,8.37,6.21,11.06,9.08,3.33,3.53,5.88,7.12,7.63,10.78,3.9,8.17,4.59,16.56,2.08,25.13-.43,1.25-.86,1.8-1.33,1.63l-10.39-25.82-1.2-2.04c-.06-.08-.14-.12-.22-.14-.12,.16-.14,.57-.12,1.2,.04,.57,.12,1.76,.29,3.57l2.51,29.68c-12.6-9.47-17.76-21.6-15.51-36.34,.71-4.55,1.96-8.98,3.78-13.31l1.43-3.43Z"/><path class="cls-2" d="M471.72,574.34l-5.59,2.2c-13.66,3.49-25.52,.61-35.62-8.61-3.12-2.86-6.33-6.51-9.59-10.96,5.74-2.61,10.21-4.33,13.45-5.1,11.84-2.84,22.25-.94,31.27,5.7h.04c.82,.61,3.1,2.57,6.88,5.94l-26.99-3.65c-1.65-.22-2.74-.35-3.25-.39-.73-.06-1.1,.02-1.14,.27-.02,.14,.45,.47,1.41,.94,.73,.39,2.18,1.06,4.31,2.06l24.82,11.62Z"/><path class="cls-2" d="M466.18,358.32c.02,.55,.12,1.69,.27,3.41l2.41,28.23c-2.39-1.92-4.8-4.27-7.23-7.04-10.72-12.33-12.13-26.99-4.23-43.97,.37-.8,.76-1.57,1.16-2.35l7.98,6.1c4.06,3.74,7.31,7.78,9.7,12.13l.04,.02c3.84,7.14,4.84,16.23,2.96,27.29-.16,.76-.53,1.1-1.14,1.04-.37-.02-.73-.65-1.08-1.9-.16-.57-.76-2.08-1.78-4.53l-6.7-16.25c-.88-2.16-1.37-3.27-1.45-3.33-.1-.08-.22-.14-.39-.16-.16-.04-.27-.02-.35,.02-.16,.1-.22,.53-.18,1.29Z"/><path class="cls-2" d="M483.09,508.2l-10.64-25.93c-.16-.43-.39-.88-.67-1.39-.27-.49-.45-.76-.51-.76-.43-.06-.47,1.12-.14,3.53l2.57,30.58c-17.6-13.15-21.05-30.7-10.35-52.61,2.84,1.49,6.14,3.98,9.92,7.47,3.72,3.43,6.72,7.53,8.98,12.33l.04,.04c4.1,8.61,4.55,17.31,1.39,26.09-.22,.55-.41,.76-.59,.63Z"/><path class="cls-2" d="M486.54,457.02c-13.96-7.94-20.64-21.25-20.03-39.93l.14-4.35c5.9,1.76,10.76,3.69,14.58,5.78,5.51,3,9.84,6.72,12.94,11.13,3.33,4.76,5.49,10.51,6.47,17.33,.25,1.8,.39,3.57,.41,5.37l-20.11-23.5c-.14-.04-.27,.02-.35,.22-.18,.43,.04,1.16,.65,2.16l12.06,28.58-6.78-2.8Z"/><path class="cls-2" d="M512.36,336.52c-.27,.04-.57,.41-.9,1.1-.24,.49-.69,1.53-1.39,3.14l-11.08,26.03c-1.43-3.63-2.43-6.86-3.02-9.66-3.14-14.88,2.16-28.25,15.96-40.11l2.78-2.39,4.84,10.72c2.18,6.63,2.98,12.47,2.37,17.54-.92,7.61-4.31,14.94-10.17,21.97-.47,.53-.92,.65-1.39,.37-.2-.14-.22-.86-.04-2.12,.49-3.92,1.04-9.27,1.69-16.09,.63-6.82,.9-10.27,.8-10.35-.14-.1-.29-.16-.45-.14Z"/><path class="cls-2" d="M533.1,417.66c.06,1.1-.12,1.67-.55,1.74-.45,.06-2.61-2.23-6.49-6.86l-10.92-13.06c-.73-.9-1.25-1.47-1.53-1.76-.39-.39-.8-.61-1.25-.63l13.23,31.54-7.76-3.51c-13.82-8.29-20.15-21.39-18.96-39.34l.29-4.29c5.88,1.71,10.21,3.31,12.98,4.78,6.14,3.25,11.08,7.57,14.86,12.98,3.14,4.53,5.19,10.68,6.1,18.41Z"/><path class="cls-2" d="M518.2,483.76c3.18,3.51,5.72,7.29,7.57,11.31,3.61,7.84,4,16.64,1.16,26.37-.27,1.06-.49,1.61-.67,1.65-.47,.1-1.59-2.45-3.39-7.68l-6-17.54c-.37-1.08-.63-1.78-.78-2.1-.2-.47-.45-.69-.76-.67-.27,.02-.31,1.51-.1,4.47l.69,29.03c-1.69-1.12-4.02-3.57-6.94-7.39-4.16-5.41-6.51-11.31-7.06-17.66-.67-7.88,1.06-16.23,5.27-25.03l1.57-3.31,9.43,8.53Z"/><path class="cls-2" d="M554,341.23c.35-1.98,.8-3.9,1.35-5.72,1.59-1.18,3.27-2.29,5.06-3.31,1.02-.59,2.06-1.12,3.1-1.61l3.04,9.41c3.57,15.07,.1,27.74-10.43,38.03-1.57,1.53-2.55,2.12-2.98,1.78-.18-.16-.08-.84,.29-2.06l5.76-26.13c.02-.24-.02-.47-.14-.65-.1-.2-.22-.31-.39-.31-.08,0-.22,.18-.43,.51l-15.9,27.58c-.33,.14-.67,.04-1-.31-.41-.41-.8-2.31-1.22-5.7-.43-3.41-.61-6.21-.53-8.39,.12-3.84,.9-7.57,2.35-11.23,2.35-5.88,5.8-10.9,10.33-15.04l1.45,3.55c.04,.14,.08,.2,.12,.18,.06-.02,.12-.22,.18-.59Z"/><path class="cls-2" d="M547.37,709.62c-.06-3.25,.2-4.92,.82-5.02,.29-.04,.55,.08,.78,.37,.16,.2,.45,.65,.88,1.33l12.86,20.8c.55,.88,.94,1.47,1.16,1.8,.33,.43,.67,.78,1.04,1.02,.37-.04,.33-.45-.06-1.22l-8.33-32.56c5.86,4.02,9.98,7.33,12.35,9.92,8.43,9.29,11.02,21.62,7.74,36.95l-.84,3.92-7-3.27c-14.02-8.49-21.17-19.82-21.39-34.03Z"/><path class="cls-2" d="M561.76,411.15l-.84,.12c.14-.02,.33,.04,.51,.16,.08-.16,.18-.27,.33-.29Zm-2.39-13.62c6.35,4.78,11,9.92,13.94,15.47l.04,.04c3.96,7.7,4.94,15.72,2.94,24.13-.2,.69-.39,1-.59,.96-.29-.06-.63-.45-1.04-1.16-.29-.53-.84-1.61-1.63-3.23l-9.74-19.64c-.73-1.43-1.35-2.33-1.86-2.67-.2,.47-.1,1.55,.31,3.23l4.92,31.01c-2.96-2.2-5.7-4.63-8.25-7.29-9.49-9.82-12.33-22.35-8.51-37.56,.18-.73,1.04-3.2,2.57-7.45l6.9,4.16Z"/><path class="cls-2" d="M586.63,476.74l-.14,.02c-.18,.06-.33,.47-.37,1.25-.04,.53-.1,1.67-.16,3.41l-1.02,28.35c-2.37-2.41-4.35-4.86-5.98-7.35-8.1-12.37-8.72-25.66-1.84-39.83l3.59-6.74,6.45,5.82c4.16,4.55,7.19,9.1,9.08,13.62,3.94,9.41,3.84,18.88-.31,28.44-.2,.45-.47,.63-.8,.57-.24-.04-.45-.35-.63-.9-.12-.39-.37-1.2-.69-2.45l-5.55-20.41c-.47-2.39-1.02-3.65-1.63-3.8Z"/><path class="cls-2" d="M583.81,361.59c.45-2.92,1.27-5.72,2.43-8.43,1.74-4,4.25-7.66,7.55-11-2.41,3.69-3.78,7.41-4.12,11.1-.39,4.37,.61,8.74,3.04,13.06l-5.84,8.39c-1.22,1.63-2.04,2.39-2.49,2.29-.53-.14-.86-2.06-1-5.74-.14-3.67,0-6.9,.43-9.68Zm16.43,13.45c-.51-3.2-.73-6.08-.71-8.61l4.72-15.07c-.06-.57-.27-.78-.65-.63l-.88,1.29,.43-.84c2.1-4.08,5.29-7.63,9.51-10.64,2.2,16.41-2.53,28.89-14.19,37.44-1.06,.78-2.14,1.53-3.25,2.23l2.29-7.31,2.88,3.16-.14-1.02Z"/><path class="cls-2" d="M592.1,410.27h.02c3.43-7.8,9.47-14.41,18.15-19.86l2.84-1.8,3.1,8.82c3.98,15.86,.57,28.78-10.27,38.79-.27,.24-.65,.65-1.18,1.25-.53,.61-.98,.84-1.35,.67-.31-.16-.43-.55-.35-1.16,.06-.45,.24-1.35,.55-2.71l4.61-20.58c.41-2.12,.51-3.33,.29-3.61-.06-.1-.16-.14-.27-.12-.22,0-.51,.29-.88,.84-.24,.41-.73,1.25-1.49,2.53l-14.45,25.03c-.86-2.67-1.49-6.23-1.9-10.7-.59-6.27,.27-12.06,2.57-17.37Z"/><path class="cls-2" d="M638.66,732.75l-11.84-.76c-14.66-2.02-25.05-9.92-31.19-23.66-.55-1.31-.73-2.08-.55-2.33,.16-.2,.47-.18,.96,.08,.33,.18,1.02,.61,2.06,1.27l17.05,10.86c3.53,2.25,5.43,3.35,5.7,3.31,.06-.1-.06-.41-.39-.96-.35-.53-.78-1.12-1.31-1.76l-16.51-19.76c-.84-1-1.37-1.65-1.63-1.98-.35-.47-.51-.84-.49-1.08,.04-.33,.51-.49,1.45-.47,2.88-.12,6.47,.65,10.82,2.31,4.33,1.63,7.9,3.59,10.72,5.86,6.43,5.14,11.15,13.39,14.15,24.7,.39,1.45,.73,2.92,1.02,4.37Z"/><path class="cls-2" d="M625.21,675.08c3.25-1.43,6.39-2.47,9.47-3.16,14.7-3.27,27.74,1.33,39.11,13.8l3.61,4.33-9.64,4.53c-15.8,5.76-29.4,3.37-40.75-7.12-.16-.16-.24-.35-.24-.53,.02-.18,.1-.33,.27-.43,.35-.2,.82-.31,1.43-.29,.43,.02,1.31,.1,2.61,.22l21.21,1.98c2.74,.18,4.23,.08,4.47-.29l-31.33-12.96-.12-.04-.1-.04Z"/><path class="cls-2" d="M629.62,419.34c-.57-.06-.92-1.98-1.08-5.76-.16-3.78-.04-7.1,.41-9.96,.39-2.65,1.18-5.35,2.37-8.1v-.04c3.69-8.59,10.19-15.27,19.47-20.03,.69,2.63,1.92,5.06,3.65,7.33,1.08,1.39,2.39,2.69,3.9,3.92,.92,13.72-3.96,24.82-14.62,33.29-1.55,1.22-2.43,1.65-2.67,1.25-.18-.35-.02-1.2,.53-2.57l7.94-25.01c-.02-.9-.2-1.25-.59-1.1l-16.96,24.54c-.45,.61-.9,1.14-1.37,1.59-.49,.45-.82,.67-.98,.65Z"/><path class="cls-2" d="M648.44,544.23c.06-.47,.27-1.43,.57-2.9l4.9-22.01,.63-3.74-.08-.1c-.14-.06-.53,.39-1.12,1.37-.49,.76-1.35,2.23-2.59,4.41l-13.68,23.82c-.98-3.18-1.61-6.37-1.92-9.53-.61-6.27-.04-11.74,1.69-16.43h.02c3.45-9.08,9.76-16.35,18.94-21.82,.92-.55,1.86-1.06,2.8-1.55l2.98,7.98c4.8,17.31,.92,30.93-11.62,40.83-.12,.08-.31,.29-.55,.57-.2,.24-.41,.35-.55,.29-.37-.14-.51-.53-.43-1.18Z"/><path class="cls-2" d="M659.89,453.57l.84-.2,.18-.12-1.02,.33Zm-.43,29.87c-.24-.2-.35-.65-.35-1.39,0-.51,.04-1.55,.14-3.12l1.37-21.43,.37-4.08s-.1-.06-.27-.04c-.16,.12-.35,.37-.59,.69-.33,.49-.53,.88-.59,1.16l-11.53,30.31c-1.43-3.14-2.51-6.27-3.25-9.33-3.33-13.84,.47-26.54,11.41-38.09,1.9-2.02,3.82-3.59,5.76-4.74l3.74,6.68c3.47,8.02,4.92,15.21,4.37,21.58v.02c-.35,3.74-1.41,7.57-3.18,11.55-1.76,3.96-3.88,7.21-6.31,9.72-.47,.55-.84,.73-1.08,.51Z"/><path class="cls-2" d="M681.53,416.68l11.94-29.25c-.02-.18-.08-.29-.16-.31-.18-.04-.55,.24-1.1,.88-.41,.45-1.2,1.41-2.39,2.86l-18.09,22.01c-.16,.04-.29,.02-.39-.08-.69-.71-.92-3.25-.63-7.61,.29-4.37,.88-8.02,1.82-10.94,.47-1.43,1-2.8,1.59-4.06v-.04c4.29-9.19,12.08-15.96,23.37-20.33l2.57-1c.27,.76,.55,1.47,.86,2.16l.33,.73,1.06,9.47c.27,14.88-5.43,25.95-17.07,33.21l-3.72,2.31Z"/><path class="cls-2" d="M705.19,683.37c-13.92-.98-24.31-7.37-31.19-19.17-1.51-2.57-2.14-4.04-1.9-4.39,.29-.41,.94-.31,1.96,.31l19.78,10.92c1.65,.92,2.78,1.51,3.37,1.8,.78,.39,1.29,.53,1.55,.45l.12-.1c.1-.12,.02-.37-.22-.69-.2-.27-.61-.71-1.25-1.35l-22.03-22.64c6.55,.41,11.53,1.1,14.92,2.1,12.11,3.57,20.7,13.13,25.74,28.68l1.27,3.92-12.13,.16Z"/><path class="cls-2" d="M714.13,471.47c-4.65,14.88-14.62,24.09-29.84,27.62-.86,.16-1.35-.06-1.47-.63l19.05-20.88c.49-.49,.67-.86,.57-1.08-.14-.33-.59-.31-1.31,.06l-26.23,15.33c-.61,.35-1,.39-1.2,.18-.51-.61,.14-3.08,1.96-7.47,1.61-3.88,3.96-7.57,7.02-11.1,7.82-8.96,19.07-13.11,33.76-12.41l-2.31,10.39Z"/><path class="cls-2" d="M680.18,619.7c.35-.41,1.18-.22,2.47,.53,.88,.49,2.63,1.35,5.31,2.61l16.54,7.9c2.1,1,3.18,1.49,3.25,1.45,.06-.02,.12-.06,.16-.1,.04-.04,.08-.08,.08-.12l-25.23-23.86c3.86-.1,7.41,.12,10.66,.65,15.19,2.57,25.7,12.15,31.58,28.74l1.25,3.51-11.37,.8c-14.84-.45-25.99-6.86-33.44-19.21-1.04-1.71-1.45-2.67-1.25-2.9Z"/><path class="cls-2" d="M690.49,443.79c-.41-.49,.02-2.27,1.27-5.39,1.25-3.1,2.65-5.86,4.21-8.27,1.25-1.94,2.43-3.53,3.55-4.8,6.7-7.47,16.29-11.62,28.76-12.37,1.27-.08,2.86,.1,4.76,.55l-1.39,8.02c-4.39,15.88-13.9,25.54-28.5,28.99l-2.86,.67c-.55-.18-.67-.57-.35-1.14l19.31-21.23c.12-.1,.2-.2,.27-.31,.06-.12,.08-.2,.06-.24-.08-.16-.29-.2-.61-.16-.33,.04-.63,.16-.96,.35l-26.78,15.6c-.35,0-.59-.1-.73-.27Z"/><path class="cls-2" d="M726.15,539.53c3-.55,5.16-.9,6.47-1.06,.39-.04,.73-.2,1.06-.43,.33-.24,.49-.49,.49-.71,0-.2-1.41-.43-4.18-.69l-30.05-3.53c4.27-2.96,7.31-4.9,9.1-5.84h.02c13.51-6.92,28.29-5.06,44.38,5.59l1.53,1-6.78,5.37c-12.96,10.27-26.6,12.35-40.93,6.29-1.61-.67-2.37-1.31-2.29-1.86,0-.08,1.1-.37,3.29-.82,2.18-.47,4.96-1,8.31-1.59l9.57-1.71Z"/><path class="cls-2" d="M761.49,578.7l-9.15,5.12c-14.66,6.8-28.33,5.35-41.05-4.37-.24-.22-.31-.47-.18-.8,.1-.24,.47-.37,1.1-.41,.45-.02,1.41-.02,2.84,0l23.39,.24c1.33,.06,2-.06,2-.33,.02-.22-.35-.47-1.06-.76-.49-.18-1.57-.55-3.2-1.1l-26.84-8.9c.67-.59,1.35-1.1,2.06-1.57l-.16-.02c2.51-1.25,5.21-2.23,8.12-2.94,11.68-2.9,22.54-.67,32.54,6.68l7.43,6.72,2.16,2.43Z"/><path class="cls-2" d="M750.26,480.39c.18-.12,.27-.22,.22-.31-.12-.29-.55-.24-1.27,.12-.49,.24-1.53,.84-3.12,1.76l-25.88,15.13c2.02-6.25,4-11.08,6-14.49,.98-1.67,2.25-3.39,3.82-5.1,7.31-8.08,17.29-12.21,29.91-12.35,1.37-.02,2.74-.08,4.1-.16l-2.86,11.88c-4.96,14.06-14.66,22.8-29.09,26.17-1.02,.18-1.65,.08-1.86-.27-.1-.16,.06-.47,.47-.94,.29-.35,.92-1.04,1.88-2.1l17.68-19.33Z"/><path class="cls-2" d="M770.22,625.06l3.04,8.39-8.23,1.1c-16.09,.43-28.11-5.74-36.13-18.49-.59-1.02-1.29-2.55-2.1-4.61l27.29,13.39c.29,0,.47-.1,.53-.31,.06-.14-.02-.35-.24-.59-.16-.16-.51-.51-1.04-1.02l-23.17-21.9c7.19,.14,12.17,.59,14.94,1.39,11.35,3.18,19.72,10.74,25.11,22.66Z"/><path class="cls-2" d="M711.21,317.45c-.02-.22-.04-.45-.08-.67-.24-1.45-.69-2.71-1.35-3.84l-.35-.55c.39,.08,.84,.2,1.33,.41,3.88,1.63,6,5.35,6.37,11.1l.1,1.67c0,.71-.04,1.63-.14,2.8-.08,1.14-.18,2.02-.29,2.63l-.02,.02c-.33-.71-.71-1.37-1.16-2-1.2-1.76-2.98-3.47-5.35-5.14,.73-2.59,1.04-4.76,.94-6.43Zm-38.32,29.76c-2.39,2.82-4.16,5.25-5.35,7.29l-1.12,1.9c-2.1,3.92-3.37,7.96-3.76,12.17-.06,.53-.08,1.39-.06,2.57,0,1.2,.04,2.04,.08,2.47,.31,2.33,.71,4.39,1.25,6.23,1.27,4.39,3.45,8.72,6.51,12.96,.12,.18,.16,.29,.1,.33-.04,.02-1.08-.39-3.12-1.25-5.82-2.41-10.15-5.45-12.98-9.1-2.88-3.76-4.35-8.02-4.39-12.82-.02-2.51,.29-5.1,.88-7.8,.45-2.04,1.08-3.96,1.88-5.72,1.84-4.04,5.92-9.12,12.23-15.27l.29-.27c.88,2.1,2.31,3.76,4.31,4.98,1,.61,2.08,1.06,3.27,1.33Zm-38.6-28.4l.96-.9c1.55-1.45,2.55-3.12,3-5.02l.82,.61,.29,.82c.84,2.84,.29,5.78-1.63,8.8-2.84,4.51-7.12,8.1-12.82,10.78-5.53,2.61-9.45,4.7-11.74,6.27-4.49,3.08-7.84,6.76-10.04,10.98-2.14,4.14-3.33,8.84-3.57,14.13-.12,2.8,.12,6.06,.69,9.76l.14,1.02-3.16-3.47c-5.63-6.41-8.14-12.84-7.55-19.33,.41-4.31,2.2-8.61,5.37-12.92,.69-.92,1.47-1.86,2.37-2.86,.9-.98,1.69-1.76,2.41-2.35,3.35-2.8,8.74-5.49,16.15-8.1l7.96-2.82,2.71-1.06c3.31-1.43,5.86-2.88,7.66-4.33Zm-114.3-56.5c2.18-4.06,5.47-7.06,9.84-9,3.74-1.65,8-2.51,12.78-2.59,4.86-.08,11.43,1.9,19.7,5.92,7.98,3.88,13.51,6.12,16.6,6.74l.96,.14c.51,1.08,1.22,2.06,2.12,2.98,.51,.49,1.04,.94,1.59,1.33-2.14,1.14-4.94,1.76-8.35,1.84-1.12,.02-2.49-.06-4.08-.24-1.59-.18-2.96-.41-4.06-.69-1.51-.37-3.76-1.1-6.7-2.16-5.63-2.04-10.59-3.16-14.84-3.37-3.55-.16-7.02,.33-10.41,1.47-4.31,1.47-8.39,4.04-12.27,7.7-1.86,1.74-3.74,3.9-5.63,6.49-.55,.76-.86,1.12-.94,1.08,0,0,0-.14,.02-.43l.18-4.02c.06-1.33,.24-2.8,.51-4.37,.29-1.57,.59-2.9,.96-4,.57-1.78,1.25-3.37,2.02-4.8Zm32.13,53.44c2.53-4.59,6.82-8.39,12.82-11.41,2.86-1.45,6.25-2.35,10.17-2.76l1.51-.14c3.12-.2,6.55-.29,10.33-.22l5.96,.08c4.35-.1,7.63-.39,9.82-.86,2.86-.61,5.1-1.67,6.74-3.23,.82-.76,1.41-1.45,1.74-2.08,.04-.04,.06-.06,.1-.04,.1,.08,.18,.53,.24,1.35,.02,.45-.02,1-.14,1.67s-.29,1.27-.47,1.76c-1.49,3.69-5.16,6.65-11,8.84-3,1.12-6.47,1.84-10.45,2.14l-4.57,.49c-5.08,.53-9.53,1.76-13.35,3.65-6.02,3.02-10.59,7.7-13.68,14.04-1.8,3.67-3.08,7.74-3.88,12.19-.06,.37-.12,.57-.18,.59-.04,.02-.08-.04-.12-.18l-1.02-2.49c-2.23-5.41-3.23-10.29-3.04-14.66,.14-3.1,.96-6.02,2.49-8.74Zm66-159.08c1.51-1.2,3.04-2.35,4.61-3.45,2.37,3.59,5.37,6.45,8.96,8.63-1.12,.73-2.25,1.51-3.37,2.31-3.33,2.39-6.45,5.06-9.35,8-4.78,4.82-8.84,10.13-12.17,15.9-4.59,7.98-7.7,16.62-9.27,25.93-.49,2.8-.8,5.59-.96,8.39-.45-.59-.92-1.14-1.37-1.65-1.8-2.02-5.06-4.63-9.82-7.88,1.39-9,4.16-17.72,8.35-26.13,4.35-8.74,9.92-16.47,16.74-23.23,2.53-2.49,5.06-4.78,7.63-6.82Zm159.53,135.75l23.29,18.64c-2.61-.2-5.21-.94-7.84-2.2-3.35-1.61-6.47-3.9-9.41-6.86-.78-.78-1.59-1.8-2.47-3.04-.88-1.25-1.61-2.47-2.25-3.67-.39-.78-.84-1.74-1.33-2.86Zm-59.28,11.43c-6.61,3.84-13.49,6.72-20.64,8.7l-1.55,.43-.53-.53c-.57-.8-1.29-1.51-2.1-2.14l-7.51-7.59c6.31-1.02,12.43-2.82,18.41-5.39,7-3.02,13.49-7.1,19.49-12.25l1.9-1.69c.84-.76,1.92-1.8,3.2-3.12,1.31-1.33,2.33-2.45,3.08-3.33,3.76-4.45,6.98-9.19,9.68-14.21,.86,.82,1.76,1.61,2.74,2.37l6.9,5.39c-1.35,2.35-2.8,4.67-4.39,6.96-3.67,5.35-7.88,10.19-12.6,14.53-4.98,4.59-10.33,8.55-16.09,11.88Zm-158.49-197.32c-.29-.06-.55-.1-.78-.12-.06,0-.1-.02-.16-.06-.04-.04-.06-.08-.06-.12,0-.02,.1-.06,.29-.12l4.37-1.78,1.59-.57c1.1,1.96,2.41,3.78,3.94,5.43-2.78-1.12-5.84-2-9.19-2.65Zm229.24,240.19c.2,.04,.29,.12,.24,.2l-4.49,1.82c-3.86,1.55-7.55,2.33-11.06,2.33-1.49,.02-2.76-.06-3.78-.22-5.1-.78-9.53-3.35-13.33-7.72-2.78-3.18-4.78-6.59-6.02-10.21-1.41-4.1-2.06-10.45-1.92-18.98l.08-5.76c-.08-3.74-.25-6.51-.51-8.33-.43-3.04-1.27-5.49-2.53-7.31-.8-1.16-1.74-2.12-2.86-2.9l-.53-.35c1.14-.12,1.96-.16,2.45-.12,3.51,.29,6.49,2.41,8.94,6.41,2.16,3.51,3.57,7.51,4.21,11.98,.08,.63,.2,1.67,.35,3.16,.16,1.49,.27,2.76,.35,3.8l.37,2.63c1.04,7.61,3.61,13.74,7.74,18.33,4.65,5.23,11.25,8.8,19.8,10.76,1.02,.22,1.86,.39,2.51,.47Zm-201.71-155.29c-4.92,2.08-10.02,.08-15.31-6.06-2.27-2.63-4.37-6-6.29-10.1-1.69-3.59-3.16-6.39-4.43-8.37-3.86-6.08-8.78-10.31-14.76-12.68-3-1.18-6.21-1.9-9.59-2.12l-1.69-.12c-3.08-.06-6.37,.18-9.84,.73l-.86,.1c2.61-2.41,4.41-3.98,5.37-4.74,.84-.65,1.78-1.31,2.8-1.96,6.21-4,12.41-5.1,18.62-3.27,3.88,1.14,7.76,3.43,11.64,6.84,3.72,3.29,6.98,8.8,9.76,16.49l3.59,9.94c1.41,3.86,2.78,6.78,4.12,8.78,2.1,3.12,4.53,5.06,7.29,5.8l.61,.16-1.02,.57Zm1.8-55.48c-.86-6.02-2.61-11.04-5.29-15.07l-.31-.47,15.7,11.35,.1,.08c.06,1.76,.1,3.2,.1,4.37,0,2-.02,3.57-.06,4.67l-.06,3.96c.08,3.74,.24,6.51,.49,8.31,.43,3.12,1.29,5.63,2.59,7.51,.78,1.1,1.71,2.04,2.82,2.84l.49,.35-1.88,.14c-5.45-.06-9.55-4.31-12.31-12.78-.9-2.76-1.59-6.96-2.06-12.6l-.33-2.67Zm-81,86.7l-.61,.39-.02-.02s.1-.39,.37-1.04l1.49-3.57c1.74-3.74,3.72-6.82,5.98-9.23,.49-.51,1-1,1.51-1.47l.43,.47,.06,.08c2.29,2.45,4.45,4.35,6.47,5.7,.65,.45,1.39,.88,2.18,1.31-2.31,.35-4.57,.88-6.74,1.61-3.51,1.16-7.23,3.1-11.13,5.78Z"/></g></g></svg>