<?xml version="1.0" encoding="UTF-8"?><svg id="Layer_2" xmlns="http://www.w3.org/2000/svg" viewBox="0 0 1920 383.78"><defs><style>.cls-1{fill:#f8f8f8;}.cls-2{fill:#fff;}</style></defs><g id="Layer_1-2"><g><g><polygon class="cls-1" points="849.5 320.73 845.53 320.73 845.53 318.42 849.5 318.42 849.5 243.42 845.53 243.42 845.53 241.11 849.5 241.11 849.5 201.05 841.79 213.56 837.19 201.4 894.57 108.17 900.61 98.34 906.66 108.17 918.41 127.27 918.41 120.84 916.25 120.84 916.25 111.45 918.41 111.45 918.41 109.83 916.25 109.83 916.25 100.44 933.57 100.44 933.57 109.83 931.41 109.83 931.41 111.45 933.57 111.45 933.57 120.84 931.41 120.84 931.41 148.38 952.65 182.9 998.65 108.17 1004.69 98.34 1010.74 108.17 1027.34 135.14 1027.34 120.84 1025.17 120.84 1025.17 111.45 1027.34 111.45 1027.34 109.83 1025.17 109.83 1025.17 100.44 1042.5 100.44 1042.5 109.83 1040.33 109.83 1040.33 111.45 1042.5 111.45 1042.5 120.84 1040.33 120.84 1040.33 156.26 1068.11 201.4 1063.51 213.56 1055.81 201.05 1055.81 342.88 1068.96 342.88 1068.96 353.73 1055.81 353.73 849.5 353.73 837.04 353.73 837.04 342.88 849.5 342.88 849.5 320.73"/><path class="cls-1" d="M838.81,230.73c-2.29-2.27-4.86-4.81-5.39-10.67l-2.85-1.8v-1.85h10.23v1.85l-2.79,1.76c.43,3.91,2.04,5.5,4.01,7.45,2.72,2.68,5.79,5.72,5.79,14.1v79.38c0,7.26-3.87,11.25-6.18,13.63-.49,.51-.95,.98-1.15,1.27l-3.78-2.58c.42-.61,.98-1.2,1.64-1.88,2.06-2.13,4.89-5.05,4.89-10.45v-79.38c0-6.46-2.05-8.49-4.43-10.84Z"/><path class="cls-2" d="M883.52,257.27v86.54h42.49v-86.54h-42.49Zm36.58,60.08h-5.45v-50.68c3.08,.42,5.45,3.05,5.45,6.24v44.44Zm-12.61-44.44c0-3.19,2.37-5.83,5.45-6.24v50.68h-5.45v-44.44Zm-5.45,44.44h-5.14v-50.63c2.92,.55,5.14,3.11,5.14,6.19v44.44Zm-12.61-44.44c0-3.3,2.53-6,5.76-6.28v50.72h-5.76v-44.44Z"/><path class="cls-2" d="M1050.84,194.84c-3.77-6.43-7.58-12.85-11.39-19.25-.96-1.6-1.89-3.21-2.89-4.79-1-1.57-1.98-3.16-2.97-4.74l-5.91-9.49-23.65-37.96-.49-.79-.49,.79-19.5,31.27-9.75,15.63c-.41,.65-.83,1.29-1.21,1.96l-1.15,2-2.3,3.99-2.3,3.99-2.28,4.01,2.59-3.81,2.57-3.83,2.57-3.83,1.29-1.91c.43-.64,.82-1.3,1.22-1.95l9.75-15.64,19.5-31.27h-.98s23.65,37.96,23.65,37.96l5.91,9.49c.99,1.58,1.97,3.16,2.95,4.75,.97,1.59,2.01,3.14,3.02,4.7,4.07,6.25,8.15,12.49,12.26,18.71Z"/><path class="cls-2" d="M956.23,211.92c-4.47-7.86-9.01-15.68-13.52-23.51-1.13-1.96-2.24-3.93-3.42-5.85-1.18-1.93-2.34-3.87-3.5-5.81l-6.98-11.63-27.92-46.5-.48-.79-.5,.78-21.23,32.77-10.62,16.38c-.45,.68-.9,1.36-1.32,2.05l-1.26,2.09-2.52,4.18-2.52,4.18-2.5,4.2,2.81-4,2.79-4.01,2.79-4.01,1.39-2.01c.46-.67,.9-1.36,1.33-2.04l10.61-16.39,21.23-32.77-.98-.02,27.92,46.5,6.98,11.62c1.16,1.94,2.33,3.87,3.48,5.82,1.15,1.95,2.37,3.85,3.56,5.77,4.8,7.66,9.56,15.35,14.4,22.99Z"/><rect class="cls-2" x="1012.25" y="179.91" width="4.23" height="6.74"/><path class="cls-2" d="M992.33,172.18h3.47v6.74h-4.24v-2.44c0-1.51,.27-2.96,.76-4.3Z"/><rect class="cls-2" x="996.79" y="195.37" width="6.74" height="6.74"/><path class="cls-2" d="M1012.25,172.18h3.47c.49,1.34,.76,2.79,.76,4.3v2.44h-4.23v-6.74Z"/><rect class="cls-2" x="1012.25" y="187.64" width="4.23" height="6.74"/><path class="cls-2" d="M992.74,171.19c.73-1.56,1.78-2.94,3.06-4.07v4.07h-3.06Z"/><rect class="cls-2" x="1004.52" y="195.37" width="6.74" height="6.74"/><rect class="cls-2" x="1012.25" y="195.37" width="4.23" height="6.74"/><rect class="cls-2" x="991.56" y="203.1" width="4.24" height="11.01"/><rect class="cls-2" x="1004.52" y="179.91" width="6.74" height="6.74"/><rect class="cls-2" x="1004.52" y="172.18" width="6.74" height="6.74"/><rect class="cls-2" x="1004.52" y="187.64" width="6.74" height="6.74"/><rect class="cls-2" x="996.79" y="179.91" width="6.74" height="6.74"/><rect class="cls-2" x="996.79" y="172.18" width="6.74" height="6.74"/><path class="cls-2" d="M1012.25,167.13c1.28,1.12,2.32,2.51,3.06,4.06h-3.06v-4.06Z"/><rect class="cls-2" x="1004.52" y="203.1" width="6.74" height="11.01"/><path class="cls-2" d="M996.79,171.19v-4.85c1.91-1.37,4.23-2.21,6.74-2.3v7.16h-6.74Z"/><rect class="cls-2" x="991.56" y="179.91" width="4.24" height="6.74"/><rect class="cls-2" x="996.79" y="203.1" width="6.74" height="11.01"/><rect class="cls-2" x="991.56" y="187.64" width="4.24" height="6.74"/><rect class="cls-2" x="996.79" y="187.64" width="6.74" height="6.74"/><rect class="cls-2" x="991.56" y="195.37" width="4.24" height="6.74"/><rect class="cls-2" x="1012.25" y="203.1" width="4.23" height="11.01"/><path class="cls-2" d="M1004.52,171.19v-7.16c2.51,.1,4.83,.94,6.74,2.3v4.85h-6.74Z"/><rect class="cls-2" x="1012.71" y="273.14" width="4.23" height="6.74"/><path class="cls-2" d="M992.79,265.41h3.47v6.74h-4.24v-2.44c0-1.51,.27-2.96,.76-4.3Z"/><rect class="cls-2" x="997.25" y="288.6" width="6.74" height="6.74"/><path class="cls-2" d="M1012.71,265.41h3.47c.49,1.34,.76,2.79,.76,4.3v2.44h-4.23v-6.74Z"/><rect class="cls-2" x="1012.71" y="280.87" width="4.23" height="6.74"/><path class="cls-2" d="M993.2,264.42c.73-1.56,1.78-2.94,3.06-4.07v4.07h-3.06Z"/><rect class="cls-2" x="1004.98" y="288.6" width="6.74" height="6.74"/><rect class="cls-2" x="1012.71" y="288.6" width="4.23" height="6.74"/><rect class="cls-2" x="992.02" y="296.33" width="4.24" height="11.01"/><rect class="cls-2" x="1004.98" y="273.14" width="6.74" height="6.74"/><rect class="cls-2" x="1004.98" y="265.41" width="6.74" height="6.74"/><rect class="cls-2" x="1004.98" y="280.87" width="6.74" height="6.74"/><rect class="cls-2" x="997.25" y="273.14" width="6.74" height="6.74"/><rect class="cls-2" x="997.25" y="265.41" width="6.74" height="6.74"/><path class="cls-2" d="M1012.71,260.36c1.28,1.12,2.32,2.51,3.06,4.06h-3.06v-4.06Z"/><rect class="cls-2" x="1004.98" y="296.33" width="6.74" height="11.01"/><path class="cls-2" d="M997.25,264.42v-4.85c1.91-1.37,4.23-2.21,6.74-2.3v7.16h-6.74Z"/><rect class="cls-2" x="992.02" y="273.14" width="4.24" height="6.74"/><rect class="cls-2" x="997.25" y="296.33" width="6.74" height="11.01"/><rect class="cls-2" x="992.02" y="280.87" width="4.24" height="6.74"/><rect class="cls-2" x="997.25" y="280.87" width="6.74" height="6.74"/><rect class="cls-2" x="992.02" y="288.6" width="4.24" height="6.74"/><rect class="cls-2" x="1012.71" y="296.33" width="4.23" height="11.01"/><path class="cls-2" d="M1004.98,264.42v-7.16c2.51,.1,4.83,.94,6.74,2.3v4.85h-6.74Z"/><rect class="cls-2" x="912.1" y="178.3" width="4.23" height="6.74"/><path class="cls-2" d="M892.17,170.57h3.47v6.74h-4.24v-2.44c0-1.51,.27-2.96,.76-4.3Z"/><rect class="cls-2" x="896.64" y="193.76" width="6.74" height="6.74"/><path class="cls-2" d="M912.1,170.57h3.47c.49,1.34,.76,2.79,.76,4.3v2.44h-4.23v-6.74Z"/><rect class="cls-2" x="912.1" y="186.03" width="4.23" height="6.74"/><path class="cls-2" d="M892.59,169.58c.73-1.56,1.78-2.94,3.06-4.07v4.07h-3.06Z"/><rect class="cls-2" x="904.37" y="193.76" width="6.74" height="6.74"/><rect class="cls-2" x="912.1" y="193.76" width="4.23" height="6.74"/><rect class="cls-2" x="891.41" y="201.49" width="4.24" height="11.01"/><rect class="cls-2" x="904.37" y="178.3" width="6.74" height="6.74"/><rect class="cls-2" x="904.37" y="170.57" width="6.74" height="6.74"/><rect class="cls-2" x="904.37" y="186.03" width="6.74" height="6.74"/><rect class="cls-2" x="896.64" y="178.3" width="6.74" height="6.74"/><rect class="cls-2" x="896.64" y="170.57" width="6.74" height="6.74"/><path class="cls-2" d="M912.1,165.51c1.28,1.12,2.32,2.51,3.06,4.06h-3.06v-4.06Z"/><rect class="cls-2" x="904.37" y="201.49" width="6.74" height="11.01"/><path class="cls-2" d="M896.64,169.58v-4.85c1.91-1.37,4.23-2.21,6.74-2.3v7.16h-6.74Z"/><rect class="cls-2" x="891.41" y="178.3" width="4.24" height="6.74"/><rect class="cls-2" x="896.64" y="201.49" width="6.74" height="11.01"/><rect class="cls-2" x="891.41" y="186.03" width="4.24" height="6.74"/><rect class="cls-2" x="896.64" y="186.03" width="6.74" height="6.74"/><rect class="cls-2" x="891.41" y="193.76" width="4.24" height="6.74"/><rect class="cls-2" x="912.1" y="201.49" width="4.23" height="11.01"/><path class="cls-2" d="M904.37,169.58v-7.16c2.51,.1,4.83,.94,6.74,2.3v4.85h-6.74Z"/></g><g><polygon class="cls-1" points="543.21 63.21 541.43 63.21 541.43 48.91 555.72 48.91 555.72 63.21 553.93 63.21 553.93 77.46 592.24 57.31 606.71 49.71 621.17 57.31 636.47 65.35 690.82 36.79 705.29 29.19 719.76 36.79 766.5 61.35 766.5 45.89 764.71 45.89 764.71 31.59 779.01 31.59 779.01 45.89 777.22 45.89 777.22 66.98 788.35 72.83 788.35 45.89 786.56 45.89 786.56 31.59 800.85 31.59 800.85 45.89 799.07 45.89 799.07 78.46 857.08 108.94 846.06 118.35 845.85 118.24 845.96 118.45 825.33 118.1 825.43 328.68 830.5 328.68 830.5 338.54 839.83 338.54 839.83 353.73 522.22 353.73 522.22 338.54 531.55 338.54 531.55 328.68 538.54 328.68 538.43 113.24 515.82 112.86 516.35 112.45 515.76 112.76 504.75 103.34 543.21 83.1 543.21 63.21"/><path class="cls-2" d="M831.17,107.66c-10.41-5.85-20.86-11.63-31.3-17.44-2.61-1.45-5.21-2.92-7.85-4.31l-7.9-4.22-15.79-8.46-63.15-33.84-.32-.17-.32,.17-27.71,15.05-13.86,7.52c-.58,.31-1.16,.61-1.73,.95l-1.69,1.02-3.38,2.04-3.38,2.04-3.36,2.07,3.56-1.7,3.55-1.72,3.55-1.72,1.78-.86c.59-.29,1.16-.61,1.74-.93l13.85-7.53,27.71-15.05h-.63s63.15,33.84,63.15,33.84l15.79,8.46,7.89,4.24c2.62,1.43,5.29,2.77,7.94,4.15,10.62,5.47,21.21,10.97,31.85,16.4Z"/><path class="cls-2" d="M664.64,91.68c-4.68-2.78-9.39-5.52-14.11-8.25-1.18-.68-2.35-1.38-3.56-2.01-1.21-.63-2.41-1.27-3.6-1.92l-7.19-3.86-28.78-15.45-.33-.18-.32,.18-36.1,20.78-18.05,10.39c-.76,.43-1.51,.85-2.25,1.31l-2.21,1.38-4.42,2.75-4.42,2.75-4.41,2.78,4.62-2.42,4.6-2.44,4.6-2.44,2.3-1.22c.77-.41,1.51-.85,2.26-1.29l18.05-10.4,36.1-20.78h-.65s28.78,15.46,28.78,15.46l7.19,3.86c1.2,.64,2.4,1.29,3.59,1.95,1.19,.66,2.42,1.24,3.64,1.85,4.88,2.42,9.76,4.84,14.67,7.21Z"/><rect class="cls-2" x="756.27" y="139.84" width="7.82" height="7.06"/><rect class="cls-2" x="756.27" y="149.81" width="7.82" height="6.83"/><rect class="cls-2" x="747.29" y="139.84" width="7.82" height="7.06"/><rect class="cls-2" x="765.24" y="130.87" width="7.82" height="7.82"/><rect class="cls-2" x="774.22" y="149.81" width="7.82" height="6.83"/><rect class="cls-2" x="741.29" y="166.76" width="4.85" height="8.57"/><rect class="cls-2" x="774.22" y="157.79" width="7.82" height="7.82"/><rect class="cls-2" x="765.24" y="149.81" width="7.82" height="6.83"/><rect class="cls-2" x="756.27" y="130.87" width="7.82" height="7.82"/><rect class="cls-2" x="774.22" y="139.84" width="7.82" height="7.06"/><rect class="cls-2" x="774.22" y="130.87" width="7.82" height="7.82"/><rect class="cls-2" x="747.29" y="166.76" width="7.82" height="8.57"/><rect class="cls-2" x="747.29" y="130.87" width="7.82" height="7.82"/><rect class="cls-2" x="765.24" y="157.79" width="7.82" height="7.82"/><rect class="cls-2" x="741.29" y="157.79" width="4.85" height="7.82"/><rect class="cls-2" x="741.29" y="139.84" width="4.85" height="7.06"/><rect class="cls-2" x="765.24" y="139.84" width="7.82" height="7.06"/><rect class="cls-2" x="774.22" y="166.76" width="7.82" height="8.57"/><rect class="cls-2" x="783.19" y="166.76" width="4.85" height="8.57"/><rect class="cls-2" x="783.19" y="157.79" width="4.85" height="7.82"/><rect class="cls-2" x="741.29" y="130.87" width="4.85" height="7.82"/><rect class="cls-2" x="774.22" y="121.14" width="7.82" height="8.57"/><rect class="cls-2" x="741.29" y="121.14" width="4.85" height="8.57"/><rect class="cls-2" x="747.29" y="121.14" width="7.82" height="8.57"/><rect class="cls-2" x="765.24" y="121.14" width="7.82" height="8.57"/><rect class="cls-2" x="765.24" y="166.76" width="7.82" height="8.57"/><rect class="cls-2" x="783.19" y="121.14" width="4.85" height="8.57"/><rect class="cls-2" x="783.19" y="139.84" width="4.85" height="7.06"/><rect class="cls-2" x="783.19" y="149.81" width="4.85" height="6.83"/><rect class="cls-2" x="783.19" y="130.87" width="4.85" height="7.82"/><rect class="cls-2" x="741.29" y="149.81" width="4.85" height="6.83"/><rect class="cls-2" x="756.27" y="121.14" width="7.82" height="8.57"/><rect class="cls-2" x="747.29" y="149.81" width="7.82" height="6.83"/><rect class="cls-2" x="747.29" y="157.79" width="7.82" height="7.82"/><rect class="cls-2" x="756.27" y="166.76" width="7.82" height="8.57"/><rect class="cls-2" x="756.27" y="157.79" width="7.82" height="7.82"/><path class="cls-2" d="M738.2,117.79h52.93v60.77h-52.93v-60.77Zm52.05,.88h-51.16v59h51.16v-59Z"/><rect class="cls-2" x="587.86" y="140.11" width="7.82" height="7.06"/><rect class="cls-2" x="587.86" y="150.08" width="7.82" height="6.83"/><rect class="cls-2" x="578.89" y="140.11" width="7.82" height="7.06"/><rect class="cls-2" x="596.84" y="131.13" width="7.82" height="7.82"/><rect class="cls-2" x="605.81" y="150.08" width="7.82" height="6.83"/><rect class="cls-2" x="572.89" y="167.03" width="4.85" height="8.57"/><rect class="cls-2" x="605.81" y="158.06" width="7.82" height="7.82"/><rect class="cls-2" x="596.84" y="150.08" width="7.82" height="6.83"/><rect class="cls-2" x="587.86" y="131.13" width="7.82" height="7.82"/><rect class="cls-2" x="605.81" y="140.11" width="7.82" height="7.06"/><rect class="cls-2" x="605.81" y="131.13" width="7.82" height="7.82"/><rect class="cls-2" x="578.89" y="167.03" width="7.82" height="8.57"/><rect class="cls-2" x="578.89" y="131.13" width="7.82" height="7.82"/><rect class="cls-2" x="596.84" y="158.06" width="7.82" height="7.82"/><rect class="cls-2" x="572.89" y="158.06" width="4.85" height="7.82"/><rect class="cls-2" x="572.89" y="140.11" width="4.85" height="7.06"/><rect class="cls-2" x="596.84" y="140.11" width="7.82" height="7.06"/><rect class="cls-2" x="605.81" y="167.03" width="7.82" height="8.57"/><rect class="cls-2" x="614.78" y="167.03" width="4.85" height="8.57"/><rect class="cls-2" x="614.78" y="158.06" width="4.85" height="7.82"/><rect class="cls-2" x="572.89" y="131.13" width="4.85" height="7.82"/><rect class="cls-2" x="605.81" y="121.41" width="7.82" height="8.57"/><rect class="cls-2" x="572.89" y="121.41" width="4.85" height="8.57"/><rect class="cls-2" x="578.89" y="121.41" width="7.82" height="8.57"/><rect class="cls-2" x="596.84" y="121.41" width="7.82" height="8.57"/><rect class="cls-2" x="596.84" y="167.03" width="7.82" height="8.57"/><rect class="cls-2" x="614.78" y="121.41" width="4.85" height="8.57"/><rect class="cls-2" x="614.78" y="140.11" width="4.85" height="7.06"/><rect class="cls-2" x="614.78" y="150.08" width="4.85" height="6.83"/><rect class="cls-2" x="614.78" y="131.13" width="4.85" height="7.82"/><rect class="cls-2" x="572.89" y="150.08" width="4.85" height="6.83"/><rect class="cls-2" x="587.86" y="121.41" width="7.82" height="8.57"/><rect class="cls-2" x="578.89" y="150.08" width="7.82" height="6.83"/><rect class="cls-2" x="578.89" y="158.06" width="7.82" height="7.82"/><rect class="cls-2" x="587.86" y="167.03" width="7.82" height="8.57"/><rect class="cls-2" x="587.86" y="158.06" width="7.82" height="7.82"/><path class="cls-2" d="M569.79,118.05h52.93v60.77h-52.93v-60.77Zm52.05,.88h-51.16v59h51.16v-59Z"/><rect class="cls-2" x="672.59" y="139.84" width="7.82" height="7.06"/><rect class="cls-2" x="672.59" y="149.81" width="7.82" height="6.83"/><rect class="cls-2" x="663.62" y="139.84" width="7.82" height="7.06"/><rect class="cls-2" x="681.57" y="130.87" width="7.82" height="7.82"/><rect class="cls-2" x="690.54" y="149.81" width="7.82" height="6.83"/><rect class="cls-2" x="657.62" y="166.76" width="4.85" height="8.57"/><rect class="cls-2" x="690.54" y="157.79" width="7.82" height="7.82"/><rect class="cls-2" x="681.57" y="149.81" width="7.82" height="6.83"/><rect class="cls-2" x="672.59" y="130.87" width="7.82" height="7.82"/><rect class="cls-2" x="690.54" y="139.84" width="7.82" height="7.06"/><rect class="cls-2" x="690.54" y="130.87" width="7.82" height="7.82"/><rect class="cls-2" x="663.62" y="166.76" width="7.82" height="8.57"/><rect class="cls-2" x="663.62" y="130.87" width="7.82" height="7.82"/><rect class="cls-2" x="681.57" y="157.79" width="7.82" height="7.82"/><rect class="cls-2" x="657.62" y="157.79" width="4.85" height="7.82"/><rect class="cls-2" x="657.62" y="139.84" width="4.85" height="7.06"/><rect class="cls-2" x="681.57" y="139.84" width="7.82" height="7.06"/><rect class="cls-2" x="690.54" y="166.76" width="7.82" height="8.57"/><rect class="cls-2" x="699.52" y="166.76" width="4.85" height="8.57"/><rect class="cls-2" x="699.52" y="157.79" width="4.85" height="7.82"/><rect class="cls-2" x="657.62" y="130.87" width="4.85" height="7.82"/><rect class="cls-2" x="690.54" y="121.14" width="7.82" height="8.57"/><rect class="cls-2" x="657.62" y="121.14" width="4.85" height="8.57"/><rect class="cls-2" x="663.62" y="121.14" width="7.82" height="8.57"/><rect class="cls-2" x="681.57" y="121.14" width="7.82" height="8.57"/><rect class="cls-2" x="681.57" y="166.76" width="7.82" height="8.57"/><rect class="cls-2" x="699.52" y="121.14" width="4.85" height="8.57"/><rect class="cls-2" x="699.52" y="139.84" width="4.85" height="7.06"/><rect class="cls-2" x="699.52" y="149.81" width="4.85" height="6.83"/><rect class="cls-2" x="699.52" y="130.87" width="4.85" height="7.82"/><rect class="cls-2" x="657.62" y="149.81" width="4.85" height="6.83"/><rect class="cls-2" x="672.59" y="121.14" width="7.82" height="8.57"/><rect class="cls-2" x="663.62" y="149.81" width="7.82" height="6.83"/><rect class="cls-2" x="663.62" y="157.79" width="7.82" height="7.82"/><rect class="cls-2" x="672.59" y="166.76" width="7.82" height="8.57"/><rect class="cls-2" x="672.59" y="157.79" width="7.82" height="7.82"/><path class="cls-2" d="M654.53,117.79h52.93v60.77h-52.93v-60.77Zm52.05,.88h-51.16v59h51.16v-59Z"/><rect class="cls-2" x="756.72" y="242.81" width="7.82" height="7.06"/><rect class="cls-2" x="756.72" y="252.78" width="7.82" height="6.83"/><rect class="cls-2" x="747.75" y="242.81" width="7.82" height="7.06"/><rect class="cls-2" x="765.69" y="233.83" width="7.82" height="7.82"/><rect class="cls-2" x="774.67" y="252.78" width="7.82" height="6.83"/><rect class="cls-2" x="741.75" y="269.73" width="4.85" height="8.57"/><rect class="cls-2" x="774.67" y="260.76" width="7.82" height="7.82"/><rect class="cls-2" x="765.69" y="252.78" width="7.82" height="6.83"/><rect class="cls-2" x="756.72" y="233.83" width="7.82" height="7.82"/><rect class="cls-2" x="774.67" y="242.81" width="7.82" height="7.06"/><rect class="cls-2" x="774.67" y="233.83" width="7.82" height="7.82"/><rect class="cls-2" x="747.75" y="269.73" width="7.82" height="8.57"/><rect class="cls-2" x="747.75" y="233.83" width="7.82" height="7.82"/><rect class="cls-2" x="765.69" y="260.76" width="7.82" height="7.82"/><rect class="cls-2" x="741.75" y="260.76" width="4.85" height="7.82"/><rect class="cls-2" x="741.75" y="242.81" width="4.85" height="7.06"/><rect class="cls-2" x="765.69" y="242.81" width="7.82" height="7.06"/><rect class="cls-2" x="774.67" y="269.73" width="7.82" height="8.57"/><rect class="cls-2" x="783.64" y="269.73" width="4.85" height="8.57"/><rect class="cls-2" x="783.64" y="260.76" width="4.85" height="7.82"/><rect class="cls-2" x="741.75" y="233.83" width="4.85" height="7.82"/><rect class="cls-2" x="774.67" y="224.11" width="7.82" height="8.57"/><rect class="cls-2" x="741.75" y="224.11" width="4.85" height="8.57"/><rect class="cls-2" x="747.75" y="224.11" width="7.82" height="8.57"/><rect class="cls-2" x="765.69" y="224.11" width="7.82" height="8.57"/><rect class="cls-2" x="765.69" y="269.73" width="7.82" height="8.57"/><rect class="cls-2" x="783.64" y="224.11" width="4.85" height="8.57"/><rect class="cls-2" x="783.64" y="242.81" width="4.85" height="7.06"/><rect class="cls-2" x="783.64" y="252.78" width="4.85" height="6.83"/><rect class="cls-2" x="783.64" y="233.83" width="4.85" height="7.82"/><rect class="cls-2" x="741.75" y="252.78" width="4.85" height="6.83"/><rect class="cls-2" x="756.72" y="224.11" width="7.82" height="8.57"/><rect class="cls-2" x="747.75" y="252.78" width="7.82" height="6.83"/><rect class="cls-2" x="747.75" y="260.76" width="7.82" height="7.82"/><rect class="cls-2" x="756.72" y="269.73" width="7.82" height="8.57"/><rect class="cls-2" x="756.72" y="260.76" width="7.82" height="7.82"/><path class="cls-2" d="M738.65,220.75h52.93v60.77h-52.93v-60.77Zm52.05,.88h-51.16v59h51.16v-59Z"/><rect class="cls-2" x="588.32" y="242.81" width="7.82" height="7.06"/><rect class="cls-2" x="588.32" y="252.78" width="7.82" height="6.83"/><rect class="cls-2" x="579.35" y="242.81" width="7.82" height="7.06"/><rect class="cls-2" x="597.3" y="233.83" width="7.82" height="7.82"/><rect class="cls-2" x="606.27" y="252.78" width="7.82" height="6.83"/><rect class="cls-2" x="573.35" y="269.73" width="4.85" height="8.57"/><rect class="cls-2" x="606.27" y="260.76" width="7.82" height="7.82"/><rect class="cls-2" x="597.3" y="252.78" width="7.82" height="6.83"/><rect class="cls-2" x="588.32" y="233.83" width="7.82" height="7.82"/><rect class="cls-2" x="606.27" y="242.81" width="7.82" height="7.06"/><rect class="cls-2" x="606.27" y="233.83" width="7.82" height="7.82"/><rect class="cls-2" x="579.35" y="269.73" width="7.82" height="8.57"/><rect class="cls-2" x="579.35" y="233.83" width="7.82" height="7.82"/><rect class="cls-2" x="597.3" y="260.76" width="7.82" height="7.82"/><rect class="cls-2" x="573.35" y="260.76" width="4.85" height="7.82"/><rect class="cls-2" x="573.35" y="242.81" width="4.85" height="7.06"/><rect class="cls-2" x="597.3" y="242.81" width="7.82" height="7.06"/><rect class="cls-2" x="606.27" y="269.73" width="7.82" height="8.57"/><rect class="cls-2" x="615.25" y="269.73" width="4.85" height="8.57"/><rect class="cls-2" x="615.25" y="260.76" width="4.85" height="7.82"/><rect class="cls-2" x="573.35" y="233.83" width="4.85" height="7.82"/><rect class="cls-2" x="606.27" y="224.11" width="7.82" height="8.57"/><rect class="cls-2" x="573.35" y="224.11" width="4.85" height="8.57"/><rect class="cls-2" x="579.35" y="224.11" width="7.82" height="8.57"/><rect class="cls-2" x="597.3" y="224.11" width="7.82" height="8.57"/><rect class="cls-2" x="597.3" y="269.73" width="7.82" height="8.57"/><rect class="cls-2" x="615.25" y="224.11" width="4.85" height="8.57"/><rect class="cls-2" x="615.25" y="242.81" width="4.85" height="7.06"/><rect class="cls-2" x="615.25" y="252.78" width="4.85" height="6.83"/><rect class="cls-2" x="615.25" y="233.83" width="4.85" height="7.82"/><rect class="cls-2" x="573.35" y="252.78" width="4.85" height="6.83"/><rect class="cls-2" x="588.32" y="224.11" width="7.82" height="8.57"/><rect class="cls-2" x="579.35" y="252.78" width="7.82" height="6.83"/><rect class="cls-2" x="579.35" y="260.76" width="7.82" height="7.82"/><rect class="cls-2" x="588.32" y="269.73" width="7.82" height="8.57"/><rect class="cls-2" x="588.32" y="260.76" width="7.82" height="7.82"/><path class="cls-2" d="M570.26,220.75h52.93v60.77h-52.93v-60.77Zm52.05,.88h-51.16v59h51.16v-59Z"/><path class="cls-2" d="M714.78,78.22c-.67,4.67-4.37,8.37-9.04,9.04v-9.04h9.04Z"/><path class="cls-2" d="M693.61,75.27c.63-4.77,4.41-8.54,9.17-9.17v9.17h-9.17Z"/><path class="cls-2" d="M705.74,66.11c4.71,.68,8.43,4.43,9.06,9.16h-9.06v-9.16Z"/><path class="cls-2" d="M702.79,87.28c-4.73-.63-8.48-4.34-9.16-9.06h9.16v9.06Z"/><path class="cls-2" d="M691.75,76.69c0-6.87,5.59-12.46,12.46-12.46s12.46,5.59,12.46,12.46-5.59,12.46-12.46,12.46-12.46-5.59-12.46-12.46Zm.83,0c0,6.41,5.22,11.63,11.63,11.63s11.63-5.22,11.63-11.63-5.22-11.63-11.63-11.63-11.63,5.22-11.63,11.63Z"/><path class="cls-2" d="M653.93,228.5v107.65h52.85v-107.65h-52.85Zm45.5,74.73h-6.78v-63.04c3.83,.52,6.78,3.8,6.78,7.77v55.27Zm-15.68-55.27c0-3.97,2.95-7.25,6.78-7.77v63.04h-6.78v-55.27Zm-6.78,55.27h-6.39v-62.98c3.64,.68,6.39,3.87,6.39,7.7v55.27Zm-15.68-55.27c0-4.1,3.15-7.47,7.16-7.81v63.08h-7.16v-55.27Z"/></g><g><polygon class="cls-1" points="556.38 347.88 507.95 347.88 507.95 198.26 523.3 210.3 533.38 197.45 486.02 160.32 486.02 133.08 488.31 133.08 488.31 123.16 486.02 123.16 486.02 121.45 488.31 121.45 488.31 111.53 470.01 111.53 470.01 121.45 472.29 121.45 472.29 123.16 470.01 123.16 470.01 133.08 472.29 133.08 472.29 149.56 394.52 88.59 263.81 146.41 263.81 97.62 268.15 97.62 268.15 89.24 233.43 89.24 233.43 97.62 237.77 97.62 237.77 157.93 29.44 250.1 39.51 262.95 56.98 255.41 56.98 288.16 51.48 288.16 51.48 290.32 56.98 290.32 56.98 325.18 51.48 325.18 51.48 327.34 56.98 327.34 56.98 347.88 10.09 347.88 10.09 353.73 556.38 353.73 556.38 347.88"/><path class="cls-1" d="M46.39,274.86c-2.46-1.77-4.35-3.14-4.94-6.3l3.97-1.83v-1.73h-13.14v1.73l4.11,1.89c.74,5.74,4.21,8.25,7.07,10.31,3.09,2.23,5.52,3.99,5.52,9.66v38.97c0,4.69-3.53,7.35-6.11,9.29-.84,.64-1.57,1.19-2.12,1.77l3.67,3.43c.24-.26,.87-.73,1.47-1.19,2.83-2.14,8.1-6.11,8.1-13.3v-38.97c0-8.24-4.22-11.29-7.61-13.73Z"/><path class="cls-2" d="M434.33,263.56v83.35h34.18v-83.35h-34.18Zm15.74,53.07h-9.74v-9.74h9.74v9.74Zm0-12.44h-9.74v-9.74h9.74v9.74Zm0-12.44h-9.74v-9.74h9.74v9.74Zm0-12.44h-9.74v-9.74h9.74v9.74Zm12.44,37.33h-9.74v-9.74h9.74v9.74Zm0-12.44h-9.74v-9.74h9.74v9.74Zm0-12.44h-9.74v-9.74h9.74v9.74Zm0-12.44h-9.74v-9.74h9.74v9.74Z"/><path class="cls-2" d="M451.34,244.52c-9.44,0-17.09,7.65-17.09,17.09v.3h34.18v-.3c0-9.44-7.65-17.09-17.09-17.09Zm-1.2,10.56l-4.19-4.19c1.28-.65,2.69-1.07,4.19-1.22v5.41Zm2.55-5.39c1.51,.17,2.94,.62,4.24,1.31l-4.24,4.24v-5.54Zm-8.92,2.62l4.49,4.49h-7.91c.77-1.76,1.95-3.3,3.42-4.49Zm10.95,4.49l4.36-4.36c1.39,1.18,2.51,2.67,3.26,4.36h-7.61Z"/><path class="cls-2" d="M75.79,244.64c13.08-5.77,26.17-11.51,39.27-17.23l39.31-17.14c6.56-2.84,13.09-5.75,19.69-8.48,6.6-2.73,13.18-5.52,19.77-8.29l39.52-16.64,158.08-66.55,.7-.3,.61,.45,47.05,34.86,23.53,17.43c.99,.72,1.99,1.41,2.93,2.19l2.84,2.32,5.67,4.64,5.65,4.67,5.63,4.7-6.13-4.02-6.11-4.05-6.09-4.08-3.04-2.04c-1.02-.67-1.98-1.43-2.95-2.17l-23.52-17.43-47.05-34.86,1.32,.16-158.08,66.55-39.52,16.64c-6.59,2.77-13.18,5.54-19.75,8.35-6.57,2.81-13.21,5.45-19.83,8.15l-39.73,16.13c-13.25,5.37-26.5,10.72-39.77,16.04Z"/><rect class="cls-2" x="122.69" y="281.59" width="8.74" height="7.89"/><rect class="cls-2" x="122.69" y="292.73" width="8.74" height="7.63"/><rect class="cls-2" x="132.71" y="281.59" width="8.74" height="7.89"/><rect class="cls-2" x="112.66" y="271.57" width="8.74" height="8.74"/><rect class="cls-2" x="102.63" y="292.73" width="8.74" height="7.63"/><rect class="cls-2" x="142.74" y="311.67" width="5.42" height="9.58"/><rect class="cls-2" x="102.63" y="301.64" width="8.74" height="8.74"/><rect class="cls-2" x="112.66" y="292.73" width="8.74" height="7.63"/><rect class="cls-2" x="122.69" y="271.57" width="8.74" height="8.74"/><rect class="cls-2" x="102.63" y="281.59" width="8.74" height="7.89"/><rect class="cls-2" x="102.63" y="271.57" width="8.74" height="8.74"/><rect class="cls-2" x="132.71" y="311.67" width="8.74" height="9.58"/><rect class="cls-2" x="132.71" y="271.57" width="8.74" height="8.74"/><rect class="cls-2" x="112.66" y="301.64" width="8.74" height="8.74"/><rect class="cls-2" x="142.74" y="301.64" width="5.42" height="8.74"/><rect class="cls-2" x="142.74" y="281.59" width="5.42" height="7.89"/><rect class="cls-2" x="112.66" y="281.59" width="8.74" height="7.89"/><rect class="cls-2" x="102.63" y="311.67" width="8.74" height="9.58"/><rect class="cls-2" x="95.93" y="311.67" width="5.42" height="9.58"/><rect class="cls-2" x="95.93" y="301.64" width="5.42" height="8.74"/><rect class="cls-2" x="142.74" y="271.57" width="5.42" height="8.74"/><rect class="cls-2" x="102.63" y="260.7" width="8.74" height="9.58"/><rect class="cls-2" x="142.74" y="260.7" width="5.42" height="9.58"/><rect class="cls-2" x="132.71" y="260.7" width="8.74" height="9.58"/><rect class="cls-2" x="112.66" y="260.7" width="8.74" height="9.58"/><rect class="cls-2" x="112.66" y="311.67" width="8.74" height="9.58"/><rect class="cls-2" x="95.93" y="260.7" width="5.42" height="9.58"/><rect class="cls-2" x="95.93" y="281.59" width="5.42" height="7.89"/><rect class="cls-2" x="95.93" y="292.73" width="5.42" height="7.63"/><rect class="cls-2" x="95.93" y="271.57" width="5.42" height="8.74"/><rect class="cls-2" x="142.74" y="292.73" width="5.42" height="7.63"/><rect class="cls-2" x="122.69" y="260.7" width="8.74" height="9.58"/><rect class="cls-2" x="132.71" y="292.73" width="8.74" height="7.63"/><rect class="cls-2" x="132.71" y="301.64" width="8.74" height="8.74"/><rect class="cls-2" x="122.69" y="311.67" width="8.74" height="9.58"/><rect class="cls-2" x="122.69" y="301.64" width="8.74" height="8.74"/><path class="cls-2" d="M151.61,324.84h-59.14v-67.89h59.14v67.89Zm-58.15-.99h57.16v-65.91h-57.16v65.91Z"/><rect class="cls-2" x="380.35" y="168.73" width="8.74" height="7.89"/><rect class="cls-2" x="380.35" y="179.87" width="8.74" height="7.63"/><rect class="cls-2" x="390.38" y="168.73" width="8.74" height="7.89"/><rect class="cls-2" x="370.32" y="158.7" width="8.74" height="8.74"/><rect class="cls-2" x="360.3" y="179.87" width="8.74" height="7.63"/><rect class="cls-2" x="400.4" y="198.8" width="5.42" height="9.58"/><rect class="cls-2" x="360.3" y="188.78" width="8.74" height="8.74"/><rect class="cls-2" x="370.32" y="179.87" width="8.74" height="7.63"/><rect class="cls-2" x="380.35" y="158.7" width="8.74" height="8.74"/><rect class="cls-2" x="360.3" y="168.73" width="8.74" height="7.89"/><rect class="cls-2" x="360.3" y="158.7" width="8.74" height="8.74"/><rect class="cls-2" x="390.38" y="198.8" width="8.74" height="9.58"/><rect class="cls-2" x="390.38" y="158.7" width="8.74" height="8.74"/><rect class="cls-2" x="370.32" y="188.78" width="8.74" height="8.74"/><rect class="cls-2" x="400.4" y="188.78" width="5.42" height="8.74"/><rect class="cls-2" x="400.4" y="168.73" width="5.42" height="7.89"/><rect class="cls-2" x="370.32" y="168.73" width="8.74" height="7.89"/><rect class="cls-2" x="360.3" y="198.8" width="8.74" height="9.58"/><rect class="cls-2" x="353.6" y="198.8" width="5.42" height="9.58"/><rect class="cls-2" x="353.6" y="188.78" width="5.42" height="8.74"/><rect class="cls-2" x="400.4" y="158.7" width="5.42" height="8.74"/><rect class="cls-2" x="360.3" y="147.83" width="8.74" height="9.58"/><rect class="cls-2" x="400.4" y="147.83" width="5.42" height="9.58"/><rect class="cls-2" x="390.38" y="147.83" width="8.74" height="9.58"/><rect class="cls-2" x="370.32" y="147.83" width="8.74" height="9.58"/><rect class="cls-2" x="370.32" y="198.8" width="8.74" height="9.58"/><rect class="cls-2" x="353.6" y="147.83" width="5.42" height="9.58"/><rect class="cls-2" x="353.6" y="168.73" width="5.42" height="7.89"/><rect class="cls-2" x="353.6" y="179.87" width="5.42" height="7.63"/><rect class="cls-2" x="353.6" y="158.7" width="5.42" height="8.74"/><rect class="cls-2" x="400.4" y="179.87" width="5.42" height="7.63"/><rect class="cls-2" x="380.35" y="147.83" width="8.74" height="9.58"/><rect class="cls-2" x="390.38" y="179.87" width="8.74" height="7.63"/><rect class="cls-2" x="390.38" y="188.78" width="8.74" height="8.74"/><rect class="cls-2" x="380.35" y="198.8" width="8.74" height="9.58"/><rect class="cls-2" x="380.35" y="188.78" width="8.74" height="8.74"/><path class="cls-2" d="M409.28,211.98h-59.14v-67.89h59.14v67.89Zm-58.15-.99h57.16v-65.91h-57.16v65.91Z"/><rect class="cls-2" x="243.35" y="281.1" width="8.74" height="7.89"/><rect class="cls-2" x="243.35" y="292.24" width="8.74" height="7.63"/><rect class="cls-2" x="253.38" y="281.1" width="8.74" height="7.89"/><rect class="cls-2" x="233.33" y="271.08" width="8.74" height="8.74"/><rect class="cls-2" x="223.3" y="292.24" width="8.74" height="7.63"/><rect class="cls-2" x="263.4" y="311.18" width="5.42" height="9.58"/><rect class="cls-2" x="223.3" y="301.16" width="8.74" height="8.74"/><rect class="cls-2" x="233.33" y="292.24" width="8.74" height="7.63"/><rect class="cls-2" x="243.35" y="271.08" width="8.74" height="8.74"/><rect class="cls-2" x="223.3" y="281.1" width="8.74" height="7.89"/><rect class="cls-2" x="223.3" y="271.08" width="8.74" height="8.74"/><rect class="cls-2" x="253.38" y="311.18" width="8.74" height="9.58"/><rect class="cls-2" x="253.38" y="271.08" width="8.74" height="8.74"/><rect class="cls-2" x="233.33" y="301.16" width="8.74" height="8.74"/><rect class="cls-2" x="263.4" y="301.16" width="5.42" height="8.74"/><rect class="cls-2" x="263.4" y="281.1" width="5.42" height="7.89"/><rect class="cls-2" x="233.33" y="281.1" width="8.74" height="7.89"/><rect class="cls-2" x="223.3" y="311.18" width="8.74" height="9.58"/><rect class="cls-2" x="216.6" y="311.18" width="5.42" height="9.58"/><rect class="cls-2" x="216.6" y="301.16" width="5.42" height="8.74"/><rect class="cls-2" x="263.4" y="271.08" width="5.42" height="8.74"/><rect class="cls-2" x="223.3" y="260.21" width="8.74" height="9.58"/><rect class="cls-2" x="263.4" y="260.21" width="5.42" height="9.58"/><rect class="cls-2" x="253.38" y="260.21" width="8.74" height="9.58"/><rect class="cls-2" x="233.33" y="260.21" width="8.74" height="9.58"/><rect class="cls-2" x="233.33" y="311.18" width="8.74" height="9.58"/><rect class="cls-2" x="216.6" y="260.21" width="5.42" height="9.58"/><rect class="cls-2" x="216.6" y="281.1" width="5.42" height="7.89"/><rect class="cls-2" x="216.6" y="292.24" width="5.42" height="7.63"/><rect class="cls-2" x="216.6" y="271.08" width="5.42" height="8.74"/><rect class="cls-2" x="263.4" y="292.24" width="5.42" height="7.63"/><rect class="cls-2" x="243.35" y="260.21" width="8.74" height="9.58"/><rect class="cls-2" x="253.38" y="292.24" width="8.74" height="7.63"/><rect class="cls-2" x="253.38" y="301.16" width="8.74" height="8.74"/><rect class="cls-2" x="243.35" y="311.18" width="8.74" height="9.58"/><rect class="cls-2" x="243.35" y="301.16" width="8.74" height="8.74"/><path class="cls-2" d="M272.28,324.35h-59.14v-67.89h59.14v67.89Zm-58.15-.99h57.16v-65.91h-57.16v65.91Z"/><rect class="cls-2" x="365.24" y="279.64" width="8.74" height="7.89"/><rect class="cls-2" x="365.24" y="290.78" width="8.74" height="7.63"/><rect class="cls-2" x="375.26" y="279.64" width="8.74" height="7.89"/><rect class="cls-2" x="355.21" y="269.62" width="8.74" height="8.74"/><rect class="cls-2" x="345.18" y="290.78" width="8.74" height="7.63"/><rect class="cls-2" x="385.29" y="309.72" width="5.42" height="9.58"/><rect class="cls-2" x="345.18" y="299.69" width="8.74" height="8.74"/><rect class="cls-2" x="355.21" y="290.78" width="8.74" height="7.63"/><rect class="cls-2" x="365.24" y="269.62" width="8.74" height="8.74"/><rect class="cls-2" x="345.18" y="279.64" width="8.74" height="7.89"/><rect class="cls-2" x="345.18" y="269.62" width="8.74" height="8.74"/><rect class="cls-2" x="375.26" y="309.72" width="8.74" height="9.58"/><rect class="cls-2" x="375.26" y="269.62" width="8.74" height="8.74"/><rect class="cls-2" x="355.21" y="299.69" width="8.74" height="8.74"/><rect class="cls-2" x="385.29" y="299.69" width="5.42" height="8.74"/><rect class="cls-2" x="385.29" y="279.64" width="5.42" height="7.89"/><rect class="cls-2" x="355.21" y="279.64" width="8.74" height="7.89"/><rect class="cls-2" x="345.18" y="309.72" width="8.74" height="9.58"/><rect class="cls-2" x="338.48" y="309.72" width="5.42" height="9.58"/><rect class="cls-2" x="338.48" y="299.69" width="5.42" height="8.74"/><rect class="cls-2" x="385.29" y="269.62" width="5.42" height="8.74"/><rect class="cls-2" x="345.18" y="258.75" width="8.74" height="9.58"/><rect class="cls-2" x="385.29" y="258.75" width="5.42" height="9.58"/><rect class="cls-2" x="375.26" y="258.75" width="8.74" height="9.58"/><rect class="cls-2" x="355.21" y="258.75" width="8.74" height="9.58"/><rect class="cls-2" x="355.21" y="309.72" width="8.74" height="9.58"/><rect class="cls-2" x="338.48" y="258.75" width="5.42" height="9.58"/><rect class="cls-2" x="338.48" y="279.64" width="5.42" height="7.89"/><rect class="cls-2" x="338.48" y="290.78" width="5.42" height="7.63"/><rect class="cls-2" x="338.48" y="269.62" width="5.42" height="8.74"/><rect class="cls-2" x="385.29" y="290.78" width="5.42" height="7.63"/><rect class="cls-2" x="365.24" y="258.75" width="8.74" height="9.58"/><rect class="cls-2" x="375.26" y="290.78" width="8.74" height="7.63"/><rect class="cls-2" x="375.26" y="299.69" width="8.74" height="8.74"/><rect class="cls-2" x="365.24" y="309.72" width="8.74" height="9.58"/><rect class="cls-2" x="365.24" y="299.69" width="8.74" height="8.74"/><path class="cls-2" d="M394.16,322.89h-59.14v-67.89h59.14v67.89Zm-58.15-.99h57.16v-65.91h-57.16v65.91Z"/></g><g><polygon class="cls-1" points="1339.62 184.38 1352.08 190.93 1365.26 197.85 1412.06 173.26 1424.52 166.71 1436.98 173.26 1479.83 195.77 1479.83 182.28 1477.1 182.28 1477.1 160.39 1498.99 160.39 1498.99 182.28 1496.26 182.28 1496.26 204.4 1555.24 235.39 1545.75 243.5 1545.57 243.4 1545.66 243.58 1527.9 243.28 1527.9 336.52 1532.26 336.52 1532.26 340.65 1540.29 340.65 1540.29 353.73 1266.76 353.73 1266.76 340.65 1274.8 340.65 1274.8 336.52 1280.82 336.52 1280.82 239.09 1261.35 238.76 1261.8 238.41 1261.3 238.68 1251.81 230.57 1327.16 190.93 1339.62 184.38"/><path class="cls-2" d="M1532.93,234.29c-8.97-5.04-17.97-10.01-26.95-15.02-2.25-1.25-4.49-2.51-6.76-3.71l-6.8-3.63-13.6-7.29-54.38-29.14-.27-.15-.27,.15-23.86,12.96-11.93,6.48c-.5,.26-1,.52-1.49,.82l-1.45,.88-2.91,1.76-2.91,1.76-2.9,1.78,3.07-1.46,3.06-1.48,3.06-1.48,1.53-.74c.51-.25,1-.53,1.49-.8l11.93-6.49,23.86-12.96h-.54s54.38,29.14,54.38,29.14l13.6,7.29,6.79,3.65c2.26,1.23,4.55,2.39,6.84,3.57,9.14,4.71,18.27,9.45,27.43,14.12Z"/><path class="cls-2" d="M1389.51,220.52c-4.03-2.4-8.09-4.76-12.15-7.1-1.02-.58-2.02-1.19-3.06-1.73-1.04-.54-2.07-1.1-3.1-1.65l-6.2-3.33-24.78-13.31-.28-.15-.28,.16-31.09,17.9-15.55,8.95c-.65,.37-1.3,.73-1.94,1.12l-1.9,1.19-3.81,2.37-3.81,2.37-3.8,2.39,3.98-2.08,3.96-2.1,3.96-2.1,1.98-1.05c.66-.35,1.3-.73,1.95-1.11l15.54-8.95,31.09-17.9h-.56s24.78,13.32,24.78,13.32l6.2,3.33c1.03,.55,2.07,1.11,3.09,1.68,1.03,.57,2.09,1.07,3.13,1.6,4.2,2.09,8.41,4.16,12.63,6.21Z"/><rect class="cls-2" x="1496.18" y="253.91" width="8.76" height="15.67"/><rect class="cls-2" x="1496.18" y="298.11" width="8.76" height="7.95"/><rect class="cls-2" x="1485.64" y="253.91" width="9.37" height="15.67"/><rect class="cls-2" x="1496.18" y="307.23" width="8.76" height="7.72"/><rect class="cls-2" x="1496.18" y="288.99" width="8.76" height="7.95"/><rect class="cls-2" x="1496.18" y="270.75" width="8.76" height="7.95"/><rect class="cls-2" x="1485.64" y="307.23" width="9.37" height="7.72"/><rect class="cls-2" x="1496.18" y="279.87" width="8.76" height="7.95"/><rect class="cls-2" x="1485.64" y="270.75" width="9.37" height="7.95"/><rect class="cls-2" x="1485.64" y="288.99" width="9.37" height="7.95"/><rect class="cls-2" x="1485.64" y="298.11" width="9.37" height="7.95"/><rect class="cls-2" x="1485.64" y="279.87" width="9.37" height="7.95"/><rect class="cls-2" x="1473.4" y="253.91" width="9.06" height="15.67"/><rect class="cls-2" x="1473.4" y="279.87" width="9.06" height="7.95"/><rect class="cls-2" x="1473.4" y="270.75" width="9.06" height="7.95"/><rect class="cls-2" x="1473.4" y="307.23" width="9.06" height="7.72"/><rect class="cls-2" x="1463.16" y="253.91" width="9.06" height="15.67"/><rect class="cls-2" x="1463.16" y="307.23" width="9.06" height="7.72"/><rect class="cls-2" x="1463.16" y="298.11" width="9.06" height="7.95"/><rect class="cls-2" x="1473.4" y="298.11" width="9.06" height="7.95"/><rect class="cls-2" x="1463.16" y="288.99" width="9.06" height="7.95"/><rect class="cls-2" x="1463.16" y="279.87" width="9.06" height="7.95"/><rect class="cls-2" x="1463.16" y="270.75" width="9.06" height="7.95"/><rect class="cls-2" x="1473.4" y="288.99" width="9.06" height="7.95"/><rect class="cls-2" x="1428.26" y="253.22" width="8.76" height="15.67"/><rect class="cls-2" x="1428.26" y="297.42" width="8.76" height="7.95"/><rect class="cls-2" x="1417.72" y="253.22" width="9.37" height="15.67"/><rect class="cls-2" x="1428.26" y="306.54" width="8.76" height="7.72"/><rect class="cls-2" x="1428.26" y="288.3" width="8.76" height="7.95"/><rect class="cls-2" x="1428.26" y="270.06" width="8.76" height="7.95"/><rect class="cls-2" x="1417.72" y="306.54" width="9.37" height="7.72"/><rect class="cls-2" x="1428.26" y="279.18" width="8.76" height="7.95"/><rect class="cls-2" x="1417.72" y="270.06" width="9.37" height="7.95"/><rect class="cls-2" x="1417.72" y="288.3" width="9.37" height="7.95"/><rect class="cls-2" x="1417.72" y="297.42" width="9.37" height="7.95"/><rect class="cls-2" x="1417.72" y="279.18" width="9.37" height="7.95"/><rect class="cls-2" x="1405.47" y="253.22" width="9.06" height="15.67"/><rect class="cls-2" x="1405.47" y="279.18" width="9.06" height="7.95"/><rect class="cls-2" x="1405.47" y="270.06" width="9.06" height="7.95"/><rect class="cls-2" x="1405.47" y="306.54" width="9.06" height="7.72"/><rect class="cls-2" x="1395.24" y="253.22" width="9.06" height="15.67"/><rect class="cls-2" x="1395.24" y="306.54" width="9.06" height="7.72"/><rect class="cls-2" x="1395.24" y="297.42" width="9.06" height="7.95"/><rect class="cls-2" x="1405.47" y="297.42" width="9.06" height="7.95"/><rect class="cls-2" x="1395.24" y="288.3" width="9.06" height="7.95"/><rect class="cls-2" x="1395.24" y="279.18" width="9.06" height="7.95"/><rect class="cls-2" x="1395.24" y="270.06" width="9.06" height="7.95"/><rect class="cls-2" x="1405.47" y="288.3" width="9.06" height="7.95"/><path class="cls-2" d="M1434.78,209.56c-.65,4.54-4.24,8.13-8.78,8.78v-8.78h8.78Z"/><path class="cls-2" d="M1414.21,206.7c.61-4.63,4.28-8.3,8.92-8.92v8.92h-8.92Z"/><path class="cls-2" d="M1426,197.8c4.58,.66,8.19,4.3,8.8,8.9h-8.8v-8.9Z"/><path class="cls-2" d="M1423.13,218.37c-4.59-.61-8.24-4.22-8.9-8.8h8.9v8.8Z"/><path class="cls-2" d="M1412.4,208.07c0-6.67,5.43-12.1,12.1-12.1s12.1,5.43,12.1,12.1-5.43,12.1-12.1,12.1-12.1-5.43-12.1-12.1Zm.8,0c0,6.23,5.07,11.3,11.3,11.3s11.3-5.07,11.3-11.3-5.07-11.3-11.3-11.3-11.3,5.07-11.3,11.3Z"/><path class="cls-2" d="M1314.53,253.22v88.57h43.49v-88.57h-43.49Zm24.53,6.05h12.9v65.79h-12.9v-65.79Zm-18.48,0h12.9v65.79h-12.9v-65.79Z"/></g><g><path class="cls-1" d="M1240.05,54.72h2.84v-5.49h-22.73v5.49h2.84v17.91l-58.24-52.33-118.21,106.16-.2,20.31,14.76-11.57h20.5v201.72c0,4.7-3.81,8.52-8.52,8.52h0v8.29h183.34v-8.29h0c-4.7,0-8.52-3.81-8.52-8.52V135.2h20.44v-.05l14.82,11.62,.73-19.42-43.86-39.41V54.72Z"/><path class="cls-2" d="M1078.94,125.23c3.44-3.41,6.9-6.8,10.37-10.18,3.46-3.39,6.95-6.75,10.42-10.12,1.75-1.68,3.45-3.4,5.26-5,1.81-1.6,3.59-3.24,5.38-4.87l10.73-9.78,42.92-39.11,.75-.69,.75,.69,34.18,31.04,17.09,15.52c.72,.64,1.45,1.26,2.13,1.95l2.04,2.05,4.08,4.1,4.06,4.12,4.03,4.14-4.51-3.62-4.49-3.64-4.47-3.67-2.23-1.83c-.75-.6-1.44-1.28-2.14-1.93l-17.09-15.52-34.18-31.04h1.51s-42.92,39.11-42.92,39.11l-10.73,9.78c-1.79,1.63-3.58,3.25-5.35,4.91-1.76,1.66-3.64,3.2-5.47,4.78-3.68,3.15-7.34,6.31-11.04,9.44-3.69,3.14-7.38,6.27-11.09,9.38Z"/><rect class="cls-2" x="1110.87" y="174.48" width="8.95" height="9.47"/><rect class="cls-2" x="1110.87" y="163.62" width="8.95" height="9.47"/><rect class="cls-2" x="1132.08" y="158.72" width="9.47" height="3.5"/><rect class="cls-2" x="1121.21" y="158.72" width="9.47" height="3.5"/><rect class="cls-2" x="1110.87" y="158.72" width="8.95" height="3.5"/><rect class="cls-2" x="1142.94" y="174.48" width="8.73" height="9.47"/><rect class="cls-2" x="1142.94" y="163.62" width="8.73" height="9.47"/><rect class="cls-2" x="1142.94" y="158.72" width="8.73" height="3.5"/><rect class="cls-2" x="1121.21" y="163.62" width="9.47" height="9.47"/><rect class="cls-2" x="1132.08" y="174.48" width="9.47" height="9.47"/><rect class="cls-2" x="1142.94" y="185.35" width="8.73" height="14.18"/><rect class="cls-2" x="1132.08" y="163.62" width="9.47" height="9.47"/><rect class="cls-2" x="1110.87" y="185.35" width="8.95" height="14.18"/><rect class="cls-2" x="1132.08" y="185.35" width="9.47" height="14.18"/><rect class="cls-2" x="1121.21" y="185.35" width="9.47" height="14.18"/><rect class="cls-2" x="1121.21" y="174.48" width="9.47" height="9.47"/><rect class="cls-2" x="1132.08" y="152.75" width="9.47" height="3.72"/><rect class="cls-2" x="1121.21" y="152.75" width="9.47" height="3.72"/><rect class="cls-2" x="1121.21" y="141.88" width="9.47" height="9.47"/><path class="cls-2" d="M1130.69,140.49v-5.29c-3.44,.1-6.66,1.04-9.47,2.64v2.65h9.47Z"/><rect class="cls-2" x="1132.08" y="141.88" width="9.47" height="9.47"/><path class="cls-2" d="M1110.87,156.47h8.95v-3.72h-8.75c-.13,.93-.2,1.88-.2,2.84v.88Z"/><path class="cls-2" d="M1119.82,138.71c-.8,.54-1.56,1.14-2.27,1.79h2.27v-1.79Z"/><path class="cls-2" d="M1119.82,141.88h-3.66c-2.38,2.62-4.09,5.87-4.85,9.47h8.51v-9.47Z"/><path class="cls-2" d="M1141.55,140.49v-2.52c-2.8-1.64-6.03-2.63-9.47-2.76v5.28h9.47Z"/><path class="cls-2" d="M1144.99,140.49c-.64-.59-1.33-1.13-2.04-1.63v1.63h2.04Z"/><path class="cls-2" d="M1142.94,156.47h8.73v-.88c0-.97-.07-1.91-.2-2.84h-8.53v3.72Z"/><path class="cls-2" d="M1142.94,151.36h8.29c-.76-3.6-2.47-6.85-4.85-9.47h-3.44v9.47Z"/><rect class="cls-2" x="1110.2" y="274.89" width="8.95" height="9.47"/><rect class="cls-2" x="1110.2" y="264.03" width="8.95" height="9.47"/><rect class="cls-2" x="1131.41" y="259.13" width="9.47" height="3.5"/><rect class="cls-2" x="1120.54" y="259.13" width="9.47" height="3.5"/><rect class="cls-2" x="1110.2" y="259.13" width="8.95" height="3.5"/><rect class="cls-2" x="1142.27" y="274.89" width="8.73" height="9.47"/><rect class="cls-2" x="1142.27" y="264.03" width="8.73" height="9.47"/><rect class="cls-2" x="1142.27" y="259.13" width="8.73" height="3.5"/><rect class="cls-2" x="1120.54" y="264.03" width="9.47" height="9.47"/><rect class="cls-2" x="1131.41" y="274.89" width="9.47" height="9.47"/><rect class="cls-2" x="1142.27" y="285.76" width="8.73" height="14.18"/><rect class="cls-2" x="1131.41" y="264.03" width="9.47" height="9.47"/><rect class="cls-2" x="1110.2" y="285.76" width="8.95" height="14.18"/><rect class="cls-2" x="1131.41" y="285.76" width="9.47" height="14.18"/><rect class="cls-2" x="1120.54" y="285.76" width="9.47" height="14.18"/><rect class="cls-2" x="1120.54" y="274.89" width="9.47" height="9.47"/><rect class="cls-2" x="1131.41" y="253.16" width="9.47" height="3.72"/><rect class="cls-2" x="1120.54" y="253.16" width="9.47" height="3.72"/><rect class="cls-2" x="1120.54" y="242.29" width="9.47" height="9.47"/><path class="cls-2" d="M1130.01,240.9v-5.29c-3.44,.1-6.66,1.04-9.47,2.64v2.65h9.47Z"/><rect class="cls-2" x="1131.41" y="242.29" width="9.47" height="9.47"/><path class="cls-2" d="M1110.2,256.88h8.95v-3.72h-8.75c-.13,.93-.2,1.88-.2,2.84v.88Z"/><path class="cls-2" d="M1119.15,239.12c-.8,.54-1.56,1.14-2.27,1.79h2.27v-1.79Z"/><path class="cls-2" d="M1119.15,242.29h-3.66c-2.38,2.62-4.09,5.87-4.85,9.47h8.51v-9.47Z"/><path class="cls-2" d="M1140.88,240.9v-2.52c-2.8-1.64-6.03-2.63-9.47-2.76v5.28h9.47Z"/><path class="cls-2" d="M1144.32,240.9c-.64-.59-1.33-1.13-2.04-1.63v1.63h2.04Z"/><path class="cls-2" d="M1142.27,256.88h8.73v-.88c0-.97-.07-1.91-.2-2.84h-8.53v3.72Z"/><path class="cls-2" d="M1142.27,251.77h8.29c-.76-3.6-2.47-6.85-4.85-9.47h-3.44v9.47Z"/><rect class="cls-2" x="1179.45" y="174.48" width="8.95" height="9.47"/><rect class="cls-2" x="1179.45" y="163.62" width="8.95" height="9.47"/><rect class="cls-2" x="1200.66" y="158.72" width="9.47" height="3.5"/><rect class="cls-2" x="1189.8" y="158.72" width="9.47" height="3.5"/><rect class="cls-2" x="1179.45" y="158.72" width="8.95" height="3.5"/><rect class="cls-2" x="1211.53" y="174.48" width="8.73" height="9.47"/><rect class="cls-2" x="1211.53" y="163.62" width="8.73" height="9.47"/><rect class="cls-2" x="1211.53" y="158.72" width="8.73" height="3.5"/><rect class="cls-2" x="1189.8" y="163.62" width="9.47" height="9.47"/><rect class="cls-2" x="1200.66" y="174.48" width="9.47" height="9.47"/><rect class="cls-2" x="1211.53" y="185.35" width="8.73" height="14.18"/><rect class="cls-2" x="1200.66" y="163.62" width="9.47" height="9.47"/><rect class="cls-2" x="1179.45" y="185.35" width="8.95" height="14.18"/><rect class="cls-2" x="1200.66" y="185.35" width="9.47" height="14.18"/><rect class="cls-2" x="1189.8" y="185.35" width="9.47" height="14.18"/><rect class="cls-2" x="1189.8" y="174.48" width="9.47" height="9.47"/><rect class="cls-2" x="1200.66" y="152.75" width="9.47" height="3.72"/><rect class="cls-2" x="1189.8" y="152.75" width="9.47" height="3.72"/><rect class="cls-2" x="1189.8" y="141.88" width="9.47" height="9.47"/><path class="cls-2" d="M1199.27,140.49v-5.29c-3.44,.1-6.66,1.04-9.47,2.64v2.65h9.47Z"/><rect class="cls-2" x="1200.66" y="141.88" width="9.47" height="9.47"/><path class="cls-2" d="M1179.45,156.47h8.95v-3.72h-8.75c-.13,.93-.2,1.88-.2,2.84v.88Z"/><path class="cls-2" d="M1188.4,138.71c-.8,.54-1.56,1.14-2.27,1.79h2.27v-1.79Z"/><path class="cls-2" d="M1188.4,141.88h-3.66c-2.38,2.62-4.09,5.87-4.85,9.47h8.51v-9.47Z"/><path class="cls-2" d="M1210.13,140.49v-2.52c-2.8-1.64-6.03-2.63-9.47-2.76v5.28h9.47Z"/><path class="cls-2" d="M1213.57,140.49c-.64-.59-1.33-1.13-2.04-1.63v1.63h2.04Z"/><path class="cls-2" d="M1211.53,156.47h8.73v-.88c0-.97-.07-1.91-.2-2.84h-8.53v3.72Z"/><path class="cls-2" d="M1211.53,151.36h8.29c-.76-3.6-2.47-6.85-4.85-9.47h-3.44v9.47Z"/><path class="cls-2" d="M1154.05,79.74c-3.66,4.89-3.66,11.64,0,16.53l8.26-8.26-8.26-8.26Z"/><path class="cls-2" d="M1176.09,96.39c3.78-4.94,3.78-11.84,0-16.77l-8.39,8.39,8.39,8.39Z"/><path class="cls-2" d="M1173.38,76.93c-4.93-3.69-11.75-3.66-16.65,.09l8.28,8.28,8.37-8.37Z"/><path class="cls-2" d="M1156.73,98.98c4.89,3.75,11.72,3.78,16.65,.09l-8.37-8.37-8.28,8.28Z"/><path class="cls-2" d="M1153.73,99.39c-6.28-6.28-6.28-16.49,0-22.77s16.49-6.28,22.77,0c6.28,6.28,6.28,16.49,0,22.77-6.28,6.28-16.49,6.28-22.77,0Zm22.02-22.02c-5.86-5.86-15.4-5.86-21.26,0-5.86,5.86-5.86,15.4,0,21.26,5.86,5.86,15.4,5.86,21.26,0,5.86-5.86,5.86-15.4,0-21.26Z"/><path class="cls-2" d="M1180.58,235.61v109.38h39.29v-109.38h-39.29Zm17.13,39.74h-11.66v-24.29c0-4.4,2.61-7.97,5.83-7.97h0c3.22,0,5.83,3.57,5.83,7.97v24.29Zm16.7,0h-11.66v-24.29c0-4.4,2.61-7.97,5.83-7.97h0c3.22,0,5.83,3.57,5.83,7.97v24.29Z"/></g><g><polygon class="cls-1" points="1850.67 15.39 1854.17 15.39 1854.17 8.64 1826.19 8.64 1826.19 15.39 1829.69 15.39 1829.69 35.28 1791 0 1790.8 .18 1790.61 0 1669.57 110.38 1669.96 110.38 1697.51 110.38 1697.51 161.63 1663.93 131 1663.73 131.18 1663.53 131 1638.55 153.78 1638.55 136.77 1642.05 136.77 1642.05 130.02 1614.08 130.02 1614.08 136.77 1617.57 136.77 1617.57 172.92 1554.99 229.99 1555.38 229.99 1600.88 229.99 1600.88 336.05 1596.36 336.05 1595.97 336.05 1595.97 342.34 1588.9 342.34 1588.51 342.34 1588.51 353.73 1588.9 353.73 1889.99 353.73 1890.38 353.73 1890.38 342.34 1889.99 342.34 1882.92 342.34 1882.92 336.05 1882.53 336.05 1878.01 336.05 1878.01 110.38 1911.65 110.38 1912.04 110.38 1850.67 54.42 1850.67 15.39"/><path class="cls-2" d="M1598.23,215.95c5.28-5.21,10.6-10.38,15.93-15.54,1.34-1.28,2.65-2.6,4.03-3.83,1.38-1.23,2.74-2.49,4.11-3.74l8.2-7.51,32.8-30.05,.53-.48,.53,.48,34.76,31.23,17.38,15.61c.73,.64,1.47,1.28,2.17,1.96l2.1,2.03,4.21,4.06,4.19,4.07,4.18,4.09-4.51-3.72-4.5-3.74-4.48-3.75-2.24-1.88c-.75-.62-1.46-1.29-2.18-1.95l-17.38-15.62-34.76-31.23h1.06s-32.8,30.04-32.8,30.04l-8.2,7.51c-1.37,1.25-2.74,2.5-4.09,3.77-1.35,1.27-2.77,2.46-4.17,3.68-5.6,4.86-11.22,9.71-16.87,14.51Z"/><path class="cls-2" d="M1709.39,101.84c6.55-6.52,13.15-13,19.75-19.46,1.65-1.61,3.28-3.25,4.99-4.81,1.7-1.56,3.38-3.15,5.07-4.73l10.11-9.48,40.46-37.91,.53-.5,.54,.49,40.26,36.92,20.13,18.46c.85,.76,1.7,1.52,2.51,2.31l2.45,2.38,4.9,4.77,4.88,4.78,4.86,4.8-5.2-4.43-5.19-4.45-5.17-4.47-2.59-2.23c-.86-.74-1.69-1.53-2.52-2.3l-20.13-18.46-40.26-36.92h1.07s-40.46,37.9-40.46,37.9l-10.11,9.48c-1.68,1.58-3.38,3.15-5.05,4.75-1.67,1.6-3.41,3.12-5.13,4.66-6.88,6.17-13.77,12.33-20.71,18.44Z"/><rect class="cls-2" x="1804.99" y="125.11" width="9.41" height="16.84"/><rect class="cls-2" x="1804.99" y="172.61" width="9.41" height="8.55"/><rect class="cls-2" x="1815.65" y="125.11" width="10.07" height="16.84"/><rect class="cls-2" x="1804.99" y="182.42" width="9.41" height="8.29"/><rect class="cls-2" x="1804.99" y="162.81" width="9.41" height="8.55"/><rect class="cls-2" x="1804.99" y="143.21" width="9.41" height="8.55"/><rect class="cls-2" x="1815.65" y="182.42" width="10.07" height="8.29"/><rect class="cls-2" x="1804.99" y="153.01" width="9.41" height="8.55"/><rect class="cls-2" x="1815.65" y="143.21" width="10.07" height="8.55"/><rect class="cls-2" x="1815.65" y="162.81" width="10.07" height="8.55"/><rect class="cls-2" x="1815.65" y="172.61" width="10.07" height="8.55"/><rect class="cls-2" x="1815.65" y="153.01" width="10.07" height="8.55"/><rect class="cls-2" x="1829.15" y="125.11" width="9.74" height="16.84"/><rect class="cls-2" x="1829.15" y="153.01" width="9.74" height="8.55"/><rect class="cls-2" x="1829.15" y="143.21" width="9.74" height="8.55"/><rect class="cls-2" x="1829.15" y="182.42" width="9.74" height="8.29"/><rect class="cls-2" x="1840.14" y="125.11" width="9.74" height="16.84"/><rect class="cls-2" x="1840.14" y="182.42" width="9.74" height="8.29"/><rect class="cls-2" x="1840.14" y="172.61" width="9.74" height="8.55"/><rect class="cls-2" x="1829.15" y="172.61" width="9.74" height="8.55"/><rect class="cls-2" x="1840.14" y="162.81" width="9.74" height="8.55"/><rect class="cls-2" x="1840.14" y="153.01" width="9.74" height="8.55"/><rect class="cls-2" x="1840.14" y="143.21" width="9.74" height="8.55"/><rect class="cls-2" x="1829.15" y="162.81" width="9.74" height="8.55"/><rect class="cls-2" x="1641.18" y="240.6" width="9.41" height="16.84"/><rect class="cls-2" x="1641.18" y="288.1" width="9.41" height="8.55"/><rect class="cls-2" x="1651.85" y="240.6" width="10.07" height="16.84"/><rect class="cls-2" x="1641.18" y="297.9" width="9.41" height="8.29"/><rect class="cls-2" x="1641.18" y="278.3" width="9.41" height="8.55"/><rect class="cls-2" x="1641.18" y="258.69" width="9.41" height="8.55"/><rect class="cls-2" x="1651.85" y="297.9" width="10.07" height="8.29"/><rect class="cls-2" x="1641.18" y="268.5" width="9.41" height="8.55"/><rect class="cls-2" x="1651.85" y="258.69" width="10.07" height="8.55"/><rect class="cls-2" x="1651.85" y="278.3" width="10.07" height="8.55"/><rect class="cls-2" x="1651.85" y="288.1" width="10.07" height="8.55"/><rect class="cls-2" x="1651.85" y="268.5" width="10.07" height="8.55"/><rect class="cls-2" x="1665.34" y="240.6" width="9.74" height="16.84"/><rect class="cls-2" x="1665.34" y="268.5" width="9.74" height="8.55"/><rect class="cls-2" x="1665.34" y="258.69" width="9.74" height="8.55"/><rect class="cls-2" x="1665.34" y="297.9" width="9.74" height="8.29"/><rect class="cls-2" x="1676.34" y="240.6" width="9.74" height="16.84"/><rect class="cls-2" x="1676.34" y="297.9" width="9.74" height="8.29"/><rect class="cls-2" x="1676.34" y="288.1" width="9.74" height="8.55"/><rect class="cls-2" x="1665.34" y="288.1" width="9.74" height="8.55"/><rect class="cls-2" x="1676.34" y="278.3" width="9.74" height="8.55"/><rect class="cls-2" x="1676.34" y="268.5" width="9.74" height="8.55"/><rect class="cls-2" x="1676.34" y="258.69" width="9.74" height="8.55"/><rect class="cls-2" x="1665.34" y="278.3" width="9.74" height="8.55"/><rect class="cls-2" x="1804.4" y="239.42" width="9.41" height="16.84"/><rect class="cls-2" x="1804.4" y="286.92" width="9.41" height="8.55"/><rect class="cls-2" x="1815.06" y="239.42" width="10.07" height="16.84"/><rect class="cls-2" x="1804.4" y="296.72" width="9.41" height="8.29"/><rect class="cls-2" x="1804.4" y="277.12" width="9.41" height="8.55"/><rect class="cls-2" x="1804.4" y="257.52" width="9.41" height="8.55"/><rect class="cls-2" x="1815.06" y="296.72" width="10.07" height="8.29"/><rect class="cls-2" x="1804.4" y="267.32" width="9.41" height="8.55"/><rect class="cls-2" x="1815.06" y="257.52" width="10.07" height="8.55"/><rect class="cls-2" x="1815.06" y="277.12" width="10.07" height="8.55"/><rect class="cls-2" x="1815.06" y="286.92" width="10.07" height="8.55"/><rect class="cls-2" x="1815.06" y="267.32" width="10.07" height="8.55"/><rect class="cls-2" x="1828.56" y="239.42" width="9.74" height="16.84"/><rect class="cls-2" x="1828.56" y="267.32" width="9.74" height="8.55"/><rect class="cls-2" x="1828.56" y="257.52" width="9.74" height="8.55"/><rect class="cls-2" x="1828.56" y="296.72" width="9.74" height="8.29"/><rect class="cls-2" x="1839.55" y="239.42" width="9.74" height="16.84"/><rect class="cls-2" x="1839.55" y="296.72" width="9.74" height="8.29"/><rect class="cls-2" x="1839.55" y="286.92" width="9.74" height="8.55"/><rect class="cls-2" x="1828.56" y="286.92" width="9.74" height="8.55"/><rect class="cls-2" x="1839.55" y="277.12" width="9.74" height="8.55"/><rect class="cls-2" x="1839.55" y="267.32" width="9.74" height="8.55"/><rect class="cls-2" x="1839.55" y="257.52" width="9.74" height="8.55"/><rect class="cls-2" x="1828.56" y="277.12" width="9.74" height="8.55"/><rect class="cls-2" x="1729.37" y="124.52" width="9.41" height="16.84"/><rect class="cls-2" x="1729.37" y="172.02" width="9.41" height="8.55"/><rect class="cls-2" x="1740.04" y="124.52" width="10.07" height="16.84"/><rect class="cls-2" x="1729.37" y="181.83" width="9.41" height="8.29"/><rect class="cls-2" x="1729.37" y="162.22" width="9.41" height="8.55"/><rect class="cls-2" x="1729.37" y="142.62" width="9.41" height="8.55"/><rect class="cls-2" x="1740.04" y="181.83" width="10.07" height="8.29"/><rect class="cls-2" x="1729.37" y="152.42" width="9.41" height="8.55"/><rect class="cls-2" x="1740.04" y="142.62" width="10.07" height="8.55"/><rect class="cls-2" x="1740.04" y="162.22" width="10.07" height="8.55"/><rect class="cls-2" x="1740.04" y="172.02" width="10.07" height="8.55"/><rect class="cls-2" x="1740.04" y="152.42" width="10.07" height="8.55"/><rect class="cls-2" x="1753.53" y="124.52" width="9.74" height="16.84"/><rect class="cls-2" x="1753.53" y="152.42" width="9.74" height="8.55"/><rect class="cls-2" x="1753.53" y="142.62" width="9.74" height="8.55"/><rect class="cls-2" x="1753.53" y="181.83" width="9.74" height="8.29"/><rect class="cls-2" x="1764.53" y="124.52" width="9.74" height="16.84"/><rect class="cls-2" x="1764.53" y="181.83" width="9.74" height="8.29"/><rect class="cls-2" x="1764.53" y="172.02" width="9.74" height="8.55"/><rect class="cls-2" x="1753.53" y="172.02" width="9.74" height="8.55"/><rect class="cls-2" x="1764.53" y="162.22" width="9.74" height="8.55"/><rect class="cls-2" x="1764.53" y="152.42" width="9.74" height="8.55"/><rect class="cls-2" x="1764.53" y="142.62" width="9.74" height="8.55"/><rect class="cls-2" x="1753.53" y="162.22" width="9.74" height="8.55"/><path class="cls-2" d="M1780.38,74.28c.66,4.6,4.3,8.25,8.91,8.91v-8.91h-8.91Z"/><path class="cls-2" d="M1801.24,71.37c-.62-4.7-4.34-8.42-9.04-9.04v9.04h9.04Z"/><path class="cls-2" d="M1789.29,62.35c-4.64,.67-8.31,4.37-8.93,9.03h8.93v-9.03Z"/><path class="cls-2" d="M1792.2,83.21c4.66-.62,8.36-4.28,9.03-8.93h-9.03v8.93Z"/><path class="cls-2" d="M1790.8,85.04c-6.77,0-12.28-5.51-12.28-12.28s5.51-12.28,12.28-12.28,12.28,5.51,12.28,12.28-5.51,12.28-12.28,12.28Zm0-23.74c-6.32,0-11.46,5.14-11.46,11.46s5.14,11.46,11.46,11.46,11.46-5.14,11.46-11.46-5.14-11.46-11.46-11.46Z"/><path class="cls-2" d="M1730.47,258.15v82.02h33.63v-82.02h-33.63Zm15.49,52.22h-9.59v-9.59h9.59v9.59Zm0-12.24h-9.59v-9.59h9.59v9.59Zm0-12.24h-9.59v-9.59h9.59v9.59Zm0-12.24h-9.59v-9.59h9.59v9.59Zm12.24,36.73h-9.59v-9.59h9.59v9.59Zm0-12.24h-9.59v-9.59h9.59v9.59Zm0-12.24h-9.59v-9.59h9.59v9.59Zm0-12.24h-9.59v-9.59h9.59v9.59Z"/><path class="cls-2" d="M1747.21,239.42c-9.29,0-16.82,7.53-16.82,16.82v.3h33.63v-.3c0-9.29-7.53-16.82-16.82-16.82Zm-1.18,10.4l-4.12-4.12c1.26-.64,2.65-1.05,4.12-1.2v5.32Zm2.51-5.31c1.49,.17,2.9,.61,4.17,1.29l-4.17,4.17v-5.45Zm-8.78,2.58l4.42,4.42h-7.79c.76-1.73,1.92-3.24,3.37-4.42Zm10.77,4.42l4.29-4.29c1.37,1.16,2.47,2.62,3.2,4.29h-7.49Z"/></g><rect class="cls-1" y="351.2" width="1920" height="32.58"/></g></g></svg>