<?xml version="1.0" encoding="UTF-8"?><svg id="Layer_2" xmlns="http://www.w3.org/2000/svg" viewBox="0 0 50 50"><defs><style>.cls-1{fill:#fff;}</style></defs><g id="Layer_1-2"><g><path class="cls-1" d="M24.98,19.78c-2.82,0-5.14,2.32-5.15,5.14-.01,2.84,2.3,5.17,5.14,5.18,2.84,0,5.17-2.31,5.18-5.15,0-2.82-2.35-5.17-5.17-5.17Z"/><path class="cls-1" d="M37.76,17.58c-.25-1.82-1.01-3.35-2.61-4.36-1.04-.65-2.2-.92-3.42-.92-4.42,0-8.85,0-13.27,0-.36,0-.72,.02-1.08,.07-2.22,.31-3.86,1.4-4.68,3.55-.33,.87-.44,1.78-.44,2.7,0,4.23,0,8.45,0,12.68,0,.54,.04,1.09,.13,1.63,.37,2.09,1.49,3.59,3.52,4.35,.87,.32,1.78,.44,2.7,.45,2.11,0,4.23,0,6.34,0,1.97,0,3.95,0,5.92,0,.48,0,.95,0,1.43-.05,2.31-.25,4.05-1.32,5.01-3.51,.39-.9,.52-1.85,.51-2.82,0-4.15,0-8.29,0-12.44,0-.44,0-.89-.07-1.32Zm-12.8,15.42c-4.46,0-8.04-3.62-8.03-8.09,.02-4.43,3.64-8.03,8.07-8.02,4.42,.01,8.04,3.65,8.03,8.06,0,4.45-3.63,8.05-8.08,8.04Zm8.39-14.48c-1.01,0-1.81-.81-1.81-1.82,0-1.02,.82-1.83,1.85-1.82,1,.01,1.81,.84,1.8,1.84-.01,1-.83,1.8-1.84,1.8Z"/><path class="cls-1" d="M25,0C11.19,0,0,11.19,0,25s11.19,25,25,25,25-11.19,25-25S38.81,0,25,0Zm15.62,31.82c-.02,.19-.05,.39-.07,.58-.14,1.83-.68,3.53-1.85,4.98-1.74,2.16-4.08,3.11-6.79,3.21-1.68,.06-3.37,.02-5.05,.02-2.89,0-5.78,.02-8.67-.01-2.08-.02-3.98-.63-5.61-1.95-2.16-1.76-3.15-4.1-3.18-6.83-.05-4.49-.02-8.99,0-13.48,0-.58,.06-1.16,.15-1.73,.53-3.52,3.13-6.26,6.61-6.95,.6-.12,1.21-.19,1.82-.28h14.01c.35,.05,.71,.09,1.06,.14,3.54,.44,6.39,2.96,7.23,6.42,.18,.75,.24,1.53,.35,2.29v13.59Z"/></g></g></svg>