<?xml version="1.0" encoding="UTF-8"?><svg id="Layer_2" xmlns="http://www.w3.org/2000/svg" viewBox="0 0 50 50"><defs><style>.cls-1{fill:#fff;}</style></defs><g id="Layer_1-2"><g id="rj57qH.tif"><path class="cls-1" d="M23.44,0c1.04,0,2.08,0,3.12,0,.13,.03,.25,.07,.38,.08,3.77,.28,7.32,1.34,10.56,3.28,6.62,3.96,10.69,9.73,12.12,17.33,.17,.91,.26,1.83,.38,2.75v3.12c-.03,.13-.07,.25-.08,.38-.33,4.29-1.65,8.24-4.05,11.81-3.98,5.91-9.49,9.56-16.51,10.87-.92,.17-1.86,.26-2.79,.39h-3.12c-.12-.03-.25-.07-.38-.08-4.98-.4-9.46-2.1-13.39-5.19C4.62,40.76,1.5,35.6,.37,29.26c-.16-.89-.25-1.8-.37-2.7,0-1.04,0-2.08,0-3.12,.07-.59,.13-1.19,.22-1.78,.72-5.08,2.76-9.56,6.21-13.37C10.29,4.02,15.06,1.36,20.74,.38c.89-.15,1.8-.25,2.7-.38Zm8.99,37.68h5.64c.01-.1,.02-.16,.02-.22,0-3.38,.04-6.77-.04-10.15-.02-1.02-.25-2.08-.59-3.04-.83-2.33-2.56-3.63-5.01-3.9-2.33-.26-4.32,.39-5.72,2.38-.06,.08-.13,.15-.29,.33v-2.33h-5.61v16.94h5.63c0-.22,0-.39,0-.57,0-3.01,0-6.02,0-9.03,0-.98,.33-1.82,1.03-2.49,1.64-1.56,4.17-.86,4.72,1.33,.15,.59,.2,1.22,.2,1.83,.02,2.8,0,5.6,0,8.4,0,.17,0,.35,0,.54Zm-14.79,.02V20.74h-5.6v16.96h5.6Zm-2.8-19.33c1.81,0,3.06-1.08,3.2-2.74,.13-1.54-.96-2.83-2.61-3.1-1.61-.26-3.13,.56-3.6,1.93-.69,2.03,.76,3.92,3.01,3.91Z"/></g></g></svg>