<?xml version="1.0" encoding="UTF-8"?><svg id="Layer_2" xmlns="http://www.w3.org/2000/svg" viewBox="0 0 50 50"><defs><style>.cls-1{fill:#002752;}.cls-2{fill:#a4f950;}</style></defs><g id="Layer_1-2"><g><circle class="cls-2" cx="25" cy="25" r="25"/><g id="r6qQnM.tif"><path class="cls-1" d="M24.44,10.45c.37,0,.74,0,1.12,0,.05,0,.1,.02,.15,.03,.39,.05,.78,.07,1.17,.14,2.94,.54,5.29,2.04,7.06,4.44,1.19,1.61,1.88,3.43,2.12,5.42,.1,.87,.13,1.74-.04,2.61-.22,1.16-.63,2.26-1.12,3.34-.93,2.05-2.09,3.97-3.34,5.84-1.83,2.74-3.83,5.34-5.94,7.86-.2,.24-.41,.48-.62,.73-.05-.06-.1-.1-.13-.15-.88-1.07-1.77-2.13-2.63-3.22-1.97-2.5-3.82-5.08-5.44-7.82-.86-1.45-1.63-2.95-2.24-4.52-.67-1.72-.88-3.48-.54-5.31,.56-2.97,2.01-5.39,4.42-7.21,1.54-1.17,3.29-1.86,5.21-2.1,.26-.03,.52-.06,.78-.09Zm6.14,10.46c0-1.26-.39-2.5-1.24-3.59-1.82-2.34-5.16-2.82-7.56-1.08-2.03,1.47-2.86,4.11-2.05,6.53,.99,2.98,4.21,4.55,7.14,3.5,2.16-.78,3.63-2.86,3.7-5.36Z"/></g></g></g></svg>