<?xml version="1.0" encoding="UTF-8"?><svg id="Layer_2" xmlns="http://www.w3.org/2000/svg" viewBox="0 0 40.7 50"><defs><style>.cls-1{fill:#5dcc38;}</style></defs><g id="Layer_1-2"><g id="nmkW0e"><g><path class="cls-1" d="M2.67,42.41c-.58-.15-1.09-.2-1.53-.41-.69-.32-1.05-.93-1.11-1.7,0-.11-.02-.22-.02-.33,0-4.22,.01-8.44,0-12.66,0-1.44,1.01-2.22,1.93-2.3,.23-.02,.46,0,.74,0,0-.22,0-.4,0-.57,0-6.35,0-12.7,0-19.06,0-2.39,1.43-4.38,3.69-5.11C6.88,.1,7.45,.01,8,.01,14.59,0,21.17,0,27.76,0c.18,0,.4,.09,.53,.22,4.07,4.04,8.14,8.09,12.19,12.15,.13,.13,.22,.35,.22,.53,0,10.56,.02,21.12,0,31.68,0,3.14-2.33,5.41-5.47,5.41-9.03,0-18.06,0-27.09,0-3.14,0-5.46-2.32-5.47-5.46,0-.73,0-1.47,0-2.13Zm3.26-.12c0,.75,0,1.43,0,2.11,0,1.51,.83,2.34,2.33,2.34,8.96,0,17.92,0,26.88,0,1.48,0,2.31-.84,2.31-2.32-.02-10.03-.05-20.05-.08-30.08,0-.15-.01-.29-.02-.47-.19,0-.33,0-.48,0-2.01,0-4.02,.01-6.02,.03-.91,0-1.76-.18-2.5-.75-1.06-.81-1.49-1.91-1.49-3.21,0-2.06,0-4.13,0-6.19,0-.16,0-.32,0-.52-.19,0-.33,0-.46,0-6.04,0-12.08,.01-18.11,.02-1.53,0-2.35,.82-2.35,2.36,0,6.3,0,12.59,0,18.89,0,.15,0,.29,0,.48h.57c8.25,0,16.5,0,24.75,0,1.49,0,2.38,.88,2.38,2.37,0,4.19,0,8.39,0,12.58,0,.55-.11,1.06-.46,1.5-.5,.63-1.16,.85-1.94,.85-8.24,0-16.47,0-24.71,0h-.58Zm7.51-3.94c1.58,.17,3.1,.22,4.61-.14,1.38-.34,2.42-1.11,2.96-2.46,.41-1,.47-2.05,.28-3.1-.26-1.49-1.15-2.47-2.57-2.97-1.36-.47-2.77-.4-4.17-.31-.37,.03-.75,.09-1.11,.13v8.84Zm-7.78-8.86v8.86h2.02v-3.18c.2,0,.34,.02,.49,.02,.81,.02,1.6-.08,2.35-.43,1-.46,1.62-1.49,1.58-2.7-.04-1.19-.68-2.1-1.76-2.46-1.54-.51-3.1-.27-4.69-.12Zm17.11-.08v8.95h2.02v-3.6h3.2v-1.66h-3.18v-2.05h3.42v-1.63h-5.46Z"/><path class="cls-1" d="M15.45,33.87c0-.86,0-1.72,0-2.58,0-.12,.1-.33,.2-.36,1.02-.33,2.53,.17,3.08,1.03,.53,.83,.55,1.75,.37,2.69-.36,1.87-1.89,2.36-3.42,2.2-.09,0-.23-.21-.23-.32-.02-.89-.01-1.77-.01-2.66Z"/><path class="cls-1" d="M7.65,33.67c0-.93,0-1.72,.01-2.51,0-.1,.16-.27,.25-.27,.36-.03,.74-.05,1.1,.02,.66,.12,1.02,.54,1.07,1.16,.05,.62-.26,1.21-.86,1.39-.48,.15-1,.15-1.57,.22Z"/></g></g></g></svg>