<?xml version="1.0" encoding="UTF-8"?><svg id="Layer_2" xmlns="http://www.w3.org/2000/svg" viewBox="0 0 50 50"><defs><style>.cls-1{fill:#002752;}.cls-2{fill:#a4f950;}</style></defs><g id="Layer_1-2"><g><circle class="cls-2" cx="25" cy="25" r="25"/><g id="NINViD.tif"><path class="cls-1" d="M33.12,38.85c-1.2,0-2.33-.33-3.44-.74-1.84-.67-3.69-1.31-5.35-2.39-2.39-1.55-4.47-3.47-6.37-5.58-1.54-1.71-2.95-3.52-3.85-5.66-.6-1.41-1.12-2.86-1.6-4.31-.76-2.31-.31-4.45,.9-6.52,.83-1.43,2.01-2.21,3.62-2.4,.19-.02,.39-.04,.58-.08,.63-.12,1.05,.14,1.34,.7,.37,.71,.76,1.41,1.16,2.1,.55,.95,1.11,1.9,1.69,2.83,.55,.9,.55,1.28-.21,2.02-.53,.52-1.13,.97-1.69,1.46-.24,.21-.49,.42-.71,.65-.66,.66-.72,.97-.25,1.79,.41,.73,.84,1.45,1.28,2.15,1.74,2.74,4.04,4.87,6.86,6.47,.51,.29,1.02,.57,1.53,.84,.44,.23,.86,.15,1.19-.21,.48-.52,.94-1.07,1.41-1.6,.34-.38,.66-.77,1.02-1.11,.69-.64,1.03-.65,1.84-.17,1.37,.81,2.74,1.61,4.12,2.41,.39,.23,.78,.44,1.16,.67,.33,.2,.49,.49,.46,.89-.06,.95-.23,1.88-.66,2.72-.22,.43-.6,.81-.98,1.12-1.48,1.21-3.4,1.92-5.05,1.91Z"/></g></g></g></svg>