<?xml version="1.0" encoding="UTF-8"?><svg id="Layer_2" xmlns="http://www.w3.org/2000/svg" xmlns:xlink="http://www.w3.org/1999/xlink" viewBox="0 0 265.41 265.41"><defs><style>.cls-1{fill:none;}.cls-2{clip-path:url(#clippath);}.cls-3{fill:#633312;}.cls-3,.cls-4,.cls-5,.cls-6{fill-rule:evenodd;}.cls-4{fill:#3da136;}.cls-5{fill:blue;}.cls-6{fill:green;}</style><clipPath id="clippath"><rect class="cls-1" width="265.41" height="265.41"/></clipPath></defs><g id="Layer_1-2"><g class="cls-2"><path class="cls-5" d="M147.93,52.61c-.16-.03-.24-.08-.26-.14-.06-.22-.2-.42-.44-.58l-.11-.1c.56,.36,1.05,.78,1.46,1.26l-.65-.44Zm81.39,40.9c5.39,13.01,8.08,26.56,8.08,40.65s-2.69,27.63-8.08,40.65c-5.39,13.01-13.07,24.5-23.03,34.46-9.96,9.96-21.45,17.64-34.46,23.03-13.01,5.39-26.56,8.08-40.65,8.08s-27.63-2.69-40.65-8.08c-13.01-5.39-24.5-13.07-34.46-23.03-9.96-9.96-17.63-21.45-23.02-34.46-5.39-13.01-8.09-26.56-8.09-40.65s2.7-27.64,8.09-40.65c5.39-13.01,13.07-24.5,23.02-34.46,9.96-9.96,21.45-17.64,34.46-23.02,13.01-5.39,26.56-8.09,40.65-8.09s27.63,2.7,40.65,8.09c13.01,5.39,24.5,13.06,34.46,23.02,9.96,9.96,17.64,21.45,23.03,34.46Zm-141.34-22.74c.13-.32,.29-.51,.46-.57,.26-.07,.51-.28,.74-.62,.15-.23,.28-.37,.4-.4,.14-.04,.31-.15,.53-.32,.21-.17,.34-.31,.39-.42,.07-.18,.15-.28,.22-.29,.1-.03,.24-.11,.43-.26,.18-.15,.33-.3,.45-.46,.14-.22,.24-.34,.31-.37l1.35-1.06,.07-13.8h-23.3v34.72l1.01-.96,.14-.12s.1-.05,.17-.07c.16-.03,.26-.11,.28-.24,0-.07,.1-.19,.26-.35,.16-.16,.32-.28,.46-.36,.29-.15,.47-.27,.54-.36,.27-.41,.48-.66,.64-.74,.29-.13,.49-.27,.57-.39,.19-.33,.38-.54,.57-.64,.38-.18,.61-.35,.7-.49,.13-.29,.29-.48,.47-.56,.33-.13,.56-.29,.68-.49,.2-.37,.33-.58,.41-.62,.51-.22,.82-.43,.93-.61l.21-.36c.53-.29,.86-.54,1-.78,.13-.24,.23-.38,.32-.4,.12-.03,.27-.13,.47-.31,.2-.17,.33-.32,.39-.44,.08-.18,.2-.29,.36-.33l1.23-.88c.14-.23,.3-.44,.49-.64,.19-.2,.34-.32,.46-.36,.14-.04,.22-.13,.25-.26,0-.06,.11-.17,.29-.34,.19-.17,.33-.27,.42-.31,.29-.1,.46-.21,.52-.33,.16-.32,.37-.56,.62-.71,.36-.2,.56-.35,.59-.43,.04-.15,.14-.3,.29-.47,.15-.16,.29-.28,.43-.34,.35-.13,.56-.27,.62-.41,.12-.26,.27-.44,.48-.55,.38-.18,.61-.35,.69-.52Zm98.48-2.22c.12-.08,.25-.15,.4-.2,.27-.1,.57-.15,.92-.15,.53,0,1.2,.16,2.01,.49,.18,.07,.44,.19,.79,.35,.35,.16,.66,.31,.95,.45,2,1,3.56,1.48,4.67,1.45,.98-.02,1.85-.2,2.61-.54,1.17-.51,1.98-1.38,2.44-2.62,.21-.56,.35-1.22,.41-1.97l.05-1.06s-.06,.03-.13,.13l-.29,.38c-1.13,1.43-2.38,2.35-3.76,2.78-.66,.2-1.32,.29-1.99,.26-.37-.01-.79-.07-1.24-.15l-.15-.03c-.49-.1-1.09-.29-1.8-.54-.72-.26-1.26-.43-1.62-.51-.19-.04-.45-.08-.76-.11-.32-.03-.58-.04-.77-.04-1.26,.02-2.11,.4-2.57,1.12-.06,.1-.11,.2-.15,.31-.04,.11-.05,.17-.03,.19,0,0,.02,0,.03,0Zm-15.84-22.95c0,.66-.14,1.34-.41,2.03-.36,.92-.98,1.9-1.87,2.94-.6,.71-1.05,1.37-1.33,1.98-.69,1.5-.72,2.65-.09,3.45,.05,.07,.13,.15,.22,.23,.09,.08,.14,.13,.16,.12,.03,0,.03-.02,.03-.07-.1-.52-.02-1.07,.27-1.64,.22-.45,.59-.95,1.08-1.48l.41-.43,1.02-.99c1.35-1.32,2.23-2.42,2.62-3.29,.07-.16,.14-.35,.22-.58,.07-.23,.13-.44,.17-.62,.12-.56,.18-1.11,.18-1.64,0-.77-.19-1.48-.55-2.13-.49-.88-1.32-1.62-2.48-2.22h0s-.32-.15-.32-.15l-.78-.33c-.15-.06-.23-.09-.23-.08,0,0,0,.03,.03,.07,.87,1.21,1.4,2.42,1.59,3.62,.05,.34,.08,.75,.08,1.21Zm28.32,32.93c-.26,0-.45,0-.58-.01-.95-.08-1.86-.38-2.75-.88-.35-.2-.75-.46-1.21-.8l-1.09-.88c-.41-.33-.76-.58-1.05-.75-.75-.43-1.45-.69-2.11-.79-.92-.13-1.62,.06-2.11,.59-.07,.07-.13,.15-.17,.23l.17-.03c.41-.07,.85-.02,1.32,.17,.38,.16,.83,.45,1.34,.87,.13,.11,.31,.26,.53,.47,.22,.2,.42,.4,.6,.59,1.11,1.14,1.87,1.89,2.29,2.23,.84,.68,1.65,1.14,2.45,1.37l.33,.1c.59,.13,1.14,.2,1.67,.2,1.11,0,2.08-.34,2.89-1.03,.4-.34,.79-.79,1.15-1.35,.1-.15,.21-.34,.33-.58,.12-.23,.22-.46,.3-.65l.21-.51c.07-.15,.1-.23,.09-.24t0,0h-.02s-.12,.08-.21,.15c-.78,.52-1.53,.91-2.25,1.16-.48,.16-1,.29-1.56,.36-.11,.01-.3,.03-.56,.03Zm-23.29-20.83c.04,.08,.06,.13,.07,.13,0,0,.02,0,.03,0,0,0,.02-.02,.02-.03,.06-.35,.24-.69,.55-1.03,.34-.38,.85-.72,1.5-1.01,.46-.21,1.36-.55,2.69-1.01,1.83-.63,3.09-1.32,3.79-2.06,1.09-1.14,1.69-2.32,1.8-3.51,.11-1.29-.35-2.57-1.38-3.83-.09-.11-.16-.19-.21-.25l-.68-.76c0,.07,0,.13,.02,.19,.13,.8,.18,1.51,.15,2.13-.06,1.17-.33,2.19-.81,3.06-.71,1.28-1.96,2.34-3.76,3.19-.91,.43-1.52,.75-1.82,.96-.76,.53-1.33,1.1-1.71,1.7-.42,.67-.54,1.31-.35,1.93,.02,.07,.05,.13,.08,.22Zm-17.83-15.1l-.83-.03c-.11,0-.16,0-.16,0,0,0,0,.01,0,.02,.11,.07,.26,.18,.45,.33,.19,.15,.37,.29,.54,.44,.64,.55,1.14,1.11,1.5,1.69,.3,.47,.53,.93,.7,1.38,.33,.87,.43,1.8,.32,2.8l-.03,.23-.05,.33c-.04,.23-.1,.51-.18,.83-.09,.32-.17,.6-.26,.84-.34,.96-.56,1.61-.64,1.96l-.09,.48c-.02,.11-.04,.29-.06,.53-.02,.24-.03,.43-.03,.58l.03,.42c.07,1.25,.55,2.04,1.42,2.36l.2,.06-.07-.12c-.19-.31-.29-.64-.3-.98-.01-.33,0-.65,.07-.96,.13-.62,.5-1.57,1.12-2.85,.76-1.56,1.24-2.76,1.43-3.62,.2-.86,.16-1.85-.1-2.96-.15-.62-.39-1.18-.72-1.66-.26-.36-.56-.69-.91-.97-.76-.62-1.77-.98-3.02-1.11l-.34-.03Zm3.16,40.94c.14,.13,.29,.24,.45,.32,.3,.13,.49,.27,.58,.44,.13,.29,.29,.48,.5,.59,.38,.18,.62,.34,.72,.49,.18,.33,.35,.52,.49,.59,.36,.14,.61,.31,.74,.52,.19,.33,.4,.54,.63,.62,.03,.02,.1,.05,.17,.11,.08,.06,.16,.13,.25,.2,.09,.07,.16,.14,.22,.2,.06,.06,.09,.1,.1,.12,.03,.14,.07,.23,.13,.26,.21,.1,.42,.23,.65,.41,.23,.18,.36,.32,.4,.43,.07,.18,.13,.27,.17,.29,.15,.04,.25,.09,.32,.13l.69,.57c.24,.07,.39,.19,.43,.36,0,.03,.05,.08,.12,.16,.07,.07,.15,.16,.24,.24,.1,.09,.19,.16,.27,.23,.08,.06,.15,.1,.18,.11,.16,.05,.27,.12,.31,.21,.06,.14,.19,.32,.4,.52,.2,.2,.39,.34,.55,.41,.14,.05,.24,.1,.31,.15-.59,.11-1.18,.18-1.79,.23-1.1,.08-2.18,.05-3.24-.09-1.23-.16-2.42-.46-3.56-.87-1.6-.58-3.08-1.4-4.42-2.46-1.02-.8-1.94-1.71-2.76-2.72-1.07-1.32-1.9-2.78-2.49-4.38-.4-1.07-.69-2.16-.87-3.26-.19-1.15-.25-2.3-.19-3.46,.17,.32,.4,.56,.69,.69,.27,.11,.43,.21,.49,.31,.17,.32,.32,.51,.46,.57,.51,.24,.81,.44,.88,.61,.13,.29,.25,.47,.38,.53,.42,.17,.71,.39,.86,.68,.1,.21,.2,.33,.27,.36,.2,.05,.4,.16,.62,.33,.23,.16,.36,.31,.39,.43,.04,.16,.11,.24,.19,.27,.1,.03,.17,.07,.23,.1,.39,.32,.67,.6,.82,.85l1.15,.83c.2,.08,.33,.18,.38,.3,.13,.3,.41,.58,.85,.82,.22,.12,.34,.22,.37,.31,.03,.09,.11,.21,.26,.34Zm22.48-23.18c.23-.04,.49-.08,.81-.11l.66-.03c.13,0,.36,0,.69,0s.57,0,.75,0c.2,0,.62,0,1.26,.01l.59-.02c1.31-.04,2.35-.25,3.13-.63,.95-.47,1.71-1.05,2.28-1.74,.62-.75,.95-1.61,1-2.56,.05-.92-.16-1.95-.63-3.08l-.26-.64-.03,.16c-.23,1.21-.6,2.25-1.11,3.12-.4,.68-.88,1.24-1.44,1.7-1,.8-2.31,1.31-3.95,1.53l-1.41,.14c-.72,.07-1.4,.23-2.03,.49-1.09,.44-1.8,1.02-2.12,1.73-.12,.27-.18,.54-.16,.8,0,.18,.03,.28,.05,.29,0,0,.02,0,.03-.03,.37-.58,1-.95,1.9-1.13Zm-1.6,6.85c.76,1.17,1.35,2.4,1.77,3.7,.49,1.55,.77,3.15,.83,4.81,0,.33,0,.72-.02,1.17-.02,.45-.06,.87-.11,1.25-.22,1.73-.7,3.37-1.44,4.91l-.16,.35-.03-.05c-.16-.34-.34-.52-.53-.56-.1-.02-.23-.1-.4-.24-.17-.14-.29-.27-.34-.38-.11-.25-.23-.41-.33-.46-.49-.24-.79-.46-.9-.65-.14-.26-.25-.41-.35-.44-.16-.04-.34-.14-.55-.29-.2-.16-.33-.3-.38-.43-.07-.18-.16-.28-.27-.3l-1.19-.87c-.21-.25-.4-.46-.58-.62-.18-.17-.31-.27-.39-.29-.16-.05-.26-.1-.29-.16-.17-.35-.42-.62-.74-.8-.28-.14-.44-.24-.49-.31-.23-.36-.46-.6-.65-.72-.35-.2-.55-.32-.59-.38-.22-.38-.38-.59-.49-.65-.41-.18-.67-.36-.78-.52-.17-.28-.3-.44-.37-.48-.52-.27-.82-.49-.9-.65-.14-.32-.26-.5-.36-.54-.5-.18-.8-.39-.9-.65-.07-.18-.13-.28-.2-.3-.22-.07-.36-.13-.43-.19-.13-.12-.27-.25-.41-.39-.14-.14-.21-.23-.22-.25l-.06-.18-1.21-.88c-.19-.06-.3-.12-.32-.19-.04-.11-.16-.27-.36-.48-.2-.2-.35-.33-.46-.37-.23-.09-.38-.23-.43-.41,0-.02-.04-.06-.11-.12l-.24-.22-.26-.21c-.08-.06-.13-.1-.16-.11-.29-.11-.46-.22-.52-.33-.17-.33-.34-.55-.52-.65-.38-.18-.59-.32-.62-.41-.07-.21-.21-.39-.43-.53-.62-.39-.93-.62-.96-.69-.07-.24-.19-.4-.37-.48-.38-.14-.64-.36-.78-.66-.08-.2-.18-.31-.28-.34-.13-.03-.31-.13-.54-.29-.23-.16-.39-.31-.46-.42-.13-.21-.21-.33-.26-.36l-.2-.11c.93-.61,1.9-1.11,2.89-1.51,2.09-.84,4.28-1.22,6.57-1.15h.03c2.58,.08,5,.73,7.27,1.95,1.4,.75,2.66,1.7,3.78,2.82,.83,.84,1.57,1.75,2.22,2.74ZM47.47,117.24c-.17,.05-.26,.13-.29,.23-.03,.1-.13,.24-.3,.41-.18,.17-.35,.29-.52,.37-.23,.09-.36,.19-.39,.3-.03,.09-.13,.22-.32,.39-.18,.18-.34,.29-.46,.36-.23,.1-.37,.19-.42,.27-.18,.36-.38,.59-.6,.71-.33,.15-.55,.28-.64,.4-.16,.23-.2,.55-.13,.95,.07,.41,.21,.67,.43,.77,.31,.14,.53,.35,.66,.61,.2,.43,.37,.68,.53,.77,.28,.16,.44,.26,.47,.33,.21,.44,.45,.74,.7,.89,.2,.1,.33,.2,.36,.27,.1,.25,.23,.48,.39,.68s.28,.33,.39,.36c.17,.05,.27,.13,.3,.21,.03,.12,.14,.29,.31,.49,.17,.2,.32,.35,.43,.42,.2,.11,.32,.23,.37,.38l.85,1.21c.23,.14,.46,.32,.68,.53,.22,.22,.33,.38,.35,.49,.02,.16,.06,.25,.13,.28,.35,.12,.6,.34,.75,.68,.1,.29,.21,.46,.33,.52l.45,.25c.21,.25,.37,.31,.48,.18,.06-.07,.11-.12,.15-.15,.47-.25,.76-.46,.86-.62,.13-.24,.23-.37,.28-.41,.5-.26,.79-.5,.87-.72,.06-.17,.13-.27,.21-.3,.2-.07,.42-.18,.64-.33,.23-.15,.37-.28,.43-.38,.1-.2,.18-.32,.22-.35l.57-.4,.59-.67,.37-.2,1.11-.82c.07-.15,.2-.33,.4-.55,.2-.21,.36-.34,.46-.37,.19-.06,.29-.11,.3-.16,.04-.13,.14-.27,.3-.43,.16-.16,.3-.26,.43-.31,.28-.1,.45-.2,.51-.29,.23-.43,.46-.71,.67-.82,.37-.17,.58-.31,.62-.4,.14-.29,.3-.48,.46-.56,.43-.19,.68-.36,.76-.5,.18-.36,.35-.57,.51-.63,.14-.05,.31-.15,.5-.31,.19-.16,.3-.28,.35-.38,.06-.17,.13-.28,.21-.31,.19-.06,.32-.12,.39-.16,.35-.28,.57-.52,.65-.73l1.08-.81c.24-.1,.38-.18,.41-.22,.2-.33,.47-.62,.81-.85,.22-.13,.34-.22,.37-.26,.31-.44,.56-.71,.75-.8,.39-.18,.6-.31,.62-.39,.08-.25,.26-.45,.54-.62,.39-.22,.6-.38,.65-.49,.06-.15,.16-.31,.33-.48,.16-.16,.3-.26,.43-.3,.32-.08,.51-.21,.58-.39,.07-.21,.2-.36,.39-.46,.41-.2,.65-.38,.74-.54,.17-.35,.31-.55,.43-.6,.56-.23,.87-.45,.94-.64,.07-.19,.13-.29,.22-.3,.13-.03,.3-.13,.52-.31,.21-.18,.36-.35,.45-.51,.1-.21,.19-.33,.26-.36,.15-.05,.44-.24,.87-.56l1.66-1.47c.13-.28,.41-.52,.83-.73,.27-.13,.42-.24,.45-.34,.03-.11,.14-.26,.32-.43s.33-.29,.45-.34c.2-.07,.33-.16,.39-.25,.19-.39,.38-.62,.57-.68,.33-.09,.56-.23,.69-.41,.22-.36,.38-.58,.5-.64,.39-.2,.63-.37,.73-.53,.19-.33,.32-.52,.41-.56,.48-.16,.8-.38,.97-.64,.13-.23,.23-.36,.28-.39,.2-.1,.4-.23,.6-.39,.2-.16,.31-.29,.33-.39,.05-.21,.13-.33,.25-.37,.25-.07,.41-.13,.49-.2,.33-.29,.53-.46,.61-.48,.16-.05,.26-.12,.29-.22,.04-.13,.16-.29,.34-.48,.19-.19,.35-.31,.48-.36,.17-.06,.26-.12,.28-.18,.03-.14,.06-.23,.08-.26l.85-.63c.22-.07,.35-.15,.39-.23,.2-.42,.42-.68,.65-.79,.33-.14,.51-.26,.56-.35,.1-.23,.24-.41,.44-.53,.5-.29,.78-.49,.84-.59,.2-.35,.34-.55,.44-.59,.46-.16,.74-.37,.83-.64,.05-.17,.12-.28,.2-.31,.2-.07,.39-.16,.59-.3,.2-.13,.34-.27,.43-.4,.17-.27,.28-.43,.33-.45,.21-.1,.5-.31,.86-.64,.2-.23,.34-.37,.43-.42l1.21-.92c.06-.13,.18-.29,.38-.49,.2-.2,.37-.33,.51-.39,.28-.12,.43-.21,.46-.27,.11-.33,.34-.57,.7-.73,.23-.09,.37-.16,.41-.23,.22-.44,.44-.71,.67-.82,.38-.16,.6-.29,.67-.42,.17-.33,.31-.52,.41-.56,.41-.15,.69-.36,.83-.64,.1-.23,.19-.35,.25-.39,.53-.25,.87-.48,.99-.67,.17-.29,.29-.44,.37-.47,.19-.07,.39-.19,.58-.35,.2-.17,.31-.32,.34-.44,.04-.16,.1-.25,.19-.27,.16-.03,.29-.09,.39-.17l.59-.49c.21-.1,.34-.2,.38-.3,.02-.03,.06-.1,.13-.18,.07-.08,.16-.17,.26-.26,.1-.1,.19-.18,.27-.25,.08-.07,.15-.11,.18-.13,.19-.09,.29-.15,.31-.21,.03-.11,.13-.25,.29-.41,.16-.16,.33-.28,.49-.36,.32-.14,.49-.27,.52-.38,.03-.1,.13-.24,.29-.41,.16-.17,.31-.28,.43-.34,.23-.1,.36-.17,.4-.23,.2-.37,.41-.62,.64-.74,.41-.2,.65-.37,.73-.52,.12-.26,.28-.45,.48-.55,.37-.16,.6-.34,.69-.52,.14-.31,.28-.49,.43-.55,.21-.07,.41-.17,.59-.3,.18-.13,.29-.26,.35-.39,.06-.17,.13-.27,.22-.3,.14-.03,.32-.13,.54-.3,.22-.16,.35-.31,.4-.42,.11-.28,.21-.43,.29-.45,.13-.02,.23-.06,.3-.09l1-.77c.36-.43,.65-.71,.88-.84,.22-.12,.33-.21,.34-.28,.02-.13,.07-.23,.17-.29l1.09-.73c.31-.47,.53-.74,.68-.81,.33-.15,.51-.29,.55-.42,.05-.19,.19-.34,.4-.46,.6-.32,.93-.55,.98-.71,.07-.22,.2-.38,.38-.48,.34-.16,.58-.34,.7-.51,.2-.32,.37-.5,.52-.56,.17-.06,.36-.17,.57-.34,.2-.16,.32-.3,.34-.4,.03-.16,.1-.24,.2-.26,.14-.03,.33-.14,.56-.33,.23-.2,.38-.36,.44-.5,.07-.17,.13-.26,.18-.27,.18-.02,.34-.1,.49-.25,.29-.27,.45-.41,.49-.43,.2-.07,.33-.15,.38-.24,.09-.19,.23-.37,.42-.57,.2-.2,.36-.31,.49-.34,.18-.04,.29-.1,.32-.2,.02-.1,.11-.23,.26-.39,.16-.16,.29-.27,.4-.32,.35-.13,.55-.26,.59-.37,.1-.3,.27-.51,.5-.65,.47-.25,.75-.45,.83-.58,.14-.27,.31-.46,.52-.56,.36-.16,.58-.33,.65-.49l.13-.33c.16-.2,.34-.29,.55-.29,.2,0,.36,.12,.46,.33,.14,.3,.29,.48,.45,.52,.09,.03,.25,.13,.49,.31,.23,.18,.37,.32,.41,.39,.09,.21,.19,.33,.3,.36,.13,.03,.29,.13,.5,.31,.21,.18,.34,.33,.39,.45,.07,.18,.16,.28,.28,.3l1.28,.89c.12,.19,.28,.39,.48,.59,.2,.2,.35,.32,.46,.36,.16,.05,.26,.13,.29,.22,.03,.11,.13,.26,.31,.42,.17,.17,.32,.27,.44,.31,.28,.08,.46,.2,.53,.38,.1,.26,.27,.47,.54,.62,.37,.21,.59,.35,.65,.43,.26,.4,.49,.65,.67,.74,.42,.19,.66,.35,.72,.49,.09,.23,.21,.39,.38,.48,.36,.16,.64,.4,.84,.72,.13,.21,.23,.34,.31,.37,.2,.07,.4,.18,.62,.34,.22,.16,.34,.29,.37,.38,.05,.16,.13,.26,.23,.29,.08,.02,.22,.12,.42,.29,.2,.17,.36,.32,.45,.45,.13,.19,.2,.29,.22,.3l1.12,.75c.18,.05,.28,.13,.3,.22,.01,.07,.05,.14,.1,.23-.16,1.02-.23,2.06-.22,3.12,0,.4,.02,.85,.06,1.34,.03,.38,.08,.83,.15,1.33,.08,.51,.16,.95,.24,1.31,.14,.62,.3,1.2,.47,1.73,.65,2.05,1.63,3.91,2.94,5.6,.54,.7,1.11,1.35,1.72,1.96,.85,.85,1.77,1.61,2.76,2.28,1.27,.85,2.63,1.55,4.09,2.09,1.71,.64,3.48,1.01,5.32,1.11l.34,.02c.11,0,.47,.01,1.1,.01,.23,0,.48,0,.78-.02,.3-.02,.55-.03,.76-.06,1.19-.12,2.3-.33,3.35-.62l.13-.04c.16,.11,.26,.21,.3,.3,.07,.2,.16,.32,.25,.37,.45,.21,.73,.41,.85,.6,.15,.28,.28,.46,.38,.52,.35,.17,.62,.34,.79,.5-.2,.75-.57,1.67-1.12,2.79-.83,1.69-1.31,3-1.43,3.93-.03,.21-.04,.46-.04,.75,0,.29,.03,.57,.06,.82,.1,.7,.26,1.32,.5,1.85l.04,.1c-.09-.06-.19-.14-.29-.24-.21-.19-.34-.34-.39-.46-.06-.17-.12-.26-.18-.28-.21-.06-.39-.15-.53-.27-.28-.23-.44-.36-.48-.37-.25-.09-.4-.19-.44-.29-.07-.16-.2-.34-.39-.55-.2-.2-.36-.33-.48-.36-.16-.03-.26-.12-.28-.23-.02-.08-.1-.19-.26-.33-.15-.15-.28-.24-.39-.29-.34-.12-.54-.23-.61-.34-.26-.46-.48-.73-.67-.82-.26-.1-.45-.22-.56-.36l.05-.06c.6-.71,1.05-1.37,1.34-1.98,.7-1.5,.73-2.65,.09-3.45-.06-.07-.13-.15-.22-.23s-.14-.12-.16-.12c-.01,0-.02,0-.03,.02,0,.02,0,.03,0,.05,.11,.46,.05,.95-.19,1.46-.21,.46-.53,.95-.97,1.44l-.62,.66-.78,.76c-.09-.13-.17-.22-.24-.26-.17-.07-.36-.18-.56-.33-.2-.15-.32-.28-.37-.39-.09-.19-.16-.29-.2-.31-.17-.06-.36-.16-.58-.32-.21-.15-.34-.28-.39-.37-.08-.19-.2-.32-.34-.39l-1.26-.97c-.08-.14-.2-.29-.38-.44-.18-.16-.35-.29-.52-.37-.2-.1-.32-.2-.33-.29-.02-.1-.12-.24-.31-.43l-.13-.12c0-.16-.03-.33-.08-.49-.02-.08-.06-.17-.1-.26-.03-.09-.07-.13-.08-.14,0,0-.02,0-.03,0,0,0-.02,.01-.02,.03-.04,.2-.11,.39-.21,.56-.13-.06-.22-.12-.26-.2-.15-.29-.34-.51-.57-.64-.4-.21-.62-.37-.67-.48-.13-.34-.36-.6-.69-.76-.36-.16-.56-.31-.62-.47-.09-.26-.25-.42-.5-.47-.12-.02-.25-.1-.39-.23-.14-.13-.26-.28-.36-.46-.12-.23-.22-.36-.29-.39-.16-.05-.35-.15-.55-.29-.2-.14-.32-.26-.36-.35-.09-.24-.22-.39-.38-.46-.38-.14-.67-.38-.89-.72-.11-.19-.23-.3-.34-.33l-1.17-.89c-.48-.54-.79-.84-.94-.89-.19-.06-.29-.13-.32-.2-.04-.13-.14-.28-.29-.43-.15-.16-.32-.28-.49-.37-.26-.11-.4-.2-.42-.27-.04-.11-.13-.25-.28-.41-.15-.16-.29-.27-.41-.33l-.16-.08c.3-.17,.55-.39,.72-.67,.07-.1,.12-.21,.16-.32s.06-.17,.04-.2c0,0,0,0-.02,0,0,0-.01,0-.02,0l-.03,.03c-.3,.18-.63,.29-.98,.31h0c-.24,.02-.48,0-.71-.02l-.1-.06c-.37-.14-.6-.29-.69-.45-.16-.3-.32-.49-.47-.56-.2-.09-.39-.2-.56-.34-.17-.13-.28-.26-.33-.36-.1-.27-.26-.45-.46-.51-.16-.05-.35-.15-.56-.29-.21-.15-.32-.27-.34-.36-.02-.14-.08-.22-.16-.24-.13-.03-.32-.17-.58-.41-.26-.23-.4-.41-.43-.52-.03-.14-.09-.22-.16-.23-.14-.03-.26-.08-.36-.16-.35-.29-.56-.46-.62-.48-.29-.1-.44-.21-.47-.33-.02-.1-.12-.25-.3-.44-.18-.2-.33-.31-.44-.36-.24-.08-.38-.2-.43-.36-.02-.08-.14-.21-.34-.39s-.36-.29-.48-.34c-.25-.09-.4-.17-.44-.24-.22-.42-.42-.66-.59-.73-.34-.12-.53-.25-.58-.39-.06-.2-.2-.38-.43-.53-.61-.39-.92-.61-.94-.66-.1-.26-.21-.42-.32-.49l.3-.04c.1-.02,.27-.03,.51-.03,.24,0,.43,0,.55,0,1.19,.09,2.37,.55,3.54,1.36l.44,.33,1.28,1.04c.62,.5,1.32,.89,2.09,1.16,1.34,.46,2.34,.33,2.99-.39l.16-.22-.14,.03c-.45,.1-.94,.03-1.45-.21-.38-.17-.81-.46-1.31-.87-.09-.07-.23-.21-.45-.41-.21-.2-.37-.35-.47-.46-.88-.9-1.44-1.47-1.7-1.71-1.12-1.06-2.17-1.74-3.17-2.03l-.36-.1c-.6-.13-1.15-.2-1.66-.2-1.22,0-2.26,.41-3.12,1.23-.16-.09-.31-.14-.45-.14-.1,0-.26,.09-.49,.27-.23,.19-.39,.36-.49,.52l-1.09,.9c-.29,.17-.45,.31-.49,.41-.03,.09-.14,.22-.34,.39-.19,.16-.35,.28-.48,.33-.2,.07-.32,.17-.36,.28-.02,.08-.11,.2-.27,.37-.16,.17-.29,.28-.4,.33-.34,.16-.53,.27-.56,.35-.11,.31-.27,.52-.47,.62-.43,.2-.69,.37-.79,.51-.22,.33-.36,.52-.42,.55-.47,.23-.75,.44-.84,.63-.15,.35-.32,.54-.52,.58-.13,.03-.3,.1-.49,.24-.19,.14-.31,.25-.34,.35-.07,.2-.16,.32-.26,.35-.15,.05-.33,.16-.53,.34s-.33,.33-.36,.43c-.04,.13-.06,.2-.07,.22l-1.28,.82c-.17,.04-.26,.12-.28,.23,0,.07-.12,.21-.32,.42s-.38,.36-.53,.45c-.19,.1-.29,.18-.31,.24-.03,.11-.07,.17-.09,.2l-.74,.58c-.32,.12-.49,.24-.53,.37-.03,.11-.1,.23-.23,.36-.13,.13-.28,.24-.45,.33-.23,.1-.35,.19-.38,.25-.13,.31-.33,.54-.62,.7-.45,.23-.7,.4-.75,.51-.13,.29-.25,.46-.34,.51-.48,.22-.76,.44-.85,.67-.07,.2-.15,.32-.23,.35-.25,.09-.49,.21-.72,.39s-.38,.33-.43,.46c-.07,.17-.13,.26-.18,.28-.13,.02-.22,.05-.26,.08l-.9,.88-1.06,.82c-.19,.06-.29,.13-.32,.2-.05,.14-.2,.34-.45,.59-.25,.25-.43,.39-.54,.4-.16,.02-.26,.08-.29,.17-.03,.13-.12,.26-.26,.4-.13,.14-.29,.24-.45,.32-.23,.09-.37,.17-.43,.26-.27,.46-.51,.75-.7,.85-.39,.19-.6,.33-.65,.43-.12,.29-.28,.46-.46,.51-.26,.07-.5,.24-.72,.53l-.38,.54c-.57,.29-.89,.53-.95,.69-.07,.21-.18,.34-.33,.41-.45,.19-.75,.43-.91,.71-.11,.21-.2,.33-.26,.35-.15,.04-.34,.17-.58,.39-.22,.16-.38,.33-.46,.51l-1.17,.88c-.17,.05-.28,.12-.3,.21-.03,.11-.12,.25-.28,.43-.16,.18-.31,.29-.43,.34-.27,.11-.43,.2-.47,.26-.23,.38-.46,.64-.72,.77-.34,.17-.53,.29-.56,.36-.13,.36-.36,.62-.69,.78-.28,.11-.46,.23-.52,.34-.17,.29-.35,.49-.54,.59-.43,.23-.68,.42-.75,.58-.14,.33-.29,.53-.45,.58-.43,.11-.71,.31-.82,.6-.07,.18-.15,.28-.26,.32-.16,.04-.35,.16-.57,.34-.21,.18-.36,.36-.46,.52-.09,.2-.17,.31-.24,.33l-.19,.06-1.14,.83c-.12,.17-.27,.35-.46,.53-.19,.19-.34,.31-.46,.37-.18,.09-.28,.18-.3,.27-.02,.09-.13,.22-.31,.39-.19,.17-.36,.29-.5,.35-.26,.1-.43,.2-.49,.29-.21,.37-.4,.61-.57,.7-.34,.16-.53,.29-.57,.4-.07,.24-.23,.43-.46,.57-.52,.29-.8,.48-.86,.57-.19,.31-.33,.49-.43,.54-.36,.17-.6,.35-.72,.55-.16,.29-.29,.46-.42,.49-.13,.03-.31,.14-.56,.32-.25,.18-.39,.32-.43,.41-.06,.16-.12,.25-.18,.28-.46,.22-.78,.49-.96,.82-.13,.25-.23,.38-.29,.39-.16,0-.27,.04-.35,.1-.36,.31-.56,.48-.6,.49-.22,.09-.34,.16-.37,.2-.07,.15-.2,.32-.37,.51-.17,.19-.33,.33-.46,.42l-.42,.26c-.16,.32-.41,.56-.74,.71-.3,.13-.47,.23-.5,.29-.18,.42-.43,.71-.76,.88-.29,.13-.47,.26-.56,.41-.17,.31-.33,.51-.51,.59-.39,.15-.63,.3-.7,.44-.15,.33-.31,.53-.48,.6-.15,.06-.32,.16-.5,.3-.18,.15-.29,.28-.35,.39-.08,.19-.16,.3-.25,.33-.19,.06-.38,.16-.58,.31s-.33,.28-.37,.39c-.07,.2-.14,.3-.2,.32-.12,.04-.27,.13-.46,.28-.2,.15-.35,.29-.47,.44-.13,.17-.22,.28-.26,.31l-1.37,1.01c-.17,.39-.45,.67-.83,.83-.24,.09-.37,.17-.39,.24-.08,.29-.32,.53-.69,.73-.21,.1-.33,.17-.36,.22v81.11c0,.28,0,.46,0,.55,.01,.13,.06,.22,.15,.28,.14,.09,.22,.19,.23,.28,.03,.33,.11,.61,.24,.84,.13,.22,.2,.35,.23,.4,.11,.32,.26,.51,.45,.59,.21,.07,.44,.19,.68,.36l124.69,.12,.22-.2,.62-.64c.23-.51,.39-.77,.46-.79,.14-.04,.24-.19,.29-.45l.18-81.8c0-.3,0-.5-.02-.61-.03-.14-.12-.26-.28-.35-.37-.17-.59-.33-.68-.47-.16-.29-.33-.49-.51-.57-.41-.18-.65-.34-.72-.49-.1-.25-.22-.41-.35-.49-.49-.27-.79-.49-.9-.66-.15-.25-.26-.39-.35-.43-.2-.08-.4-.2-.59-.35-.19-.15-.31-.29-.36-.41-.07-.17-.13-.26-.18-.28-.16-.05-.28-.11-.35-.17-.3-.29-.52-.48-.65-.55-.21-.1-.34-.23-.41-.39l-.49-.43c-.14-.14-.24-.23-.32-.25-.18-.05-.29-.12-.32-.2-.06-.16-.15-.31-.29-.47-.14-.16-.27-.27-.4-.33-.35-.13-.55-.26-.59-.37-.08-.25-.28-.46-.59-.63-.35-.19-.54-.32-.58-.38-.25-.46-.49-.74-.74-.85h-.02c-.28-.11-.45-.21-.5-.29-.15-.28-.28-.45-.4-.52-.49-.25-.8-.49-.92-.72-.11-.25-.21-.39-.3-.44-.54-.27-.85-.48-.92-.63-.1-.22-.25-.36-.44-.4-.07-.02-.2-.12-.4-.3s-.33-.32-.41-.43l-.22-.36-.28-.13-1.08-.85c-.11-.13-.26-.29-.46-.48-.2-.18-.34-.3-.43-.35-.22-.12-.35-.24-.39-.35-.07-.22-.34-.46-.83-.72-.23-.11-.36-.19-.39-.24-.19-.36-.43-.62-.72-.78-.26-.13-.4-.23-.44-.29-.17-.33-.32-.53-.47-.62-.6-.31-.92-.52-.96-.63-.05-.14-.1-.26-.17-.34,.34,.11,.71,.2,1.11,.26,.13,.02,.33,.04,.61,.07,.28,.03,.5,.04,.67,.04h.29c.08,.01,.13,.01,.13,0,0,0,0-.02-.01-.03-.81-.56-1.48-1.18-2.03-1.83-.2-.25-.4-.52-.6-.84-.46-.74-.75-1.52-.85-2.34-.07-.5-.08-.96-.05-1.38l.04-.41c.02-.24,.08-.56,.17-.95s.2-.77,.33-1.11l.29-.82c.21-.6,.36-1.14,.44-1.62l.04-.36,.04,.08c.05,.16,.11,.25,.2,.26,.1,.02,.19,.05,.25,.1,.33,.29,.62,.48,.85,.59,.2,.08,.31,.18,.33,.29,.02,.1,.12,.24,.3,.44,.18,.2,.33,.32,.43,.37,.24,.1,.39,.18,.42,.24,.21,.39,.43,.63,.68,.71,.31,.09,.52,.22,.62,.39,.14,.32,.31,.54,.49,.66,.41,.23,.63,.38,.68,.46,.17,.33,.34,.53,.52,.62,.43,.18,.69,.34,.77,.49,.15,.32,.28,.49,.37,.54,.43,.19,.74,.43,.92,.75,.11,.22,.2,.33,.27,.36,.23,.07,.44,.17,.64,.31,.2,.14,.32,.28,.36,.4,.05,.16,.11,.25,.19,.27,.15,.05,.33,.16,.53,.35,.21,.19,.37,.38,.49,.57l1.21,.89c.18,.05,.29,.12,.32,.2,.05,.14,.14,.29,.27,.45,.13,.16,.27,.28,.41,.36,.33,.18,.51,.29,.54,.36,.1,.23,.29,.43,.57,.59,.41,.23,.63,.37,.66,.42,.24,.44,.48,.72,.74,.85,.26,.12,.42,.22,.46,.29,.18,.34,.33,.53,.46,.58,.43,.14,.72,.34,.88,.61,.17,.32,.3,.5,.41,.56,.39,.16,.66,.37,.81,.62,.14,.25,.28,.38,.4,.39,.1,.01,.26,.1,.47,.27,.21,.17,.35,.32,.41,.44,.1,.19,.23,.33,.4,.41l1.21,.95s.08,.1,.16,.18c.08,.09,.17,.17,.27,.27,.1,.09,.19,.17,.27,.24s.13,.1,.16,.11c.18,.06,.29,.12,.32,.2,.05,.14,.15,.29,.3,.46,.15,.16,.3,.29,.46,.38,.32,.16,.5,.28,.53,.37,.04,.1,.13,.22,.28,.36,.14,.13,.29,.25,.46,.33,.23,.11,.37,.2,.41,.28,.2,.37,.36,.59,.49,.65,.46,.2,.75,.4,.88,.59,.13,.23,.23,.38,.31,.43,.46,.25,.75,.46,.85,.65,.17,.34,.34,.53,.49,.59,.37,.12,.67,.34,.88,.67,.1,.16,.19,.26,.28,.28,.1,.03,.26,.13,.48,.33,.21,.19,.35,.34,.4,.46,.08,.19,.15,.29,.2,.32,.2,.07,.34,.14,.42,.2l.58,.46c.28,.08,.45,.2,.49,.36,.02,.09,.13,.23,.32,.43,.19,.2,.33,.32,.44,.36,.19,.08,.3,.16,.33,.25,.03,.09,.14,.23,.33,.41,.19,.19,.35,.31,.49,.37,.34,.15,.53,.26,.56,.34,.1,.29,.26,.5,.47,.62,.38,.2,.59,.35,.63,.45,.1,.25,.26,.43,.47,.56,.52,.28,.81,.48,.88,.59,.16,.31,.29,.48,.36,.5,.16,.06,.35,.16,.54,.31s.31,.28,.35,.39c.06,.16,.11,.26,.17,.29l.53,.26c.32,.27,.52,.37,.6,.31,.08-.07,.13-.11,.17-.12,.28-.1,.49-.26,.62-.48,.23-.42,.4-.67,.51-.74,.29-.18,.45-.33,.48-.44,.02-.13,.1-.29,.23-.47,.13-.17,.26-.29,.38-.34,.26-.11,.43-.23,.52-.39,.22-.43,.43-.72,.64-.86,.26-.16,.41-.29,.45-.4,.05-.16,.14-.33,.29-.5,.14-.17,.29-.31,.46-.4,.16-.08,.28-.2,.34-.35l.81-1.08c.44-.38,.72-.68,.86-.91,.14-.26,.26-.41,.34-.44,.14-.05,.28-.15,.43-.3,.15-.15,.26-.32,.33-.49,.08-.24,.16-.37,.24-.39,.13-.04,.27-.13,.4-.26,.14-.13,.25-.27,.33-.43,.16-.33,.3-.53,.44-.59,.08-.03,.13-.06,.15-.09,.05-.06,.07-.13,.05-.2-.02-.07-.06-.12-.13-.14-.17-.04-.28-.11-.32-.21-.05-.14-.13-.29-.27-.43-.13-.14-.26-.23-.38-.27-.32-.09-.51-.23-.59-.4-.12-.3-.29-.52-.5-.65-.43-.24-.67-.4-.72-.47-.2-.33-.35-.52-.46-.56-.43-.15-.72-.38-.86-.67-.1-.22-.19-.34-.26-.38-.23-.1-.45-.23-.65-.38-.2-.15-.32-.28-.35-.39-.06-.17-.13-.27-.22-.3-.2-.06-.39-.16-.58-.3-.19-.14-.32-.27-.38-.4-.09-.18-.21-.32-.38-.41l-1.14-.86c-.1-.15-.36-.4-.78-.76h0c-.07-.08-.14-.12-.21-.14-.17-.04-.26-.1-.29-.17-.06-.17-.16-.34-.32-.52-.16-.17-.31-.28-.44-.32-.26-.07-.42-.17-.49-.3-.13-.28-.33-.5-.57-.65-.39-.22-.6-.37-.64-.44-.21-.42-.45-.69-.72-.81-.28-.1-.45-.2-.51-.29-.19-.3-.32-.47-.39-.52-.47-.25-.77-.47-.88-.67-.16-.32-.31-.51-.45-.57-.42-.18-.7-.38-.83-.61-.12-.22-.25-.34-.39-.35-.07,0-.22-.11-.43-.3-.21-.2-.35-.35-.41-.46-.08-.17-.22-.31-.42-.43l-1.11-.83c-.18-.22-.36-.42-.55-.59-.19-.17-.33-.28-.43-.32-.18-.06-.29-.16-.33-.3-.03-.09-.13-.21-.3-.37-.18-.16-.35-.27-.51-.35-.23-.1-.36-.17-.4-.24-.23-.4-.47-.67-.73-.8-.25-.1-.41-.21-.48-.33-.18-.33-.36-.54-.56-.64-.49-.26-.77-.44-.83-.55-.15-.3-.26-.46-.31-.49-.22-.09-.41-.2-.57-.32s-.26-.24-.3-.34c-.07-.23-.2-.39-.39-.46-.21-.08-.34-.13-.39-.18-.39-.33-.59-.52-.59-.55-.03-.15-.1-.24-.2-.26-.11-.03-.29-.16-.55-.39-.25-.23-.39-.41-.43-.52-.04-.14-.09-.22-.16-.23-.19-.02-.36-.11-.53-.27-.21-.22-.35-.34-.43-.37-.29-.1-.44-.2-.47-.33-.02-.08-.11-.21-.26-.38-.16-.17-.31-.3-.45-.39-.26-.13-.41-.24-.43-.31-.03-.14-.14-.27-.31-.38-.16-.15-.28-.25-.36-.3,.25,.03,.5,.05,.75,.04,1.14-.04,2.28-.53,3.41-1.47l.92-.82c-.07,0-.14,.01-.2,.02-.69,.12-1.38,.16-2.1,.15l-.31-.03c-.47-.03-.92-.11-1.37-.23-1.13-.3-2.1-.88-2.91-1.74-.62-.66-1.21-1.59-1.77-2.79-.46-.97-.94-1.75-1.44-2.34l-.16-.18c-.07-.07-.11-.12-.14-.14l-.1-.09c-.12-.13-.28-.26-.47-.4s-.37-.25-.55-.33c-.65-.32-1.25-.36-1.82-.12-.07,.03-.15,.07-.21,.12l.12,.03c.56,.15,1.03,.5,1.43,1.06,.37,.52,.76,1.35,1.16,2.49,.35,1,.65,1.82,.91,2.45-.19-.1-.35-.21-.49-.32-.18-.14-.29-.26-.32-.34-.07-.18-.13-.28-.17-.29-.14-.04-.25-.09-.32-.14l-.63-.57c-.22-.1-.34-.16-.36-.21-.08-.14-.22-.3-.42-.49-.2-.19-.39-.33-.56-.42-.19-.1-.31-.22-.35-.38,0-.03-.04-.07-.1-.14-.07-.07-.14-.15-.23-.24-.09-.09-.18-.16-.26-.23-.08-.07-.14-.11-.17-.12-.27-.11-.42-.2-.45-.27-.07-.17-.19-.33-.38-.47,.41-.76,.76-1.54,1.05-2.33,.64-1.73,1.03-3.53,1.17-5.39l.03-.72c.03-1.66-.13-3.27-.48-4.83-.43-1.87-1.14-3.66-2.16-5.39l-.43-.67c-.47-.75-1.06-1.52-1.77-2.31-1.22-1.36-2.62-2.53-4.22-3.51-2.19-1.35-4.55-2.22-7.07-2.59l-1.05-.13-1.01-.07h-.27s-1.19,0-1.19,0c-2.39,.1-4.64,.6-6.78,1.51-1.26,.54-2.45,1.21-3.58,2.03h-.01c-.17-.06-.26-.15-.29-.29-.01-.07-.12-.21-.3-.4-.19-.19-.34-.32-.46-.38-.29-.13-.45-.23-.49-.3-.17-.34-.35-.55-.54-.62-.35-.13-.57-.26-.65-.41-.21-.38-.41-.62-.6-.72-.36-.16-.57-.31-.65-.43-.19-.32-.32-.49-.41-.5-.1-.02-.2-.06-.31-.11l-.03-.83-.04-.46c-.11-1.02-.36-1.9-.77-2.62-.95-1.7-2.18-2.66-3.7-2.88-.22-.03-.48-.05-.77-.05-.6,0-1.25,.11-1.94,.34-.09-.15-.24-.28-.44-.4-.36-.2-.55-.33-.58-.38-.26-.46-.5-.74-.74-.85-.34-.13-.56-.26-.64-.4-.13-.24-.25-.39-.35-.45-.44-.24-.71-.45-.82-.62-.17-.33-.31-.51-.42-.56-.2-.07-.39-.18-.58-.32-.2-.14-.32-.26-.37-.37-.06-.16-.14-.25-.24-.27-.14-.03-.31-.13-.51-.33-.2-.19-.36-.41-.51-.67l-1.19-.86c-.16-.03-.26-.09-.29-.17-.04-.11-.16-.27-.34-.47-.18-.2-.33-.33-.46-.39-.22-.1-.36-.19-.41-.27-.14-.27-.37-.5-.68-.69-.23-.13-.63-.21-1.21-.23-.57-.02-.92,.03-1.03,.15-.1,.12-.19,.19-.25,.21-.33,.08-.54,.21-.63,.41-.13,.29-.23,.46-.31,.49-.47,.16-.75,.38-.85,.63-.09,.26-.23,.42-.42,.5-.25,.1-.46,.2-.64,.33-.18,.13-.29,.25-.32,.36-.05,.18-.1,.27-.17,.29-.16,.04-.35,.15-.57,.35-.22,.19-.36,.37-.43,.53-.05,.16-.18,.26-.38,.31l-1.17,.77c-.09,.19-.25,.4-.47,.64-.23,.24-.4,.36-.51,.38-.17,.02-.27,.07-.3,.16-.06,.16-.14,.31-.26,.44-.11,.13-.23,.22-.35,.26-.35,.12-.56,.25-.62,.4-.04,.13-.14,.27-.28,.43-.14,.16-.28,.27-.41,.35-.32,.15-.52,.29-.6,.42-.13,.26-.29,.43-.49,.53-.36,.16-.6,.35-.72,.54-.15,.28-.31,.47-.47,.56-.39,.19-.66,.41-.83,.67-.13,.23-.25,.35-.36,.38-.13,.03-.29,.12-.48,.27-.2,.15-.32,.29-.37,.41-.1,.2-.17,.31-.24,.33-.1,.02-.25,.11-.47,.28-.22,.16-.37,.3-.45,.41-.12,.18-.22,.29-.28,.34l-1.29,.94c-.09,.16-.2,.33-.35,.49-.14,.16-.27,.27-.39,.33-.34,.15-.54,.29-.59,.42-.04,.11-.14,.23-.29,.38-.16,.14-.32,.26-.49,.34-.23,.09-.36,.17-.39,.24-.18,.44-.4,.72-.66,.83-.36,.13-.56,.23-.59,.31-.1,.25-.24,.43-.43,.54-.52,.3-.8,.51-.86,.63-.14,.34-.29,.54-.45,.59-.43,.11-.71,.31-.82,.6-.06,.18-.15,.28-.26,.31-.13,.04-.32,.16-.56,.36-.24,.2-.39,.37-.46,.51-.09,.19-.15,.29-.2,.31-.18,.06-.37,.16-.57,.3-.2,.14-.33,.27-.4,.39-.1,.2-.19,.3-.25,.33-.15,.04-.3,.14-.46,.27-.29,.27-.46,.41-.49,.43-.22,.13-.35,.22-.39,.3-.06,.12-.19,.27-.4,.46-.22,.19-.4,.33-.56,.4-.19,.07-.3,.15-.34,.23-.12,.32-.37,.58-.76,.77-.22,.1-.35,.18-.38,.25-.13,.3-.33,.53-.62,.7-.44,.24-.69,.41-.75,.51-.16,.29-.27,.46-.35,.5-.49,.23-.78,.47-.87,.72-.06,.17-.13,.27-.21,.3-.24,.08-.48,.22-.74,.42-.25,.2-.39,.35-.43,.48-.03,.14-.1,.23-.21,.24-.13,.02-.29,.11-.49,.29-.2,.18-.36,.39-.49,.62l-1.26,.9c-.16,.04-.26,.13-.28,.24,0,.03-.04,.1-.12,.2-.08,.1-.17,.2-.28,.31-.11,.11-.22,.2-.32,.28-.1,.07-.16,.12-.2,.12-.18,.03-.28,.07-.29,.11-.2,.43-.42,.69-.66,.77-.35,.1-.56,.27-.63,.51-.02,.07-.11,.18-.26,.33-.15,.15-.28,.25-.39,.32-.32,.15-.52,.29-.6,.43-.18,.33-.35,.53-.51,.59-.34,.12-.57,.26-.67,.42-.2,.35-.36,.55-.48,.61-.17,.07-.36,.17-.54,.33-.19,.15-.3,.28-.34,.38-.06,.17-.13,.27-.22,.3-.45,.15-.76,.38-.93,.66-.12,.23-.2,.35-.26,.37-.2,.1-.65,.47-1.33,1.12l-1.24,.92c-.2,.39-.48,.66-.84,.83-.25,.1-.39,.21-.42,.33-.03,.1-.11,.22-.26,.36-.14,.14-.29,.25-.43,.32-.33,.13-.52,.28-.59,.45-.05,.15-.16,.3-.31,.46-.16,.16-.29,.26-.42,.29-.23,.05-.39,.15-.46,.29-.16,.3-.33,.49-.5,.58-.39,.17-.64,.34-.74,.53-.16,.33-.29,.52-.39,.57-.54,.26-.84,.47-.9,.63-.07,.2-.17,.31-.29,.34-.13,.04-.33,.16-.57,.37-.25,.21-.39,.36-.42,.46-.05,.18-.1,.28-.17,.29-.2,.06-.39,.16-.59,.32-.2,.16-.35,.33-.46,.51l-1.14,.92c-.26,.16-.41,.29-.45,.39-.03,.09-.15,.22-.34,.39-.2,.17-.36,.28-.48,.33-.22,.08-.34,.15-.37,.21-.08,.16-.19,.33-.32,.48-.14,.15-.27,.26-.41,.32-.26,.1-.43,.22-.49,.36-.16,.32-.33,.53-.53,.63-.48,.22-.75,.4-.83,.55-.13,.27-.24,.43-.32,.48-.49,.23-.77,.45-.85,.64-.09,.26-.23,.42-.42,.5-.23,.07-.37,.14-.43,.19l-.53,.51c-.03,.16-.1,.25-.21,.29-.16,.06-.35,.18-.56,.37-.22,.19-.34,.34-.38,.46-.06,.19-.11,.28-.16,.29-.27,.07-.45,.15-.52,.22-.32,.32-.54,.49-.64,.5-.16,.02-.26,.1-.27,.24,0,.03-.05,.1-.12,.19-.08,.09-.17,.19-.28,.3-.11,.11-.22,.2-.31,.28-.1,.08-.17,.13-.21,.14-.14,.04-.23,.13-.25,.26,0,.02-.03,.05-.09,.11l-.22,.2-.25,.21c-.08,.06-.14,.1-.18,.12-.35,.16-.55,.3-.6,.42-.11,.28-.32,.51-.64,.69-.29,.16-.45,.27-.48,.32-.2,.36-.42,.59-.66,.72-.38,.19-.61,.36-.69,.5-.16,.28-.26,.44-.33,.48-.23,.11-.43,.23-.61,.35-.17,.13-.28,.23-.32,.32-.09,.2-.17,.32-.25,.37-.58,.33-.94,.65-1.08,.93l-.5,.34-1.69,1.47s-.1,.08-.15,.11c-.22,.11-.34,.2-.37,.26-.04,.12-.16,.29-.36,.5-.2,.22-.35,.35-.46,.4-.28,.11-.43,.2-.46,.27-.07,.22-.3,.43-.69,.64-.3,.16-.46,.28-.5,.36-.18,.43-.44,.72-.78,.86-.25,.09-.41,.2-.48,.33-.16,.29-.32,.48-.48,.54-.38,.15-.62,.32-.75,.52-.17,.34-.33,.54-.46,.62-.45,.21-.74,.43-.85,.64-.12,.24-.22,.37-.29,.39-.18,.04-.36,.13-.56,.28-.2,.14-.32,.27-.37,.39-.07,.21-.19,.34-.33,.4-.04,.02-.11,.06-.2,.12-.1,.07-.2,.14-.3,.23-.11,.08-.2,.16-.28,.23-.08,.07-.13,.12-.14,.15-.09,.17-.17,.28-.25,.31-.14,.06-.24,.1-.31,.16l-.71,.59Z"/><path class="cls-3" d="M121.28,160.13c.29-.95,.25-1.7-.13-2.26-.35-.51-1.04-.95-2.07-1.32-1.12-.4-2.88-.8-5.29-1.19l-5.3-.65c-3.8-.47-6.68-1.74-8.63-3.82-2.69-2.85-3.96-6.57-3.8-11.16,.01-.16,.07-.23,.17-.22,.04,0,.14,.32,.31,.94,.13,.49,.27,.96,.42,1.43,1.47,4.66,4.45,7.72,8.96,9.2,1.01,.33,1.96,.57,2.85,.73,.77,.13,1.74,.25,2.91,.34,1.34,.1,3.47,.22,6.37,.35,4.24,.19,6.8,1.22,7.66,3.11,.33,.72,.42,1.42,.29,2.11-.08,.37-.16,.69-.26,.94-.08,.21-.2,.48-.36,.82-.2,.43-.62,1.26-1.24,2.5-1.79,3.56-2.68,6.72-2.65,9.49,0,.05,0,.1-.03,.13-.02,.04-.04,.06-.07,.06-.16,0-.4-.5-.7-1.51-.3-1.01-.5-1.91-.58-2.71-.17-1.79,.21-4.22,1.16-7.3Z"/><path class="cls-3" d="M117.45,141.2c-8.01-3.14-11.69-8.42-11.02-15.84,.14-1.57,.33-2.34,.56-2.31,.03,0,.06,.24,.07,.7,.01,.5,.08,1.16,.2,1.99,.32,2.35,.82,4.21,1.5,5.56,.63,1.25,1.51,2.31,2.66,3.18,1.25,.95,3.06,1.86,5.43,2.74,5.9,2.18,10.45,4.32,13.63,6.4,2.66,1.74,4.16,3.26,4.51,4.55,.56,2.09-.69,4.11-3.77,6.05l-.92,.48,.55-1.09c.4-1.22,.58-2.14,.52-2.76-.25-2.89-4.89-6.11-13.93-9.65Z"/><path class="cls-3" d="M128.77,196.31c.13-.65,.36-1.9,.68-3.74,1.31-7.55,3.81-12.98,7.51-16.3,.88-.78,1.69-1.46,2.44-2.03l.6-.46c.05-.02,.1-.02,.13-.02,.04,0,.06,.02,.06,.04l-.98,1.78c-2.93,5.33-4.13,9.48-3.62,12.47,.58,3.38,.77,6.26,.57,8.65-.68,8.17-5.34,12.68-13.98,13.51-1.89,.19-3.93,.18-6.14-.01-.12,0-.24,0-.35,0-.08,0-.14,0-.2-.03-.05-.03-.08-.06-.09-.1,0-.07,.42-.24,1.27-.5,5.22-1.59,8.89-4.9,10.99-9.95,.36-.85,.6-1.5,.75-1.97,.12-.38,.23-.83,.34-1.36Z"/><path class="cls-3" d="M134.39,174.83c-.42,.31-.72,.55-.92,.72-.27,.23-.76,.71-1.47,1.41-5.23,5.27-7.57,11.43-7.01,18.47,.03,.32,.07,.58,.12,.79,.02,.07,.02,.14,.01,.21-.01,.07-.03,.13-.07,.15l-.17-.2c-.3-.37-.65-.99-1.02-1.85-.38-.86-.67-1.67-.87-2.45-2.01-7.68,3.16-16.51,15.53-26.48,7.42-5.98,12.05-11.92,13.9-17.8,.78-2.49,1.26-5.39,1.44-8.71,.21-3.98,1-7.51,2.35-10.57,.95-2.14,2.09-4,3.41-5.58,.59-.69,.9-1.03,.95-.99,.05,.03-.03,.24-.22,.64-2.34,4.75-3.35,10.9-3.02,18.45,.1,2.49,.15,4.36,.13,5.62-.01,1.11-.07,2.05-.19,2.83-.13,.89-.36,1.85-.7,2.88-1.69,5.1-6.94,10.97-15.76,17.61l-6.44,4.85Z"/><path class="cls-3" d="M142.59,154.96c-1.47,2.71-3.07,4.74-4.81,6.08l-2.09,1.4c-3.87,2.59-7.85,6.74-11.95,12.44l-.32,.44c-.11,.08-.18,.08-.23,0l.16-1.58c.16-1.53,.59-3.3,1.28-5.31,.69-2.02,1.47-3.75,2.34-5.2,2-3.36,4.68-6.26,8.04-8.69,5.74-4.15,7.67-12.84,5.79-26.07-.16-1.08-.36-2.25-.6-3.5-.24-1.25-.46-2.19-.64-2.83-.01-.05-.01-.1,0-.15,.01-.05,.03-.08,.07-.09,.13-.06,.67,.72,1.61,2.36l.15,.25h0c5.39,9.59,6.09,19.09,2.1,28.5l-.92,1.95Z"/><path class="cls-3" d="M138.72,187.17c0-.12,.03-.19,.06-.2,.01,0,.03,0,.06,.01l.46,.85,.07,.15h0c1.47,3.2,2.46,5.72,2.95,7.53,.94,3.45,1.04,6.34,.3,8.67-.69,2.16-.49,3.88,.58,5.16,.81,.97,2.09,1.7,3.84,2.18,.16,.05,.22,.12,.18,.2-.03,.05-.58,.1-1.65,.17-4.53,.28-7.17-1.11-7.91-4.15-.37-1.53-.06-3.59,.95-6.18,1.5-3.87,1.61-8.41,.33-13.63-.04-.16-.1-.33-.16-.48-.03-.07-.04-.16-.04-.28Z"/><path class="cls-3" d="M156.93,167.3c-2.4,1.02-5.47,1.75-9.2,2.19l-.69,.08s-.03-.07,.03-.15c.04-.06,.26-.17,.65-.33,6.58-2.73,11.25-7.12,13.99-13.14l1.02-2.24,2.14-5.85c.46-1.25,.86-2.27,1.21-3.07,.38-.88,.78-1.67,1.19-2.4,1.8-3.18,4.24-5.32,7.29-6.4l.4-.11s.03,0,.03,.01c0,.04-.34,.39-1.05,1.04-3.87,3.56-6.01,7.72-6.44,12.51-.82,9.26-4.35,15.21-10.59,17.87Z"/><path class="cls-4" d="M88.57,140.29h0c-.21,.12-2.07,.47-5.58,1.07-.36,.07-.53,.15-.51,.25,0,.03,.18,.06,.53,.09l6.21,.78c.11,.07,.14,.16,.09,.26-.05,.09-.37,.31-.98,.65-.61,.35-1.1,.6-1.47,.75-2.53,1.02-5.16,.64-7.89-1.15-.24-.16-.51-.39-.8-.69,.44-.49,.95-.94,1.5-1.34,2.19-1.56,4.38-2.11,6.57-1.66,.46,.1,.96,.25,1.5,.46s.85,.36,.89,.46c.01,.02,0,.05-.07,.08Z"/><path class="cls-4" d="M86.47,161.09h0c-.35,.28-.52,.43-.52,.46l.03,.03c.07,.04,.3-.02,.69-.18l6.09-2.47-.96,1.92c-1.76,2.63-4.37,3.85-7.82,3.66-.39-.02-.84-.08-1.36-.17,.39-1.18,.75-2.09,1.1-2.72,1.39-2.53,3.66-3.97,6.82-4.31,.14,0,.22,.02,.25,.08,.03,.06,0,.13-.1,.23-.07,.07-.22,.19-.45,.38l-3.76,3.1Z"/><path class="cls-4" d="M85.72,150.62c1.96-2.2,4.51-3.1,7.65-2.68,.08,.01,.13,.05,.14,.1,.05,.12-.33,.38-1.14,.78l-1.99,.98h0s-2.35,1.16-2.35,1.16c-.03,.02-.04,.04-.03,.07,0,.06,.08,.09,.21,.09,.11,0,.3-.02,.59-.06,.33-.04,.99-.15,1.96-.3l4.3-.7-1.05,1.37c-2.29,2.38-5.23,3.05-8.83,2.04l-1.14-.37c.62-1.07,1.18-1.89,1.68-2.46Z"/><path class="cls-4" d="M94.13,136.93l-1.42-.1c-3.24-.68-5.4-2.63-6.48-5.85-.06-.17-.2-.78-.42-1.83,1.36,0,2.4,.06,3.11,.2,1.87,.36,3.32,1.1,4.36,2.2h0c.64,.7,1.17,1.53,1.58,2.48l.38,.88-5.6-3.47c-.05,0-.09,.01-.12,.06,0,.02,.02,.07,.1,.16l4.51,5.27Z"/><path class="cls-4" d="M98.77,122.28c.31,.3,.62,.68,.93,1.15,.31,.47,.56,.91,.73,1.32,.12,.27,.22,.55,.32,.82l-5.69-3.43-.02,.03c-.01,.05,0,.1,.05,.16,.03,.04,.1,.13,.2,.24l4.52,5.12-1.74-.18c-2.93-.64-4.97-2.41-6.13-5.3-.14-.34-.35-1.07-.64-2.19,.65-.1,1.26-.13,1.82-.09,2.4,.2,4.28,.97,5.66,2.33Z"/><path class="cls-4" d="M93.93,162.71c.43-1.31,.84-2.3,1.21-2.94,1.39-2.44,3.43-3.8,6.13-4.09,.39-.04,.77-.06,1.15-.06l-4.81,3.92c-.25,.16-.34,.29-.26,.4l.02,.02,6.73-2.71-1.09,2.07c-1.83,2.57-4.7,3.71-8.6,3.43l-.49-.03Z"/><path class="cls-4" d="M105.77,166.31l-.85,1.73c-1.82,2.78-4.61,4.02-8.37,3.71l-.88-.07c.22-.79,.45-1.44,.69-1.95,1.5-3.13,3.9-4.83,7.21-5.11,.16,0,.26,.01,.28,.05,.04,.06,.01,.13-.08,.21-.07,.06-.2,.18-.42,.36l-3.56,2.94h0c-.52,.41-.76,.64-.75,.66,.03,.05,.11,.05,.23,.01,.09-.03,.26-.1,.53-.2l5.96-2.36Z"/><path class="cls-4" d="M97.5,132.64c-.08-.3-.15-.63-.21-.98,1.53,0,2.66,.09,3.39,.24,1.81,.37,3.21,1.11,4.22,2.22h0c.34,.37,.68,.82,1.01,1.36,.33,.53,.59,1.01,.76,1.46,.04,.11,0,.17-.12,.19l-5.26-3.13c-.1-.05-.17-.06-.23,0-.03,.03,1.44,1.71,4.42,5.04,.15,.16,.16,.27,.06,.32-.25,.11-.84,.04-1.78-.2-.94-.25-1.7-.54-2.28-.87-1.95-1.11-3.27-2.99-3.98-5.65Z"/><path class="cls-4" d="M104.72,119.46c-.11-.01-.41-.3-.9-.85-.49-.56-.87-1.04-1.14-1.45-1.39-2.15-1.48-4.83-.26-8.04,.1-.26,.2-.51,.31-.76,.72,.45,1.33,.91,1.82,1.38,.98,.93,1.7,1.86,2.15,2.78h0c.77,1.65,.95,3.32,.54,5.03-.08,.34-.17,.67-.28,1l-2.4-5.98c-.04-.07-.09-.08-.15-.03-.05,.03-.07,.13-.06,.29,0,.11,.02,.35,.05,.7l.45,5.13c.03,.55,0,.82-.13,.8Z"/><path class="cls-4" d="M109.86,148.96c.01,.12-.03,.19-.15,.2l-.93-.1c-2.62-.36-4.51-1.6-5.69-3.7-.74-1.33-1.21-2.66-1.43-3.98,.83-.05,1.68-.02,2.57,.1,1.83,.24,3.33,.88,4.51,1.95,.8,.72,1.46,1.65,1.97,2.78,.13,.3,.26,.6,.36,.91l-4.87-3.03c-.3-.19-.49-.3-.59-.36-.13-.08-.22-.1-.24-.06-.05,.07,0,.18,.17,.32l4.3,4.98Z"/><path class="cls-4" d="M112.16,171.67c-1.17,.85-1.74,1.29-1.73,1.33,.03,.05,.1,.07,.21,.03,.08-.02,.24-.07,.49-.16l5.61-1.91c.12-.04,.2-.07,.24-.07,.06,0,.1,0,.13,.03,.07,.08,.06,.22-.07,.43-1.08,2.08-2.56,3.44-4.45,4.08-1.14,.39-2.56,.53-4.27,.43l-1.4-.22c.19-.65,.53-1.43,1.02-2.32,1.6-2.93,3.87-4.34,6.8-4.22,.33,.02,.65,0,.96-.03l-3.56,2.6h0Z"/><path class="cls-4" d="M112.18,163.3h0s6.29-3.49,6.29-3.49l-.43,1.44c-1.35,3.13-3.87,4.85-7.55,5.16l-1.44,.02c.39-1.59,.74-2.73,1.06-3.41,1.1-2.36,2.91-3.83,5.45-4.41,.5-.11,.76-.13,.77-.03,0,.08-.03,.17-.13,.28-.07,.08-.21,.23-.43,.46l-3.52,3.67c-.2,.2-.29,.33-.26,.38,.01,.03,.07,0,.17-.06Z"/><path class="cls-4" d="M118.34,114.22l-4.25-5.01s-.04,.02-.07,.05c-.03,.05-.04,.1-.02,.16,0,.04,.04,.12,.09,.23l2.65,6.25-1.55-.69c-2.55-1.53-3.93-3.87-4.15-7.01-.04-.54,.02-1.32,.17-2.34,1.54,.55,2.63,1.01,3.27,1.4,1.03,.62,1.86,1.36,2.47,2.23h0c.74,1.05,1.18,2.29,1.34,3.71,.04,.35,.06,.69,.06,1.03Z"/><path class="cls-4" d="M116.84,123.2l-.07,.02h.06s.02-.02,.02-.02Zm-1.64-3.94c.99,.68,1.78,1.32,2.35,1.93,.71,.75,1.25,1.51,1.62,2.29,.83,1.73,.98,3.52,.44,5.34-.09,.26-.18,.38-.28,.35l-2.21-5.49-.26-.43s-.03-.03-.05-.03c-.03,.03-.03,.12-.03,.26,0,.12,.03,.37,.06,.76l.53,6.31c-2.68-2.01-3.77-4.59-3.3-7.72,.15-.97,.42-1.91,.8-2.83l.3-.73Z"/><path class="cls-4" d="M125.17,149.96l-1.19,.47c-2.9,.74-5.42,.13-7.57-1.83-.66-.61-1.34-1.38-2.04-2.33,1.22-.56,2.17-.92,2.86-1.08,2.52-.6,4.73-.2,6.64,1.21h0c.17,.13,.66,.55,1.46,1.26l-5.73-.78c-.35-.05-.58-.07-.69-.08-.16-.01-.23,0-.24,.06,0,.03,.1,.1,.3,.2,.16,.08,.46,.23,.92,.44l5.27,2.47Z"/><path class="cls-4" d="M124,104.07c0,.12,.03,.36,.06,.72l.51,6c-.51-.41-1.02-.91-1.54-1.5-2.28-2.62-2.58-5.73-.9-9.34,.08-.17,.16-.33,.25-.5l1.7,1.3c.86,.79,1.55,1.65,2.06,2.58h0c.82,1.52,1.03,3.45,.63,5.8-.03,.16-.11,.23-.24,.22-.08,0-.16-.14-.23-.4-.03-.12-.16-.44-.38-.96l-1.42-3.45c-.19-.46-.29-.69-.31-.71-.02-.02-.05-.03-.08-.03-.03,0-.06,0-.07,0-.03,.02-.05,.11-.04,.27Z"/><path class="cls-4" d="M127.59,135.91l-2.26-5.51c-.03-.09-.08-.19-.14-.29-.06-.1-.1-.16-.11-.16-.09-.01-.1,.24-.03,.75l.55,6.5c-3.74-2.79-4.47-6.52-2.2-11.18,.6,.32,1.31,.85,2.11,1.59,.79,.73,1.43,1.6,1.91,2.62h0c.87,1.84,.97,3.69,.29,5.55-.05,.12-.09,.16-.13,.13Z"/><path class="cls-4" d="M128.32,125.03c-2.97-1.69-4.38-4.51-4.25-8.48l.03-.92c1.25,.37,2.29,.78,3.1,1.23,1.17,.64,2.09,1.43,2.75,2.36,.71,1.01,1.17,2.23,1.37,3.68,.05,.38,.08,.76,.09,1.14l-4.27-4.99s-.06,0-.07,.05c-.04,.09,0,.25,.14,.46l2.56,6.07-1.44-.59Z"/><path class="cls-4" d="M133.81,99.43c-.06,0-.12,.09-.19,.23-.05,.1-.15,.33-.29,.67l-2.35,5.53c-.3-.77-.52-1.46-.64-2.05-.67-3.16,.46-6,3.39-8.52l.59-.51,1.03,2.28c.46,1.41,.63,2.65,.5,3.73-.2,1.62-.92,3.17-2.16,4.67-.1,.11-.2,.14-.29,.08-.04-.03-.05-.18,0-.45,.1-.83,.22-1.97,.36-3.42,.13-1.45,.19-2.18,.17-2.2-.03-.02-.06-.03-.1-.03Z"/><path class="cls-4" d="M138.21,116.67c.01,.23-.03,.36-.12,.37-.1,.01-.56-.47-1.38-1.46l-2.32-2.78c-.16-.19-.26-.31-.33-.37-.08-.08-.17-.13-.26-.13l2.81,6.7-1.65-.75c-2.94-1.76-4.28-4.54-4.03-8.36l.06-.91c1.25,.36,2.17,.7,2.76,1.01,1.31,.69,2.35,1.61,3.16,2.76,.67,.96,1.1,2.27,1.3,3.91Z"/><path class="cls-4" d="M135.05,130.71c.68,.75,1.21,1.55,1.61,2.4,.77,1.67,.85,3.53,.25,5.6-.06,.23-.1,.34-.14,.35-.1,.02-.34-.52-.72-1.63l-1.28-3.73c-.08-.23-.13-.38-.16-.45-.04-.1-.1-.15-.16-.14-.06,0-.07,.32-.02,.95l.15,6.17c-.36-.24-.85-.76-1.47-1.57-.88-1.15-1.38-2.4-1.5-3.75-.14-1.67,.23-3.45,1.12-5.32l.33-.7,2,1.81Z"/><path class="cls-4" d="M142.65,100.44c.07-.42,.17-.83,.29-1.21,.34-.25,.69-.49,1.08-.7,.22-.13,.44-.24,.66-.34l.65,2c.76,3.2,.02,5.89-2.22,8.08-.33,.33-.54,.45-.63,.38-.04-.03-.02-.18,.06-.44l1.22-5.55c0-.05,0-.1-.03-.14-.02-.04-.05-.07-.08-.07-.02,0-.05,.04-.09,.11l-3.38,5.86c-.07,.03-.14,0-.21-.07-.09-.09-.17-.49-.26-1.21-.09-.72-.13-1.32-.11-1.78,.03-.82,.19-1.61,.5-2.39,.5-1.25,1.23-2.32,2.19-3.2l.31,.75s.02,.04,.03,.04c.01,0,.03-.05,.04-.13Z"/><path class="cls-4" d="M141.24,178.7c-.01-.69,.04-1.05,.17-1.07,.06,0,.12,.02,.16,.08,.03,.04,.1,.14,.19,.28l2.73,4.42c.12,.19,.2,.31,.25,.38,.07,.09,.14,.16,.22,.22,.08,0,.07-.1-.01-.26l-1.77-6.92c1.24,.85,2.12,1.56,2.62,2.11,1.79,1.97,2.34,4.59,1.64,7.85l-.18,.83-1.49-.69c-2.98-1.8-4.5-4.21-4.54-7.23Z"/><path class="cls-4" d="M144.3,115.29l-.18,.03s.07,0,.11,.03c.02-.03,.04-.06,.07-.06Zm-.51-2.89c1.35,1.01,2.34,2.11,2.96,3.29h0c.84,1.64,1.05,3.35,.62,5.13-.04,.15-.08,.21-.13,.2-.06-.01-.13-.1-.22-.25-.06-.11-.18-.34-.35-.69l-2.07-4.17c-.16-.3-.29-.49-.39-.57-.04,.1-.02,.33,.07,.69l1.05,6.59c-.63-.47-1.21-.98-1.75-1.55-2.02-2.09-2.62-4.75-1.81-7.98,.04-.16,.22-.68,.55-1.58l1.47,.88Z"/><path class="cls-4" d="M149.58,129.22h-.03s-.07,.1-.08,.27c0,.11-.02,.36-.03,.72l-.22,6.02c-.5-.51-.92-1.03-1.27-1.56-1.72-2.63-1.85-5.45-.39-8.46l.76-1.43,1.37,1.24c.88,.97,1.53,1.93,1.93,2.89,.84,2,.82,4.01-.07,6.04-.04,.1-.1,.13-.17,.12-.05,0-.1-.07-.13-.19-.03-.08-.08-.26-.15-.52l-1.18-4.34c-.1-.51-.22-.78-.35-.81Z"/><path class="cls-4" d="M148.99,104.76c.1-.62,.27-1.21,.52-1.79,.37-.85,.9-1.63,1.6-2.34-.51,.78-.8,1.57-.88,2.36-.08,.93,.13,1.86,.65,2.78l-1.24,1.78c-.26,.35-.43,.51-.53,.49-.11-.03-.18-.44-.21-1.22-.03-.78,0-1.47,.09-2.06Zm3.49,2.86c-.11-.68-.16-1.29-.15-1.83l1-3.2c-.01-.12-.06-.16-.14-.13l-.19,.27,.09-.18c.45-.87,1.12-1.62,2.02-2.26,.47,3.49-.54,6.14-3.01,7.95-.23,.16-.46,.33-.69,.47l.49-1.55,.61,.67-.03-.22Z"/><path class="cls-4" d="M150.75,115.1h0c.73-1.66,2.01-3.06,3.86-4.22l.6-.38,.66,1.87c.85,3.37,.12,6.11-2.18,8.24-.06,.05-.14,.14-.25,.26-.11,.13-.21,.18-.29,.14-.07-.03-.09-.12-.07-.25,.01-.1,.05-.29,.12-.58l.98-4.37c.09-.45,.11-.71,.06-.77-.01-.02-.03-.03-.06-.03-.05,0-.11,.06-.19,.18-.05,.09-.16,.26-.32,.54l-3.07,5.32c-.18-.57-.32-1.32-.4-2.27-.13-1.33,.06-2.56,.55-3.69Z"/><path class="cls-4" d="M160.64,183.61l-2.52-.16c-3.11-.43-5.32-2.11-6.63-5.03-.12-.28-.16-.44-.12-.49,.03-.04,.1-.04,.2,.02,.07,.04,.22,.13,.44,.27l3.62,2.31c.75,.48,1.15,.71,1.21,.7,.01-.02-.01-.09-.08-.2-.07-.11-.16-.24-.28-.37l-3.51-4.2c-.18-.21-.29-.35-.35-.42-.07-.1-.11-.18-.1-.23,0-.07,.11-.1,.31-.1,.61-.03,1.37,.14,2.3,.49,.92,.35,1.68,.76,2.28,1.24,1.37,1.09,2.37,2.84,3.01,5.25,.08,.31,.16,.62,.22,.93Z"/><path class="cls-4" d="M157.78,171.36c.69-.3,1.36-.52,2.01-.67,3.12-.69,5.89,.28,8.31,2.93l.77,.92-2.05,.96c-3.36,1.22-6.24,.72-8.66-1.51-.03-.03-.05-.07-.05-.11,0-.04,.02-.07,.06-.09,.07-.04,.17-.07,.3-.06,.09,0,.28,.02,.56,.05l4.51,.42c.58,.04,.9,.02,.95-.06l-6.66-2.75h-.03s-.02-.02-.02-.02Z"/><path class="cls-4" d="M158.72,117.03c-.12-.01-.2-.42-.23-1.22-.03-.8,0-1.51,.09-2.12,.08-.56,.25-1.14,.5-1.72h0c.78-1.83,2.16-3.25,4.14-4.26,.15,.56,.41,1.08,.78,1.56,.23,.29,.51,.57,.83,.83,.2,2.91-.84,5.27-3.11,7.07-.33,.26-.52,.35-.57,.26-.04-.07,0-.26,.11-.55l1.69-5.31c0-.19-.04-.26-.13-.23l-3.6,5.21c-.1,.13-.19,.24-.29,.34-.1,.1-.17,.14-.21,.14Z"/><path class="cls-4" d="M162.72,143.56c.01-.1,.06-.3,.12-.62l1.04-4.68,.13-.79-.02-.02s-.11,.08-.24,.29c-.1,.16-.29,.47-.55,.94l-2.91,5.06c-.21-.68-.34-1.35-.41-2.03-.13-1.33,0-2.49,.36-3.49h0c.73-1.93,2.07-3.47,4.02-4.64,.2-.12,.39-.23,.59-.33l.63,1.7c1.02,3.68,.2,6.57-2.47,8.67-.03,.02-.07,.06-.12,.12-.04,.05-.09,.07-.12,.06-.08-.03-.11-.11-.09-.25Z"/><path class="cls-4" d="M165.15,124.3l.18-.04,.04-.03-.22,.07Zm-.09,6.34c-.05-.04-.07-.14-.07-.29,0-.11,0-.33,.03-.66l.29-4.55,.08-.87s-.02-.01-.06,0c-.03,.03-.07,.08-.13,.15-.07,.1-.11,.19-.13,.25l-2.45,6.44c-.3-.67-.53-1.33-.69-1.98-.71-2.94,.1-5.64,2.42-8.09,.4-.43,.81-.76,1.22-1.01l.79,1.42c.74,1.7,1.05,3.23,.93,4.58h0c-.07,.8-.3,1.61-.68,2.46-.37,.84-.82,1.53-1.34,2.06-.1,.12-.18,.16-.23,.11Z"/><path class="cls-4" d="M169.75,116.46l2.54-6.21s-.02-.06-.03-.07c-.04,0-.12,.05-.23,.19-.09,.1-.26,.3-.51,.61l-3.84,4.68s-.06,0-.08-.02c-.15-.15-.2-.69-.13-1.62,.06-.93,.19-1.7,.39-2.32,.1-.3,.21-.59,.34-.86h0c.91-1.96,2.57-3.4,4.97-4.33l.55-.21c.06,.16,.12,.31,.18,.46l.07,.16,.23,2.01c.06,3.16-1.15,5.51-3.63,7.06l-.79,.49Z"/><path class="cls-4" d="M174.77,173.12c-2.96-.21-5.17-1.57-6.63-4.07-.32-.55-.46-.86-.4-.93,.06-.09,.2-.07,.42,.07l4.2,2.32c.35,.2,.59,.32,.72,.38,.16,.08,.27,.11,.33,.1l.03-.02s0-.08-.05-.15c-.04-.06-.13-.15-.26-.29l-4.68-4.81c1.39,.09,2.45,.23,3.17,.45,2.57,.76,4.4,2.79,5.47,6.09l.27,.83-2.58,.03Z"/><path class="cls-4" d="M176.67,128.1c-.99,3.16-3.11,5.12-6.34,5.87-.18,.03-.29-.01-.31-.13l4.05-4.44c.1-.1,.14-.18,.12-.23-.03-.07-.13-.07-.28,.01l-5.57,3.26c-.13,.07-.21,.08-.26,.04-.11-.13,.03-.65,.42-1.59,.34-.82,.84-1.61,1.49-2.36,1.66-1.9,4.05-2.78,7.17-2.64l-.49,2.21Z"/><path class="cls-4" d="M169.46,159.59c.07-.09,.25-.05,.52,.11,.19,.1,.56,.29,1.13,.56l3.51,1.68c.45,.21,.68,.32,.69,.31,.01,0,.03-.01,.03-.02,0,0,.02-.02,.02-.03l-5.36-5.07c.82-.02,1.57,.03,2.26,.14,3.23,.55,5.46,2.58,6.71,6.11l.26,.75-2.42,.17c-3.15-.1-5.52-1.46-7.1-4.08-.22-.36-.31-.57-.26-.62Z"/><path class="cls-4" d="M171.65,122.22c-.09-.1,0-.48,.27-1.14,.26-.66,.56-1.24,.89-1.76,.26-.41,.52-.75,.75-1.02,1.42-1.59,3.46-2.47,6.11-2.63,.27-.02,.61,.02,1.01,.12l-.29,1.7c-.93,3.37-2.95,5.43-6.05,6.16l-.61,.14c-.12-.04-.14-.12-.07-.24l4.1-4.51s.04-.04,.06-.07c.01-.03,.02-.04,.01-.05-.02-.03-.06-.04-.13-.03-.07,0-.13,.03-.2,.07l-5.69,3.31c-.07,0-.13-.02-.16-.06Z"/><path class="cls-4" d="M179.23,142.56c.64-.12,1.1-.19,1.37-.23,.08,0,.16-.04,.23-.09,.07-.05,.1-.1,.1-.15,0-.04-.3-.09-.89-.15l-6.38-.75c.91-.63,1.55-1.04,1.93-1.24h0c2.87-1.47,6.01-1.08,9.43,1.19l.33,.21-1.44,1.14c-2.75,2.18-5.65,2.62-8.7,1.34-.34-.14-.5-.28-.49-.39,0-.02,.23-.08,.7-.17,.46-.1,1.05-.21,1.77-.34l2.03-.36Z"/><path class="cls-4" d="M186.73,150.88l-1.94,1.09c-3.11,1.44-6.02,1.14-8.72-.93-.05-.05-.07-.1-.04-.17,.02-.05,.1-.08,.23-.09,.1,0,.3,0,.6,0l4.97,.05c.28,.01,.42-.01,.42-.07,0-.05-.07-.1-.23-.16-.1-.04-.33-.12-.68-.23l-5.7-1.89c.14-.13,.29-.23,.44-.33h-.03c.53-.27,1.11-.48,1.73-.63,2.48-.62,4.79-.14,6.91,1.42l1.58,1.43,.46,.52Z"/><path class="cls-4" d="M184.35,130s.06-.05,.05-.07c-.03-.06-.12-.05-.27,.03-.1,.05-.33,.18-.66,.37l-5.5,3.21c.43-1.33,.85-2.35,1.28-3.08,.21-.36,.48-.72,.81-1.08,1.55-1.72,3.67-2.59,6.35-2.62,.29,0,.58-.02,.87-.03l-.61,2.52c-1.05,2.99-3.11,4.84-6.18,5.56-.22,.04-.35,.02-.39-.06-.02-.03,.01-.1,.1-.2,.06-.07,.2-.22,.4-.45l3.76-4.11Z"/><path class="cls-4" d="M188.59,160.73l.65,1.78-1.75,.23c-3.42,.09-5.97-1.22-7.68-3.93-.13-.22-.27-.54-.45-.98l5.8,2.84c.06,0,.1-.02,.11-.07,.01-.03,0-.07-.05-.13-.03-.03-.11-.11-.22-.22l-4.92-4.65c1.53,.03,2.58,.13,3.17,.29,2.41,.68,4.19,2.28,5.33,4.81Z"/><path class="cls-5" d="M176.05,95.38s0-.1-.02-.14c-.05-.31-.15-.58-.29-.82l-.07-.12c.08,.02,.18,.04,.28,.09,.82,.35,1.28,1.14,1.35,2.36l.02,.36c0,.15,0,.35-.03,.59-.02,.24-.04,.43-.06,.56h0c-.07-.15-.15-.29-.25-.42-.26-.37-.63-.74-1.14-1.09,.16-.55,.22-1.01,.2-1.37Zm-8.14,6.32c-.51,.6-.88,1.11-1.14,1.55l-.24,.4c-.45,.83-.72,1.69-.8,2.58-.01,.11-.02,.29-.01,.55,0,.26,0,.43,.02,.52,.07,.49,.15,.93,.26,1.32,.27,.93,.73,1.85,1.38,2.75,.03,.04,.03,.06,.02,.07,0,0-.23-.08-.66-.26-1.24-.51-2.16-1.16-2.76-1.93-.61-.8-.92-1.7-.93-2.72,0-.53,.06-1.08,.19-1.66,.1-.43,.23-.84,.4-1.21,.39-.86,1.26-1.94,2.6-3.24l.06-.06c.19,.45,.49,.8,.92,1.06,.21,.13,.44,.23,.69,.28Zm-8.2-6.03l.2-.19c.33-.31,.54-.66,.64-1.07l.17,.13,.06,.17c.18,.6,.06,1.23-.35,1.87-.6,.96-1.51,1.72-2.72,2.29-1.18,.56-2.01,1-2.49,1.33-.95,.65-1.67,1.44-2.13,2.33-.46,.88-.71,1.88-.76,3-.03,.59,.03,1.29,.15,2.07l.03,.22-.67-.74c-1.2-1.36-1.73-2.73-1.6-4.11,.09-.92,.47-1.83,1.14-2.75,.15-.2,.31-.39,.5-.61,.19-.21,.36-.37,.51-.5,.71-.59,1.86-1.17,3.43-1.72l1.69-.6,.58-.23c.7-.3,1.24-.61,1.63-.92Zm-24.28-12c.46-.86,1.16-1.5,2.09-1.91,.79-.35,1.7-.53,2.71-.55,1.03-.02,2.43,.4,4.18,1.26,1.7,.82,2.87,1.3,3.53,1.43l.2,.03c.11,.23,.26,.44,.45,.63,.11,.1,.22,.2,.34,.28-.46,.24-1.05,.37-1.77,.39-.24,0-.53-.01-.87-.05s-.63-.09-.86-.15c-.32-.08-.8-.23-1.42-.46-1.2-.43-2.25-.67-3.15-.72-.75-.03-1.49,.07-2.21,.31-.92,.31-1.78,.86-2.61,1.63-.39,.37-.79,.83-1.2,1.38-.12,.16-.18,.24-.2,.23,0,0,0-.03,0-.09l.04-.85c.01-.28,.05-.59,.11-.93,.06-.33,.13-.62,.2-.85,.12-.38,.26-.72,.43-1.02Zm6.83,11.35c.54-.98,1.45-1.78,2.72-2.42,.61-.31,1.33-.5,2.16-.59l.32-.03c.66-.04,1.39-.06,2.19-.05l1.27,.02c.92-.02,1.62-.08,2.09-.18,.61-.13,1.08-.36,1.43-.69,.17-.16,.3-.31,.37-.44,0,0,.01-.01,.02,0,.02,.02,.04,.11,.05,.29,0,.1,0,.21-.03,.36s-.06,.27-.1,.37c-.32,.78-1.1,1.41-2.34,1.88-.64,.24-1.37,.39-2.22,.46l-.97,.1c-1.08,.11-2.03,.37-2.84,.78-1.28,.64-2.25,1.63-2.91,2.98-.38,.78-.65,1.64-.82,2.59-.01,.08-.03,.12-.04,.13,0,0-.02,0-.03-.04l-.22-.53c-.47-1.15-.69-2.19-.65-3.11,.03-.66,.2-1.28,.53-1.86Zm14.02-33.8c.32-.26,.65-.5,.98-.73,.5,.76,1.14,1.37,1.9,1.83-.24,.16-.48,.32-.72,.49-.71,.51-1.37,1.08-1.99,1.7-1.01,1.02-1.88,2.15-2.58,3.38-.98,1.7-1.63,3.53-1.97,5.51-.1,.59-.17,1.19-.2,1.78-.1-.13-.2-.24-.29-.35-.38-.43-1.08-.98-2.09-1.67,.29-1.91,.88-3.76,1.77-5.55,.92-1.86,2.11-3.5,3.56-4.94,.54-.53,1.08-1.01,1.62-1.45Zm33.89,28.84l4.95,3.96c-.56-.04-1.11-.2-1.67-.47-.71-.34-1.37-.83-2-1.46-.16-.16-.34-.38-.52-.65-.19-.26-.34-.52-.48-.78-.08-.16-.18-.37-.28-.61Zm-12.59,2.43c-1.41,.82-2.87,1.43-4.38,1.85l-.33,.09-.11-.11c-.12-.17-.27-.32-.45-.46l-1.6-1.61c1.34-.22,2.64-.6,3.91-1.14,1.49-.64,2.87-1.51,4.14-2.6l.4-.36c.18-.16,.41-.38,.68-.66,.28-.28,.49-.52,.65-.71,.8-.95,1.48-1.95,2.06-3.02,.18,.17,.37,.34,.58,.5l1.47,1.14c-.29,.5-.59,.99-.93,1.48-.78,1.14-1.67,2.16-2.68,3.09-1.06,.98-2.19,1.82-3.42,2.52Zm-33.67-41.92c-.06-.01-.12-.02-.16-.03-.01,0-.02,0-.03-.01,0,0-.01-.02-.01-.03,0,0,.02-.01,.06-.03l.93-.38,.34-.12c.23,.42,.51,.8,.84,1.15-.59-.24-1.24-.43-1.95-.56Zm48.7,51.03s.06,.03,.05,.04l-.95,.39c-.82,.33-1.6,.49-2.35,.49-.32,0-.59-.01-.8-.05-1.08-.16-2.03-.71-2.83-1.64-.59-.68-1.01-1.4-1.28-2.17-.3-.87-.44-2.22-.41-4.03l.02-1.22c-.02-.79-.05-1.38-.11-1.77-.09-.65-.27-1.17-.54-1.55-.17-.25-.37-.45-.61-.62l-.11-.07c.24-.03,.42-.03,.52-.03,.75,.06,1.38,.51,1.9,1.36,.46,.75,.76,1.6,.89,2.55,.02,.13,.04,.36,.07,.67,.03,.32,.06,.59,.07,.81l.08,.56c.22,1.62,.77,2.92,1.64,3.89,.99,1.11,2.39,1.87,4.21,2.29,.22,.05,.39,.08,.53,.1Zm-42.85-32.99c-1.05,.44-2.13,.02-3.25-1.29-.48-.56-.93-1.28-1.34-2.15-.36-.76-.67-1.36-.94-1.78-.82-1.29-1.86-2.19-3.14-2.69-.64-.25-1.32-.4-2.04-.45l-.36-.03c-.65-.01-1.35,.04-2.09,.16l-.18,.02c.56-.51,.94-.85,1.14-1.01,.18-.14,.38-.28,.59-.42,1.32-.85,2.64-1.08,3.96-.69,.82,.24,1.65,.73,2.47,1.45,.79,.7,1.48,1.87,2.07,3.5l.76,2.11c.3,.82,.59,1.44,.88,1.86,.45,.66,.96,1.08,1.55,1.23l.13,.03-.22,.12Zm.38-11.79c-.18-1.28-.56-2.35-1.12-3.2l-.07-.1,3.33,2.41,.02,.02c.01,.37,.02,.68,.02,.93,0,.43,0,.76-.01,.99v.84c0,.79,.04,1.38,.09,1.77,.09,.66,.27,1.2,.55,1.6,.16,.23,.36,.43,.6,.6l.1,.07-.4,.03c-1.16-.01-2.03-.92-2.62-2.71-.19-.59-.34-1.48-.44-2.68l-.07-.57Zm-17.21,18.42l-.13,.08h0s.02-.09,.08-.23l.32-.76c.37-.79,.79-1.45,1.27-1.96,.1-.11,.21-.21,.32-.31l.09,.1v.02c.5,.52,.96,.92,1.39,1.21,.14,.1,.29,.19,.46,.28-.49,.07-.97,.19-1.43,.34-.75,.25-1.54,.66-2.36,1.23Z"/><path class="cls-6" d="M12.19,109.13c-.91-.18-1.59,0-2.05,.52-.36,.41-.63,1.1-.83,2.08-.14,.7-.1,1.1,.1,1.19,.25,.1,.99,.26,2.26,.52,.16,.03,.39,.07,.67,.12,.28,.05,.49,.09,.65,.12,.03,0,.07,.01,.09,.02,.1,.01,.4-.91,.56-1.74,.32-1.62-.16-2.56-1.45-2.81Zm10.89-2.71c.06,.01,.08,.1,.07,.24,0,.29-.13,1-.35,2.14-.19,.97-.34,1.63-.46,1.96-.06,.16-.09,.25-.11,.27-.03,.04-.12,.08-.25,.11-.32,.06-.78,.13-1.39,.24-.8,.14-1.98,.37-3.55,.7-.32,.08-.53,.36-.66,.83,0-.04,.01-.06,.02-.06,0,0-.07,.4-.22,1.21-.03,.11,.15,.2,.56,.28,.5,.1,1.26,.2,2.26,.3,1.02,.1,1.78,.2,2.29,.3,.12,.03,.19,.07,.2,.14-.1,.78-.16,1.18-.37,2.22-.24,1.22-.38,1.83-.47,2.05-.08,.2-.22,.29-.41,.25-.81-.16-2.03-.44-3.67-.85-1.59-.39-2.8-.67-3.62-.83-.02,0-.04,0-.06-.01-.04,0-.08-.02-.12-.03-3.08-.61-5.5-1.01-7.26-1.21l-.17-.02c-.12-.02-.17-.16-.17-.4,0-.25,.18-1.38,.53-3.42,.23-1.3,.42-2.35,.58-3.15,0-.05,.02-.1,.03-.14,0,0,0,0,0-.01,.33-1.68,.98-2.98,1.96-3.9,1.1-1.04,2.45-1.39,4.08-1.08,1.09,.22,1.92,.54,2.51,.98,.58,.44,1.1,1.14,1.54,2.09,.09,.19,.19,.3,.29,.32,0,0,1.02-.27,3.06-.81,2.05-.53,3.17-.78,3.36-.75Z"/><path class="cls-6" d="M23.91,93.09c.31,.1,.85,.35,1.64,.75,.85,.43,1.35,.72,1.49,.87,.11,.13,.14,.27,.09,.42-.02,.07-.07,.17-.14,.32-.24,.49-.76,1.95-1.56,4.37l-.16,.48c-.17,.53-.42,1.25-.72,2.16-.3,.9-.55,1.62-.72,2.15-.03,.11-.07,.21-.1,.3-.08,.23-.22,.32-.43,.25-.01,0-.03,0-.04-.01-.81-.27-1.98-.7-3.53-1.31-1.58-.62-2.78-1.07-3.58-1.33-1.29-.42-3.99-1.21-7.23-2.11-.1-.03-.08-.02-.19-.05-.14-.05-.19-.16-.13-.34,0-.03,.02-.06,.03-.09,.18-.53,.45-1.29,.81-2.29,.36-1,.62-1.76,.8-2.29,.01-.03,.02-.06,.03-.09,.01-.03,.02-.06,.03-.09,.17-.52,.41-1.29,.71-2.29,.3-1.01,.53-1.77,.71-2.29,.1-.3,.17-.42,.3-.52,.1-.07,.22-.1,.36-.08,.36,.04,2.64,.56,3.11,.71,.17,.06,.22,.15,.16,.32-.02,.04-.04,.11-.08,.2-.78,1.84-1.42,3.51-1.92,5.02,0,.02,0,.03-.01,.05,0,0,0,0,0,.01-.13,.37-.11,.63,.04,.78,.08,.06,.35,.17,.82,.33,.48,.16,.83,.2,1.04,.1,.18-.07,.32-.28,.43-.62,0,0,0,0,0-.01,0-.01,0-.03,.01-.04,.03-.08,.07-.2,.11-.38,.06-.21,.1-.39,.15-.52,.01-.03,.02-.06,.03-.09,.29-.88,.56-1.77,.8-2.68,.02-.08,.07-.29,.14-.61,.05-.24,.1-.43,.14-.57,.07-.2,.17-.26,.34-.2-.02,0-.03,0-.03,0,0,.01,.53,.26,1.61,.74,.56,.25,1.12,.47,1.7,.66,.14,.05,.18,.17,.11,.38,0,.02-.15,.33-.43,.94-.22,.49-.47,1.19-1.36,3.92-.1,.29-.08,.49,.04,.59,.03,.01,.19,.07,.48,.16,.06,.02,.12,.04,.19,.07,.01,0,.03,0,.03,.01,.52,.17,.88,.25,1.05,.23,.31-.03,.62-.44,.94-1.22l.52-1.57c.12-.38,.28-.96,.46-1.73,.17-.75,.32-1.31,.44-1.69,0,0,0-.02,0-.03,.05-.16,.2-.2,.46-.11h0Z"/><path class="cls-6" d="M25.06,79.85c-1.15-.56-2.26-.67-3.32-.34-1.09,.34-1.91,1.08-2.46,2.22-.5,1.05-.62,1.64-.34,1.77,.4,.2,1.01,.49,1.81,.89,.8,.4,1.4,.7,1.8,.89,.39,.2,.99,.47,1.8,.85,.79,.37,1.39,.65,1.8,.84,.29,.14,.7-.33,1.22-1.4,0,0,0-.01,0-.02,0,0,0,0,0,0,.56-1.17,.62-2.28,.16-3.33-.43-.99-1.25-1.78-2.47-2.36Zm1.89-3.91c2,.96,3.43,2.45,4.28,4.44,.76,1.77,.68,3.7-.25,5.79-.18,.4-.69,1.49-1.55,3.27-.16,.33-.41,.83-.75,1.48-.34,.66-.6,1.16-.76,1.5-.1,.2-.22,.26-.38,.18-.75-.36-1.86-.93-3.33-1.71-1.47-.78-2.59-1.35-3.33-1.71-.78-.38-1.97-.92-3.55-1.61-1.59-.7-2.78-1.24-3.56-1.61-.14-.07-.18-.2-.11-.42,.18-.51,.54-1.31,1.07-2.42,1.01-2.09,1.7-3.44,2.06-4.03,.94-1.54,1.96-2.6,3.05-3.2,1.02-.56,2.21-.82,3.55-.79,1.27,.03,2.45,.3,3.55,.84,0,0,0,0,.01,0Z"/><path class="cls-6" d="M38.6,66.31c.27,.18,.73,.56,1.39,1.14,.71,.63,1.12,1.05,1.21,1.23,.07,.15,.06,.29-.02,.42-.04,.06-.11,.15-.22,.27-.36,.41-1.24,1.69-2.64,3.82l-.28,.42c-.31,.47-.73,1.1-1.26,1.9-.53,.79-.95,1.42-1.25,1.89-.07,.1-.12,.18-.17,.26-.14,.2-.3,.25-.48,.13-.01,0-.03-.02-.04-.03-.71-.46-1.73-1.19-3.07-2.18-1.37-1.01-2.41-1.75-3.11-2.21-1.14-.75-3.54-2.21-6.44-3.91-.1-.05-.07-.04-.16-.1-.13-.08-.14-.2-.04-.36,.02-.03,.03-.05,.05-.08,.31-.47,.76-1.14,1.37-2.01,.61-.87,1.06-1.54,1.37-2,.02-.03,.03-.06,.05-.08,.02-.02,.03-.05,.05-.08,.3-.46,.73-1.14,1.28-2.03,.55-.89,.98-1.57,1.28-2.03,.17-.26,.27-.36,.43-.42,.11-.04,.24-.04,.36,.01,.34,.13,2.41,1.23,2.81,1.5,.15,.1,.17,.2,.07,.35-.03,.04-.07,.1-.13,.17-1.23,1.57-2.28,3.02-3.15,4.35,0,.02-.02,.03-.03,.05,0,0,0,0,0,0-.22,.33-.27,.58-.16,.76,.06,.08,.29,.25,.7,.52,.43,.28,.75,.4,.98,.37,.19-.03,.38-.19,.58-.49,0,0,0,0,0-.01,0,0,.01-.02,.03-.03,.04-.07,.11-.19,.21-.34,.1-.19,.2-.34,.28-.47l.05-.08c.51-.77,.99-1.57,1.47-2.38,.04-.07,.14-.26,.29-.56,.11-.22,.2-.39,.29-.52,.11-.17,.23-.2,.38-.1-.02,0-.02-.01-.03-.01,0,.01,.45,.39,1.37,1.13,.47,.38,.96,.74,1.46,1.08,.13,.08,.13,.22,0,.4,0,.01-.23,.28-.65,.79-.34,.41-.76,1.03-2.33,3.43-.17,.26-.2,.45-.11,.58,.02,.02,.16,.12,.41,.29,.05,.03,.11,.07,.17,.11,0,0,.02,.01,.03,.02,.46,.3,.78,.47,.96,.49,.31,.05,.72-.26,1.22-.94l.91-1.38c.22-.33,.52-.85,.89-1.56,.36-.68,.65-1.18,.86-1.51,0,0,.01-.01,.02-.02,.09-.14,.25-.13,.47,0,0,0,0,0,0,0Z"/><path class="cls-6" d="M46.62,62.16s-.07,.09-.11,.13c-.59,.7-.95,1.09-1.06,1.18-.12,.09-.28,.11-.49,.06-1.85-.45-3.71-.9-5.57-1.35-2.97-.72-4.6-1.21-4.87-1.44-.46-.39-1.13-.98-2.01-1.79-.89-.81-1.56-1.41-2.01-1.8-.21-.19-.27-.33-.17-.44,.25-.29,.76-.87,1.38-1.54,.62-.68,1.08-1.19,1.39-1.54,.12-.14,.24-.16,.36-.07,.43,.37,1.14,1.04,2.03,1.9,.88,.86,1.55,1.49,2.01,1.88,.36,.3,2.13,.8,5.31,1.5-.3-.8-.69-1.76-1.18-2.86-.65-1.49-1.11-2.34-1.36-2.56-1.09-.91-.82-.69-1.91-1.6-.85-.71-1.49-1.24-1.91-1.6-.16-.13-.22-.23-.2-.3,0,0,.08-.09,.23-.28,.27-.32,.66-.81,1.18-1.48,.51-.66,.91-1.15,1.18-1.47,.15-.17,.29-.2,.43-.08,.44,.38,1.1,.95,1.99,1.73,.88,.77,1.54,1.35,1.99,1.73,.35,.3,1.18,1.99,2.48,5.05,.44,1.14,1.11,2.84,2.04,5.09,.08,.16,.12,.26,.12,.29-.03,.12-.51,.73-1.2,1.54-.03,.03-.06,.07-.09,.1Z"/><path class="cls-6" d="M58.61,45.17c.22,.24,.57,.72,1.07,1.45,.53,.79,.82,1.29,.87,1.49,.03,.16-.01,.3-.13,.41-.06,.05-.14,.11-.28,.21-.45,.31-1.62,1.32-3.5,3.04l-.37,.34c-.42,.38-.98,.89-1.69,1.53-.71,.64-1.28,1.14-1.69,1.52-.08,.08-.16,.15-.23,.21-.19,.16-.35,.17-.5,0,0-.01-.02-.02-.03-.03-.57-.63-1.38-1.59-2.43-2.87-1.08-1.32-1.9-2.29-2.47-2.92-.92-1-2.88-3.02-5.26-5.38-.08-.07-.06-.06-.14-.13-.1-.11-.08-.23,.06-.36,.02-.02,.05-.04,.07-.07,.41-.38,1.02-.91,1.83-1.6,.81-.69,1.41-1.23,1.82-1.6,.02-.02,.05-.04,.07-.07,.02-.02,.05-.04,.07-.06,.41-.37,.99-.92,1.74-1.65,.75-.73,1.33-1.28,1.74-1.65,.23-.21,.36-.28,.52-.3,.13-.01,.24,.02,.36,.1,.29,.21,2.03,1.78,2.35,2.14,.12,.13,.12,.23-.02,.36-.03,.03-.09,.08-.16,.13-1.58,1.22-2.96,2.36-4.13,3.43-.01,.01-.03,.03-.04,.03,0,0,0,0,0,0-.29,.26-.4,.5-.35,.7,.04,.1,.22,.32,.55,.68,.34,.38,.63,.58,.85,.6,.19,.02,.41-.09,.68-.33,0,0,0,0,.01,0,0,0,.02-.02,.03-.03,.07-.06,.16-.15,.29-.27,.15-.16,.28-.29,.39-.39,.03-.02,.05-.04,.07-.07,.68-.62,1.35-1.27,2.01-1.94,.06-.06,.2-.22,.42-.46,.16-.19,.3-.33,.4-.43,.15-.14,.27-.14,.39,0,0-.01-.02-.02-.02-.02,0,0,.34,.49,1.04,1.43,.36,.49,.75,.96,1.15,1.41,.1,.11,.07,.24-.09,.39-.01,.01-.29,.22-.83,.61-.43,.32-.99,.81-3.11,2.75-.23,.2-.31,.38-.25,.53,.02,.03,.13,.16,.33,.38,.04,.04,.08,.1,.13,.15,0,0,.02,.02,.03,.03,.37,.41,.64,.65,.8,.72,.29,.12,.76-.08,1.42-.6l1.22-1.12c.29-.27,.71-.7,1.25-1.29,.52-.56,.92-.98,1.21-1.25,0,0,.01-.01,.02-.02,.13-.11,.28-.07,.46,.13h0Z"/><path class="cls-6" d="M70.75,40.9s-.06,.04-.09,.07c-.51,.37-1.18,.84-1.99,1.39-1.12,.77-1.82,1.25-2.09,1.44l-2.78,1.95s-.1,.07-.15,.1c-.26,.19-.62,.43-1.06,.72-.2,.1-.36,.07-.47-.1-.03-.03-.06-.07-.08-.11-.48-.66-1.17-1.63-2.05-2.91-.94-1.34-1.65-2.35-2.14-3.03-.02-.02-.03-.05-.05-.07-.51-.71-1.28-1.73-2.32-3.07-1.04-1.34-1.81-2.37-2.32-3.08-.02-.03-.03-.05-.05-.07-.1-.13-.05-.26,.13-.39,.19-.14,.47-.33,.85-.58,.37-.24,.65-.43,.83-.56,.2-.15,.49-.37,.88-.68,.36-.29,.63-.52,.84-.66,.01,0,.02-.02,.03-.03h0c.08-.06,.16-.04,.23,.06,.01,.02,0,0,.1,.15,.76,1.21,1.93,3,3.5,5.37l2.02,2.81c.43,.59,.75,1.04,.98,1.34,.06,.07,.12,.14,.18,.2,.06,.07,.14,.08,.23,.04,.82-.59,1.44-1.07,2.66-2.05,1.03-.83,1.82-1.44,2.37-1.84,.13-.09,.2-.12,.27-.11,.07,0,.12,.04,.19,.14,.75,1.03,1.31,1.98,1.7,2.84,.09,.18,.09,.32,.01,.43-.02,.03-.14,.13-.36,.29Z"/><path class="cls-6" d="M78.82,26.96s0,0,0,0c-.53-1-1.29-1.68-2.27-2.06-1.02-.39-2.03-.32-3.02,.21-.94,.5-1.54,1.31-1.78,2.42-.24,1.07-.1,2.09,.41,3.04,.55,1.02,1.3,1.71,2.25,2.07,1.01,.38,2.01,.29,3.02-.24,.94-.5,1.54-1.31,1.79-2.41,.24-1.05,.11-2.06-.4-3.01h0Zm3.79-2.02s0,0,0,0c1.11,2.07,1.38,4.16,.81,6.28-.58,2.15-1.91,3.78-3.97,4.89-2.07,1.11-4.16,1.31-6.29,.6-2.08-.69-3.68-2.07-4.78-4.13-1.11-2.07-1.38-4.17-.81-6.3,.58-2.17,1.9-3.81,3.96-4.91t0,0s0,0,0,0c2.04-1.1,4.13-1.28,6.27-.57,2.1,.7,3.71,2.09,4.81,4.14Z"/><path class="cls-6" d="M93.19,19.17c-.6-1.65-1.71-2.19-3.32-1.6-1.14,.41-1.72,.69-1.72,.84-.02,.11,.24,.89,.76,2.33,.14,.39,.23,.61,.44,1.12,.17,.42,.29,.74,.37,.96,.05,.14,.72-.02,1.99-.49,1.54-.56,2.03-1.61,1.47-3.17t0,0Zm4.19-1.71s0,0,0,.01c.62,1.71,.67,3.26,.15,4.65-.56,1.5-1.67,2.53-3.42,3.17-.29,.1-.7,.24-1.24,.4-.59,.18-1.07,.33-1.31,.42-.3,.11-.41,.29-.31,.56,.12,.33,.33,.8,.63,1.43,.3,.62,.51,1.1,.62,1.41,.06,.16,.02,.27-.13,.33-.43,.16-1.09,.39-1.96,.67-.82,.27-1.46,.49-1.89,.65-.03,0-.05,.02-.07,.03-.2,.07-.35,0-.42-.2-.02-.04-.03-.09-.05-.14-.28-.78-.69-1.93-1.2-3.43-.55-1.59-.97-2.78-1.25-3.57-.81-2.23-1.76-4.54-2.84-6.93l-.07-.16c-.04-.13,.03-.24,.24-.34,.52-.27,1.68-.73,3.49-1.39,.05-.01,.09-.03,.13-.05,.07-.02,.13-.04,.19-.07,1.05-.38,2.06-.73,3.04-1.05,1.7-.56,3.25-.52,4.64,.11,1.43,.65,2.45,1.81,3.05,3.48,0,0,0,0,0,0Z"/><path class="cls-6" d="M118.74,22.53c.04,.23-.04,.36-.25,.41h0l-3.94,.78c-.21,.04-.34-.07-.39-.33-.15-.74-.35-1.87-.59-3.38-.23-1.46-.43-2.56-.58-3.31-.06-.3-.11-.4-.19-.4-.07,.06-.33,1.31-.8,3.73-.27,1.43-.54,2.85-.82,4.27-.04,.18-.12,.3-.22,.36-.03,.01-.14,.04-.32,.08-.35,.07-.52,.08-.67,.04-.08-.02-.15-.06-.19-.11-.56-.73-1.33-1.81-2.29-3.24-1.03-1.51-1.79-2.59-2.28-3.26-.02-.03-.06-.07-.13-.1-.04,.08-.04,.19-.02,.33,.13,.61,.39,1.83,.72,3.27,.32,1.44,.59,2.65,.71,3.26,.05,.26-.03,.4-.23,.44l-3.71,.75c-.14,.03-.24,.03-.28-.01-.05-.04-.08-.13-.11-.25-.16-.81-.36-2.03-.61-3.66-.24-1.6-.44-2.8-.6-3.61,0-.02,0-.04-.01-.06,0-.02,0-.04-.01-.06-.17-.87-.52-2.46-1.05-4.76-.16-.69-.54-2.26-.71-2.91,0,0,0,0,0-.02-.03-.13,.12-.23,.43-.3,.41-.08,1.02-.22,1.83-.41,.76-.18,1.35-.31,1.76-.39,.11-.02,.11-.02,.17,.02,.08,.06,.2,.18,.33,.37l4.68,6.47c.33,.43,.57,.64,.72,.61,.08-.02,.2-.33,.35-.94,.44-1.71,1.08-4.27,1.92-7.7,.07-.31,.18-.49,.33-.52,.21-.04,.54-.1,.98-.16,.43-.07,.76-.12,.98-.16,.19-.04,.46-.11,.85-.23,.37-.11,.65-.18,.83-.22,.22-.05,.35,.02,.39,.2,.17,.87,.4,2.19,.69,3.94,.28,1.74,.51,3.05,.69,3.93,.16,.81,.44,2.02,.82,3.62,.39,1.6,.66,2.8,.82,3.6Z"/><path class="cls-6" d="M132.34,18.65c.02,.33-.02,.92-.1,1.8-.08,.95-.17,1.52-.27,1.71-.08,.15-.2,.23-.36,.23-.07,0-.18,0-.35-.01-.55-.05-2.09,0-4.64,.14l-.5,.03c-.56,.03-1.32,.07-2.28,.11-.95,.05-1.71,.08-2.27,.11-.11,0-.22,.01-.31,.02-.25,.01-.38-.09-.39-.3,0-.02,0-.03,0-.05-.05-.85-.07-2.1-.07-3.76,0-1.7-.02-2.98-.07-3.82-.07-1.36-.33-4.16-.67-7.5-.02-.11-.01-.08-.03-.19,0-.15,.08-.23,.27-.25,.03,0,.06,0,.1,0,.56-.03,1.37-.06,2.43-.09,1.06-.03,1.87-.06,2.42-.09,.03,0,.07,0,.1,0s.07,0,.1,0c.55-.03,1.35-.09,2.39-.18,1.05-.09,1.84-.15,2.39-.18,.31-.02,.45,0,.59,.1,.1,.07,.17,.17,.21,.3,.1,.35,.44,2.66,.47,3.15,0,.18-.06,.26-.24,.27h-.21c-1.99-.06-3.79-.04-5.37,.04-.02,0-.03,0-.05,0h-.01c-.39,.02-.62,.13-.71,.33-.03,.09-.03,.39,0,.87,.03,.51,.12,.85,.28,1.01,.13,.14,.38,.2,.73,.18,0,0,.01,0,.02,0h.04c.09,0,.22-.02,.39-.03,.22-.03,.39-.04,.54-.05,.03,0,.07,0,.1,0,.92-.05,1.85-.13,2.79-.23,.08-.01,.29-.04,.62-.09,.24-.04,.44-.07,.58-.08,.21,0,.3,.07,.31,.25,0-.02,0-.03,0-.03-.01,0-.05,.59-.1,1.77-.03,.61-.03,1.21,0,1.82,0,.15-.1,.23-.32,.24-.01,0-.36-.01-1.02-.05-.53-.03-1.28,0-4.15,.16-.3,.02-.48,.1-.53,.25,0,.03,0,.2,.01,.5,0,.06,0,.13,.01,.2v.04c.03,.55,.09,.9,.17,1.06,.14,.27,.63,.42,1.48,.43l1.65-.09c.39-.02,.99-.09,1.78-.21,.76-.11,1.34-.18,1.73-.2h.03c.17,0,.26,.12,.27,.39h0Z"/><path class="cls-6" d="M150.41,7.78c-.07,.85-.2,2.15-.42,3.86-.2,1.67-.34,2.94-.41,3.81-.34,4.29-.26,3.22-.6,7.51-.02,.2-.13,.3-.35,.28-.18-.01-.45-.03-.82-.04-.4-.02-.72-.03-.86-.05-.19-.01-.47-.05-.85-.11-.37-.06-.65-.1-.85-.11h-.03c-.13-.01-.29-.15-.45-.42-.49-.77-1.58-2.49-3.27-5.15-.47-.74-1.18-1.83-2.13-3.28-.03-.05-.08-.1-.16-.15-.08,.06-.1,.13-.12,.33-.07,.87-.14,2.15-.23,3.85-.09,1.76-.17,3.07-.24,3.94-.02,.26-.13,.39-.34,.37-2.24-.17-1.68-.13-3.92-.31-.21-.02-.31-.14-.29-.37,.07-.82,.2-2.04,.41-3.68,.2-1.59,.34-2.8,.4-3.63,.07-.93,.14-2.18,.21-3.96,.06-1.69,.13-2.96,.2-3.82,0-.02,0-.04,0-.06,.01-.17,.16-.24,.45-.22h0c.44,.03,.98,.05,1.63,.04,.15,0,.45-.03,.9-.07,.39-.04,.69-.05,.9-.03,.09,0,.22,.14,.39,.42l3.76,6.11c.33,.55,.85,1.35,1.53,2.42,.17,.25,.32,.38,.46,.39,.1,0,.17-.26,.22-.84,.06-.76,.11-2,.16-3.61,.04-1.6,.09-2.8,.16-3.6,.02-.28,.11-.41,.26-.4h0c.45,.03,1.13,.07,2.05,.11,.91,.03,1.67,.07,2.05,.1,.14,.01,.2,.13,.19,.36,0,0,0,0,0,0Z"/><path class="cls-6" d="M164.65,13.89h0c-.03,.15-.13,.2-.29,.16-.28-.06-1.38-.35-3.3-.87-.45,1.86-.75,3.16-.9,3.9,0,.02,0,.04-.01,.06-.19,.88-.43,2.17-.72,3.89-.3,1.77-.54,3.08-.73,3.96-.03,.14-.08,.23-.16,.24-.03,0-.13,0-.33,0-.46-.04-1.11-.15-1.97-.33-.95-.2-1.61-.38-1.99-.52-.2-.08-.28-.21-.24-.4h0s0-.05,.01-.07c.19-.88,.5-2.16,.93-3.84,.44-1.68,.75-2.96,.94-3.84,0-.02,0-.04,.01-.06,.12-.58,.36-1.87,.73-3.88-1.51-.17-2.74-.35-3.59-.53-.11-.03-.16-.07-.15-.14,.02-.09,.13-.37,.34-.82,.23-.49,.36-.79,.4-.9,.39-1.41,.57-1.84,.75-1.8,.02,0,.07,.02,.14,.04,1.17,.42,2.92,.87,5.29,1.37,.67,.14,1.9,.33,3.7,.57,.95,.13,1.44,.19,1.47,.2,.2,.04,.25,.07,.26,.12,0,.03,0,.1-.01,.19-.04,.2-.11,.48-.2,.83-.1,.4-.18,.73-.2,.85-.04,.18-.07,.46-.09,.82-.03,.36-.07,.64-.1,.82Z"/><path class="cls-6" d="M179.22,20.82c-.27,.24-.8,.81-1.57,1.7-.82,.94-1.27,1.5-1.34,1.7-.05,.13,.13,.28,.55,.46,.21,.1,.67,.3,1.08,.47,.45,.18,.72,.23,.81,.13,.03-.03,.06-.09,.08-.14,.1-.23,.2-.94,.29-2.1,.1-1.13,.13-1.87,.1-2.21Zm3.54,12.6c-.05,.12-.17,.17-.37,.15-.23-.03-.89-.27-1.98-.72-1-.41-1.63-.7-1.9-.87-.22-.15-.3-.37-.26-.66,.17-1.1,.21-1.71,.1-1.84-.09-.09-.96-.47-2.61-1.14-1.37-.56-2-.78-2.11-.75-.16,.06-.45,.38-.86,.96-.37,.52-.66,.77-.87,.75-.26-.05-1.07-.34-2.42-.89-1.07-.44-1.57-.76-1.48-.96,.07-.18,1.78-2.09,5.1-5.74,3.6-3.94,5.57-6.11,5.91-6.51,.19-.23,.35-.33,.46-.28,.19,.08,.47,.21,.86,.41,.38,.19,.66,.33,.86,.41,.19,.08,.47,.18,.85,.31,.36,.11,.63,.21,.81,.28,.09,.04,.13,.07,.17,.14,.05,.08,.08,.21,.09,.37,.04,.88,.02,3.8-.08,8.78-.1,5-.18,7.61-.26,7.8h0Z"/><path class="cls-6" d="M198.18,36.28s0,.01,0,.02c-.97,1.65-1.82,2.66-2.58,3.04-1.38,.69-3.53,.17-6.47-1.54-2.32-1.36-3.44-2.42-3.85-3.66-.16-.5-.2-1.02-.11-1.56,.1-.55,.48-1.4,1.15-2.56,.15-.26,.39-.66,.72-1.18,.33-.52,.57-.91,.72-1.17,.44-.75,1.06-1.91,1.88-3.47,.82-1.55,1.44-2.71,1.87-3.46,.09-.16,.21-.2,.34-.11,.4,.23,.99,.6,1.78,1.11,.78,.5,1.37,.86,1.77,1.1,0,0,0,0,0,0,.16,.09,.2,.21,.11,.35-.45,.78-1.29,2.15-2.35,3.83-1.05,1.69-1.83,2.96-2.34,3.82-.6,1.03-.89,1.78-.89,2.26,0,.66,.46,1.25,1.38,1.79,1.34,.78,2.38,.52,3.14-.78h0s.04-.07,.06-.1c.56-.95,1.34-2.35,2.36-4.2,1.02-1.85,1.8-3.25,2.36-4.2,.02-.03,.03-.07,.06-.1t0,0c.11-.2,.25-.25,.41-.16h0c.39,.23,.98,.55,1.77,.97,.8,.42,1.39,.75,1.77,.97,.19,.11,.23,.24,.14,.4-.43,.75-1.13,1.86-2.07,3.34-.92,1.44-1.6,2.55-2.05,3.3,0,.02-.02,.03-.03,.05-.02,.03-.04,.07-.07,.12-.12,.2-.28,.48-.48,.84-.2,.36-.36,.63-.47,.83-.03,.04-.05,.08-.07,.11Z"/><path class="cls-6" d="M213.51,39.23h0c-.09,.12-.2,.13-.33,.03-.23-.17-1.1-.91-2.61-2.2-1.2,1.49-2.03,2.54-2.48,3.14-.01,.02-.03,.03-.04,.05-.54,.71-1.32,1.78-2.32,3.21-1.03,1.47-1.81,2.55-2.35,3.26-.09,.12-.17,.17-.25,.16-.02,0-.12-.05-.29-.15-.39-.23-.94-.61-1.64-1.14-.77-.59-1.3-1.03-1.57-1.31-.15-.16-.16-.32-.04-.47,0,0,0,0,0,0,.01-.02,.03-.03,.04-.05,.54-.71,1.37-1.73,2.48-3.07,1.11-1.33,1.94-2.35,2.48-3.07,.01-.02,.03-.03,.04-.05,.36-.47,1.13-1.54,2.32-3.19-1.29-.8-2.32-1.49-3.02-2.02-.09-.07-.12-.13-.07-.2,.05-.07,.28-.27,.65-.6,.42-.35,.67-.56,.75-.64,.95-1.11,1.3-1.42,1.45-1.31,.02,.01,.05,.05,.11,.1,.88,.88,2.27,2.03,4.19,3.5,.55,.42,1.58,1.11,3.1,2.09,.81,.52,1.22,.79,1.25,.81,.16,.12,.2,.17,.18,.22,0,.03-.04,.09-.09,.16-.12,.16-.3,.38-.53,.66-.26,.32-.48,.59-.55,.68-.12,.15-.26,.39-.44,.7-.18,.32-.33,.55-.44,.69Z"/><path class="cls-6" d="M218,60.32c-.11,.11-.21,.16-.28,.14-.11-.02-.86-.68-1.7-1.51-.84-.84-1.32-1.34-1.43-1.52-.12-.18-.12-.33-.01-.44,.39-.39,1.09-1.05,1.96-1.85,.86-.78,1.5-1.38,1.92-1.81,.01-.02,.03-.03,.04-.04t0,0c.2-.2,.26-.38,.18-.53-.14-.23-.77-.89-1.89-2-1.12-1.11-1.79-1.74-2.02-1.89-.14-.09-.32-.03-.53,.18-.36,.36-1.04,1.07-1.84,1.93-.8,.85-1.41,1.49-1.82,1.91-.16,.16-.33,.18-.5,.07-.2-.14-.72-.62-1.56-1.45-.72-.72-1.17-1.19-1.33-1.43-.13-.18-.13-.34,.01-.48,.58-.58,1.47-1.43,2.69-2.54,1.18-1.08,2.07-1.92,2.65-2.5,.02-.01,.03-.03,.04-.04,.02-.01,.03-.03,.04-.04,.62-.62,1.5-1.56,2.66-2.83,1.16-1.27,2.05-2.22,2.66-2.84,.02-.02,.03-.03,.05-.04,.12-.12,.23-.13,.34-.01,.17,.17,.42,.42,.74,.78,.31,.35,.56,.6,.72,.77,.17,.17,.44,.42,.8,.75,.36,.33,.62,.58,.79,.75,.09,.09,.09,.18,0,.28-.4,.4-1.03,.98-1.88,1.72-.85,.74-1.51,1.34-1.89,1.72-.18,.18-.24,.34-.17,.47,.1,.18,.76,.88,1.99,2.11,1.15,1.14,1.83,1.78,2.06,1.92,.16,.1,.33,.05,.52-.14,.01-.01,.03-.03,.04-.04,.38-.38,.93-.97,1.64-1.76,.71-.79,1.26-1.38,1.66-1.77,.01-.01,.03-.03,.04-.04h0c.16-.16,.31-.18,.44-.05,.16,.16,.39,.4,.69,.74,.3,.33,.53,.57,.69,.73,.15,.16,.4,.38,.74,.69,.33,.29,.58,.52,.74,.69,.15,.16,.16,.29,.04,.43-.61,.62-1.56,1.52-2.85,2.71-1.26,1.17-2.2,2.06-2.81,2.68-.59,.59-1.44,1.5-2.57,2.76-1.08,1.19-1.91,2.08-2.48,2.66-.01,.02-.03,.03-.04,.04Z"/><path class="cls-6" d="M232.32,66.67s0,0,0,0c.91-.67,1.48-1.51,1.71-2.54,.24-1.07,.03-2.06-.63-2.96-.63-.86-1.51-1.34-2.65-1.42-1.09-.08-2.08,.2-2.95,.84-.93,.69-1.5,1.53-1.73,2.52-.23,1.05,0,2.03,.67,2.95,.63,.86,1.51,1.33,2.64,1.43,1.08,.09,2.05-.18,2.91-.82,0,0,0,0,0,0Zm2.53,3.47s0,0,0,0c-1.89,1.4-3.93,1.96-6.1,1.69-2.21-.27-4.01-1.36-5.4-3.24-1.39-1.89-1.88-3.93-1.48-6.15,.39-2.16,1.53-3.93,3.41-5.32,1.9-1.39,3.93-1.96,6.12-1.69,2.23,.27,4.04,1.34,5.42,3.22,0,0,0,0,0,0h0c1.37,1.87,1.86,3.91,1.45,6.13-.4,2.18-1.54,3.96-3.42,5.35Z"/><path class="cls-6" d="M242.47,79.22c.81-.44,1.23-1,1.26-1.7,.02-.54-.2-1.25-.68-2.13-.34-.63-.62-.92-.83-.85-.25,.08-.93,.42-2.07,1.03-.15,.08-.35,.19-.59,.33-.24,.14-.44,.25-.58,.33-.03,.01-.06,.03-.08,.04-.09,.05,.27,.95,.67,1.7,.78,1.46,1.75,1.87,2.91,1.25Zm-6.71,9c-.05,.03-.12-.03-.21-.15-.17-.23-.53-.85-1.08-1.87-.47-.87-.77-1.48-.89-1.81-.06-.16-.09-.25-.09-.27,0-.06,.04-.14,.13-.25,.21-.24,.51-.6,.92-1.07,.53-.62,1.3-1.55,2.3-2.79,.2-.26,.19-.61-.01-1.06,.02,.03,.03,.06,.02,.06,0,0-.2-.36-.59-1.08-.06-.1-.25-.06-.62,.13-.45,.24-1.1,.64-1.94,1.2-.85,.57-1.51,.97-1.96,1.21-.11,.06-.19,.07-.25,.02-.42-.66-.62-1.02-1.12-1.95-.59-1.09-.87-1.66-.94-1.89-.07-.21-.01-.36,.16-.45,.73-.39,1.86-.95,3.37-1.67,1.48-.7,2.59-1.25,3.33-1.65,.02,0,.04-.02,.06-.03,.03-.02,.07-.04,.11-.06,2.76-1.48,4.89-2.7,6.38-3.66l.15-.1c.1-.06,.23,.01,.39,.2,.16,.19,.74,1.18,1.76,2.98,.65,1.15,1.17,2.08,1.55,2.8,.03,.04,.05,.08,.07,.12,0,0,0,0,0,.01,.81,1.51,1.13,2.93,.96,4.26-.19,1.5-1.01,2.64-2.47,3.42-.98,.52-1.83,.8-2.56,.83-.72,.03-1.57-.19-2.52-.64-.19-.09-.33-.12-.43-.07,0,0-.61,.86-1.85,2.56-1.25,1.71-1.96,2.62-2.13,2.71Z"/><path class="cls-6" d="M245.5,90.55c-.82,.34-2.05,.88-3.69,1.61-1.63,.73-2.86,1.27-3.69,1.61-.14,.06-.24,.07-.3,.01-.01,0-.07-.09-.16-.25-.24-.43-.52-1.02-.84-1.79-.42-1.01-.67-1.67-.73-1.98-.04-.22,.02-.36,.2-.44h-.01s.63-.22,1.89-.68c2.97-1.08,4.75-1.76,5.72-2.16,.74-.31,1.83-.79,3.25-1.44,1.43-.65,2.51-1.14,3.25-1.44,.03-.01,.05-.02,.07-.03,.16-.06,.26-.01,.33,.14,.09,.23,.22,.56,.38,1,.16,.44,.28,.77,.37,.99,.09,.22,.24,.53,.43,.95,.2,.41,.34,.72,.43,.94,.08,.2,.05,.33-.11,.39-.74,.31-1.88,.74-3.4,1.28-1.53,.55-2.67,.98-3.41,1.29Z"/><path class="cls-6" d="M253.91,102.61h0c-.14,.04-.23-.01-.29-.17-.09-.27-.38-1.37-.88-3.3-1.83,.54-3.11,.93-3.83,1.16-.02,0-.04,.01-.06,.02-.85,.27-2.09,.71-3.74,1.31-1.68,.62-2.94,1.06-3.79,1.34-.14,.04-.24,.04-.29-.02-.02-.01-.07-.11-.15-.28-.2-.42-.42-1.04-.69-1.87-.3-.93-.48-1.59-.55-1.98-.03-.21,.05-.35,.23-.41h0s.04-.01,.06-.02c.85-.27,2.12-.64,3.79-1.1s2.94-.83,3.79-1.1c.02,0,.04-.01,.06-.02,.56-.18,1.8-.61,3.73-1.29-.6-1.39-1.06-2.55-1.32-3.38-.03-.11-.02-.17,.05-.2,.09-.03,.39-.07,.88-.12,.55-.04,.87-.08,.98-.1,1.42-.37,1.88-.42,1.93-.24,0,.02,.02,.07,.03,.14,.23,1.22,.7,2.96,1.44,5.27,.21,.65,.66,1.82,1.35,3.49,.36,.89,.55,1.35,.56,1.37,.07,.2,.07,.26,.03,.29-.03,.02-.09,.05-.17,.09-.2,.06-.46,.14-.82,.24-.39,.11-.73,.21-.83,.24-.18,.06-.43,.16-.76,.33-.33,.16-.58,.26-.75,.32Z"/><path class="cls-6" d="M256.45,118.1s0,0-.01,0c-.32,.06-.6,.06-.85-.02-2.11-.59-4.39-1.52-6.84-2.79-.36-.17-.66-.24-.92-.19-.39,.08-.98,.21-1.76,.41-.78,.2-1.36,.33-1.74,.41-.13,.03-.22,.01-.26-.04,0,0-.05-.1-.11-.29-.1-.26-.25-.92-.46-1.99-.21-1.08-.32-1.77-.33-2.07-.01-.21,.07-.34,.26-.37,.4-.08,1-.16,1.82-.25,.82-.09,1.44-.17,1.83-.25,.23-.05,.47-.19,.72-.42,1.09-1.14,2.78-2.81,5.07-4.99,.26-.23,.48-.36,.66-.39,.45-.09,1.11-.24,1.99-.46,.88-.22,1.54-.37,1.99-.46,.25-.05,.38,0,.41,.15,.09,.45,.2,1.14,.35,2.07,.14,.93,.26,1.62,.35,2.08,.03,.17,0,.26-.12,.29-.02,0-.04,0-.07,.01-.37,.07-.93,.16-1.66,.27-.75,.11-1.39,.22-1.71,.28-.23,.04-.72,.48-1.47,1.31-.6,.65-1.06,1.19-1.37,1.59,.42,.23,1.03,.54,1.84,.9,1.01,.46,1.61,.68,1.8,.64,.01,0,.03,0,.04,0,.37-.07,.92-.21,1.63-.4,.75-.2,1.31-.34,1.67-.42,.16-.03,.25-.01,.29,.05,.13,.68,.25,1.19,.51,2.28,.21,.88,.36,1.55,.46,2,.03,.14-.12,.25-.44,.31-.39,.08-.98,.2-1.77,.37-.78,.16-1.38,.29-1.78,.37Z"/><path class="cls-6" d="M58.92,226.22s0,0,0,0c.59-.75,.88-1.57,.84-2.45-.03-.92-.42-1.69-1.16-2.28-.71-.57-1.53-.76-2.47-.58-.92,.17-1.66,.62-2.22,1.33-.61,.76-.9,1.58-.86,2.44,.04,.91,.43,1.67,1.19,2.27,.71,.56,1.53,.76,2.47,.59,.9-.16,1.64-.6,2.21-1.31,0,0,0,0,0,0Zm2.82,2.29s0,0,0,0c-1.24,1.56-2.78,2.46-4.62,2.72-1.86,.26-3.57-.23-5.13-1.47-1.55-1.24-2.4-2.8-2.55-4.69-.16-1.85,.39-3.55,1.63-5.1,1.24-1.55,2.78-2.46,4.63-2.72,1.89-.27,3.6,.21,5.14,1.44h0s0,0,0,0c1.53,1.22,2.37,2.79,2.53,4.69,.15,1.87-.39,3.58-1.63,5.12Z"/><path class="cls-6" d="M72.71,231.21c-.04,.06-.11,.05-.24-.03-.4-.26-.98-.69-1.74-1.27-.76-.59-1.34-1.02-1.75-1.28,0,0-.01-.01-.02-.02-.02,0-.03-.02-.05-.03-.48-.31-.78-.48-.89-.49-.26-.04-.52,.15-.79,.57-.33,.52-.39,.88-.18,1.13,.1,.1,.26,.23,.5,.38,.37,.24,.92,.57,1.67,.99,.76,.44,1.33,.78,1.7,1.01,.18,.12-.04,.65-.65,1.59-.53,.82-.87,1.28-1.01,1.38-.1,.07-.2,.07-.31,0t0,0h0s-.16-.13-.49-.39c-.52-.42-1.35-.99-2.48-1.72-.03-.02-.05-.03-.08-.05-.06-.04-.12-.08-.17-.11-.27-.17-.43-.27-.47-.29-.3-.13-.51-.11-.63,.08-.49,.77-1.03,1.67-1.61,2.69-.47,.85-.71,1.27-.7,1.27h0s0,0,0-.01c-.09,.14-.31,.11-.66-.09h.02s-.16-.1-.48-.3l-.31-.2c-.97-.63-1.58-1.07-1.82-1.32-.13-.14-.15-.27-.07-.4,.39-.6,.98-1.48,1.8-2.65,.79-1.13,1.37-1.99,1.76-2.59,.5-.77,1.02-1.65,1.67-2.79,.94-1.66,.7-1.24,1.64-2.9,.08-.12,.2-.13,.36-.03t0,0c.39,.26,.99,.65,1.79,1.19,.78,.53,1.38,.93,1.79,1.19,.43,.28,1.1,.66,2,1.16,.9,.49,1.57,.88,1.99,1.15,.26,.17,.35,.38,.24,.62,0,.01-.02,.03-.03,.04-.15,.23-.36,.57-.62,1.02-.07,.13-.18,.38-.33,.75-.14,.32-.26,.56-.36,.72,0,0,0,0,0,.01Z"/><path class="cls-6" d="M85.41,237.44s0,0,0,0c-.05,.11-.14,.13-.27,.07-.22-.11-1.06-.57-2.53-1.39-.75,1.44-1.26,2.44-1.54,3.02,0,.02-.02,.03-.03,.05-.33,.68-.79,1.7-1.38,3.05-.61,1.39-1.08,2.42-1.41,3.1-.05,.11-.11,.17-.18,.17-.02,0-.11-.02-.26-.07-.37-.13-.88-.35-1.55-.67-.74-.36-1.25-.64-1.53-.83-.15-.11-.19-.23-.11-.38h0s.02-.03,.03-.05c.33-.68,.85-1.67,1.55-2.96,.7-1.29,1.21-2.28,1.55-2.96,0-.01,.02-.03,.02-.05,.22-.45,.68-1.46,1.4-3.04-1.21-.45-2.18-.85-2.84-1.17-.09-.04-.12-.09-.09-.15,.03-.07,.19-.27,.45-.61,.29-.36,.46-.58,.51-.65,.61-1.08,.84-1.4,.98-1.33,.02,0,.06,.03,.11,.07,.88,.58,2.22,1.31,4.06,2.2,.52,.26,1.5,.66,2.92,1.22,.76,.29,1.15,.45,1.17,.46,.15,.08,.2,.11,.19,.16,0,.03-.02,.08-.05,.15-.07,.16-.19,.37-.33,.64-.16,.31-.3,.56-.34,.65-.07,.14-.15,.36-.24,.65-.1,.29-.19,.51-.25,.65Z"/><path class="cls-6" d="M93.89,251.58c-.05,.13-.1,.2-.17,.2-.09,.03-.9-.22-1.83-.57-.94-.35-1.48-.57-1.63-.67-.16-.1-.21-.21-.16-.33,.16-.43,.47-1.18,.86-2.11,.39-.9,.67-1.59,.85-2.07,0-.01,.01-.03,.02-.05,0,0,0,0,0,0,.08-.23,.07-.39-.05-.47-.19-.12-.9-.42-2.15-.88-1.25-.46-1.99-.71-2.22-.75-.14-.02-.26,.09-.35,.33-.15,.4-.42,1.19-.74,2.13-.32,.94-.56,1.64-.73,2.11-.07,.18-.19,.26-.36,.23-.2-.03-.77-.23-1.71-.58-.81-.3-1.32-.51-1.53-.63-.16-.09-.21-.22-.16-.37,.24-.65,.64-1.61,1.18-2.9,.54-1.25,.92-2.2,1.17-2.86,0-.01,0-.03,.02-.04,0-.02,.01-.03,.02-.05,.26-.69,.61-1.73,1.05-3.11,.45-1.38,.8-2.42,1.06-3.12,0-.02,.01-.03,.02-.05,.05-.13,.13-.17,.26-.13,.19,.07,.47,.18,.84,.34,.36,.15,.64,.26,.82,.34,.19,.07,.49,.17,.88,.29,.39,.13,.68,.23,.87,.29,.1,.04,.13,.11,.09,.22-.17,.45-.45,1.11-.85,1.99-.4,.87-.69,1.56-.85,1.99-.08,.2-.07,.34,.03,.43,.14,.1,.9,.41,2.28,.92,1.28,.48,2.03,.73,2.26,.76,.16,.02,.27-.08,.35-.29,0-.01,.01-.03,.02-.04,.16-.43,.37-1.08,.65-1.93,.27-.86,.49-1.51,.65-1.95,0-.02,.01-.03,.02-.05,0,0,0,0,0,0,.07-.18,.17-.25,.32-.19,.18,.07,.44,.17,.79,.33,.35,.15,.61,.26,.79,.33,.17,.07,.44,.16,.81,.27,.36,.12,.63,.2,.81,.27,.17,.07,.23,.17,.18,.31-.26,.69-.67,1.72-1.24,3.09-.56,1.34-.97,2.35-1.23,3.04-.24,.66-.58,1.67-1.01,3.03-.41,1.3-.74,2.27-.98,2.92,0,.02,0,.03-.02,.05Z"/><path class="cls-6" d="M105.76,251.91c-.07,.26-.25,.74-.54,1.42-.31,.74-.53,1.18-.66,1.31-.1,.1-.22,.13-.35,.1-.06-.01-.15-.05-.27-.1-.43-.18-1.69-.54-3.78-1.09l-.41-.11c-.46-.12-1.08-.29-1.86-.5s-1.4-.38-1.86-.5c-.09-.02-.17-.04-.26-.07-.2-.06-.28-.17-.23-.35,0,0,0-.02,0-.04,.18-.69,.49-1.71,.92-3.04,.44-1.37,.75-2.4,.94-3.1,.29-1.11,.82-3.44,1.4-6.22,.02-.09,.01-.07,.03-.16,.03-.13,.13-.16,.28-.13,.03,0,.05,.01,.08,.02,.46,.12,1.12,.31,1.98,.56,.86,.25,1.52,.44,1.97,.56,.03,0,.06,.01,.08,.02,.03,0,.05,.01,.08,.02,.45,.12,1.11,.28,1.97,.48,.86,.2,1.52,.36,1.97,.48,.26,.07,.36,.12,.46,.23,.07,.08,.09,.18,.09,.3-.01,.31-.34,2.26-.44,2.66-.04,.15-.11,.19-.26,.15-.04,0-.1-.03-.17-.06-1.59-.56-3.04-1.01-4.34-1.35-.02,0-.03,0-.04-.01h-.01c-.32-.09-.54-.06-.65,.07-.05,.07-.13,.3-.23,.7-.11,.42-.12,.72-.03,.88,.07,.14,.25,.26,.55,.33t0,0s.03,0,.04,.01c.07,.02,.18,.04,.33,.07,.18,.03,.33,.07,.45,.1,.03,0,.05,.01,.08,.02,.75,.2,1.52,.38,2.31,.54,.07,0,.24,.04,.52,.09,.21,.03,.37,.06,.49,.09,.17,.04,.23,.13,.19,.28,0-.01,0-.02,0-.02,0,0-.19,.46-.54,1.4-.18,.48-.34,.97-.47,1.46-.03,.12-.14,.16-.32,.12-.01,0-.29-.11-.81-.31-.43-.16-1.03-.33-3.38-.95-.25-.07-.41-.04-.49,.07,0,.02-.05,.16-.12,.41-.01,.05-.03,.1-.04,.16,0,0,0,.02,0,.03-.12,.45-.16,.75-.14,.9,.04,.26,.4,.5,1.08,.73l1.35,.36c.33,.09,.82,.18,1.49,.29,.64,.1,1.12,.2,1.45,.29,0,0,.02,0,.02,0,.14,.03,.18,.16,.12,.38,0,0,0,0,0,0Z"/><path class="cls-6" d="M122.47,255.26c-.01,.1-.1,.23-.26,.37-1.34,1.24-2.98,1.74-4.91,1.49-1.98-.26-3.5-1.14-4.56-2.64-1.03-1.47-1.41-3.19-1.16-5.18,.25-1.93,1.04-3.49,2.39-4.68,1.41-1.25,3.05-1.75,4.95-1.51,2.05,.26,3.58,1.1,4.58,2.51,.11,.16,.16,.29,.14,.39-.02,.13-.29,.54-.83,1.25-.54,.72-.88,1.12-1,1.2-.06,.04-.13,.06-.2,.05-.03,0-.17-.15-.42-.44-.74-.85-1.51-1.31-2.42-1.42-.94-.12-1.73,.13-2.38,.76-.6,.58-.96,1.34-1.08,2.3-.12,.96,.03,1.8,.46,2.52,.47,.78,1.17,1.23,2.09,1.35,.55,.07,1.09,.01,1.62-.16,.35-.12,.71-.29,1.08-.54,.31-.2,.48-.3,.52-.3,.06,0,.12,.05,.17,.13,.09,.13,.32,.56,.68,1.3,.37,.76,.56,1.18,.55,1.25Z"/><path class="cls-6" d="M127.54,250.52c-.04,.75-.09,1.89-.14,3.4-.05,1.51-.1,2.65-.14,3.4,0,.13-.04,.2-.1,.23,0,0-.1,.02-.25,.03-.41,.02-.97,.02-1.67-.03-.93-.05-1.52-.11-1.77-.18-.18-.04-.27-.15-.26-.31h0s.07-.56,.18-1.68c.27-2.66,.42-4.27,.47-5.15,.04-.68,.07-1.68,.1-3.01s.07-2.33,.1-3.01c0-.03,0-.05,0-.07,.01-.14,.09-.21,.23-.2,.2,.01,.5,.04,.9,.08,.39,.04,.69,.07,.89,.08s.49,.02,.88,.02c.39,0,.67,0,.88,.02,.18,0,.26,.09,.26,.23-.04,.68-.13,1.7-.29,3.07-.15,1.37-.25,2.39-.29,3.07Z"/><path class="cls-6" d="M138.37,247.15h0c0,.13-.07,.19-.21,.19-.24,0-1.21-.04-2.89-.13-.03,1.62-.04,2.75-.04,3.39v.05c0,.75,.04,1.87,.11,3.35,.07,1.51,.1,2.65,.11,3.4,0,.12-.03,.2-.08,.23-.02,0-.11,.03-.27,.05-.39,.05-.95,.08-1.69,.08-.82,0-1.41-.01-1.74-.06-.18-.03-.27-.13-.27-.29h0v-.06c0-.76,.02-1.87,.08-3.34,.06-1.47,.08-2.58,.07-3.34v-.06c0-.5-.03-1.61-.1-3.33-1.28,.13-2.32,.2-3.06,.21-.1,0-.15-.03-.15-.09,0-.08,.04-.33,.13-.74,.1-.45,.16-.72,.17-.82,.07-1.24,.13-1.62,.29-1.62,.02,0,.06,0,.13,0,1.04,.13,2.57,.19,4.62,.18,.58,0,1.63-.07,3.16-.2,.81-.07,1.23-.1,1.25-.1,.17,0,.22,0,.23,.05,.01,.03,.02,.08,.03,.16,0,.17,0,.42-.01,.72-.01,.35-.02,.64-.02,.74,0,.16,.03,.39,.07,.69,.04,.3,.06,.54,.07,.69Z"/><path class="cls-6" d="M149.49,246.67h0c.03,.29,0,.52-.09,.73-.68,1.73-1.65,3.56-2.92,5.52-.18,.29-.26,.54-.24,.75,.03,.33,.1,.84,.2,1.51,.1,.67,.16,1.17,.2,1.5,.01,.12,0,.19-.05,.22-.01,0-.1,.03-.26,.07-.23,.06-.8,.13-1.71,.22-.92,.09-1.51,.13-1.77,.11-.18,0-.28-.09-.29-.25-.03-.34-.05-.85-.06-1.55,0-.7-.03-1.22-.06-1.57-.02-.2-.12-.41-.29-.64-.88-1.02-2.13-2.58-3.77-4.7-.17-.23-.26-.43-.27-.59-.04-.38-.11-.95-.22-1.71s-.18-1.33-.22-1.71c-.02-.21,.03-.32,.16-.33,.39-.03,.98-.07,1.77-.12,.8-.04,1.39-.08,1.78-.12,.14-.01,.22,.03,.23,.12,0,.02,0,.03,0,.06,.03,.32,.06,.79,.09,1.42,.03,.65,.07,1.19,.09,1.47,.02,.2,.34,.64,.98,1.35,.5,.56,.91,.99,1.23,1.29,.23-.33,.54-.82,.92-1.47,.47-.82,.7-1.31,.69-1.47,0,0,0-.02,0-.03-.03-.32-.1-.78-.2-1.41-.11-.65-.18-1.13-.21-1.44-.01-.13,0-.21,.06-.24,.58-.05,1.02-.1,1.96-.23,.76-.11,1.33-.18,1.73-.21,.12-.01,.2,.12,.23,.39,.03,.34,.09,.85,.16,1.53,.07,.68,.13,1.18,.16,1.53Z"/><path class="cls-6" d="M164.31,246.84s0,0,0,0c-.22-.93-.69-1.65-1.41-2.17-.75-.54-1.59-.7-2.52-.48-.88,.21-1.54,.74-1.97,1.6-.43,.82-.53,1.68-.32,2.57,.23,.95,.69,1.68,1.4,2.18,.74,.52,1.58,.68,2.52,.45,.88-.21,1.54-.74,1.98-1.59,.43-.81,.53-1.66,.32-2.55h0Zm3.54-.84h0c.46,1.94,.24,3.72-.69,5.32-.94,1.63-2.38,2.68-4.31,3.15-1.93,.46-3.68,.18-5.27-.86-1.56-1.01-2.57-2.48-3.03-4.41-.46-1.93-.23-3.71,.69-5.33,.94-1.65,2.37-2.71,4.29-3.17,0,0,0,0,0,0h0c1.9-.46,3.66-.16,5.25,.88,1.57,1.03,2.58,2.51,3.05,4.42Z"/><path class="cls-6" d="M176.71,239.01c.02,.07-.03,.12-.17,.17-.45,.16-1.14,.36-2.07,.59-.93,.24-1.63,.43-2.09,.6,0,0-.02,0-.03,0-.02,0-.04,.01-.06,.02-.54,.19-.85,.32-.93,.4-.19,.18-.2,.5-.03,.98,.2,.58,.46,.85,.78,.84,.14-.02,.34-.07,.61-.16,.42-.14,1.02-.38,1.81-.7,.81-.33,1.42-.58,1.84-.72,.2-.07,.48,.43,.85,1.49,.32,.92,.47,1.47,.46,1.64,0,.13-.07,.21-.19,.25,0,0,0,0,0,0h.01s-.21,.04-.61,.14c-.65,.16-1.61,.46-2.87,.9-.03,0-.07,.02-.1,.03-.07,.03-.13,.05-.2,.07-.3,.1-.48,.17-.52,.19-.29,.16-.4,.34-.33,.55,.3,.86,.68,1.83,1.14,2.92,.37,.89,.56,1.34,.57,1.33h0c.05,.14-.11,.29-.48,.46h.02s-.18,.05-.54,.17l-.35,.12c-1.09,.38-1.81,.59-2.16,.62-.19,.02-.31-.04-.36-.19-.23-.67-.56-1.68-.98-3.04-.41-1.32-.73-2.31-.97-2.98-.3-.87-.67-1.82-1.18-3.04-.73-1.76-.55-1.31-1.28-3.07-.05-.14,.02-.24,.2-.3t0,0c.45-.15,1.13-.38,2.04-.68,.91-.29,1.58-.52,2.04-.68,.48-.17,1.2-.46,2.15-.87,.94-.41,1.65-.7,2.13-.86,.3-.1,.51-.04,.64,.19,0,.02,0,.03,.01,.05,.09,.26,.23,.63,.43,1.11,.06,.13,.19,.37,.39,.72,.17,.31,.29,.55,.35,.73,0,0,0,0,0,.01Z"/><path class="cls-6" d="M193.16,239.35c.12,.25,.29,.72,.52,1.43,.25,.77,.37,1.24,.36,1.42-.01,.14-.08,.24-.2,.3-.06,.03-.14,.06-.28,.1-.44,.15-1.63,.7-3.56,1.66l-.38,.19c-.43,.21-1,.49-1.73,.85-.72,.36-1.3,.64-1.73,.85-.08,.04-.16,.08-.23,.12-.19,.1-.33,.06-.41-.11,0,0-.01-.02-.02-.03-.32-.65-.75-1.61-1.31-2.91-.56-1.32-1.01-2.31-1.32-2.95-.51-1.03-1.64-3.13-3.03-5.61-.04-.08-.03-.06-.08-.14-.06-.12-.02-.21,.13-.28,.03-.01,.05-.03,.07-.03,.43-.21,1.05-.5,1.86-.88,.82-.38,1.44-.67,1.85-.88,.03-.01,.05-.02,.07-.03s.05-.02,.07-.03c.42-.21,1.02-.52,1.8-.94,.78-.42,1.38-.73,1.8-.94,.24-.12,.35-.15,.49-.12,.1,.02,.19,.07,.26,.16,.2,.24,1.23,1.93,1.42,2.29,.07,.14,.04,.22-.1,.29-.03,.02-.09,.04-.16,.07-1.57,.62-2.96,1.23-4.16,1.83-.01,0-.03,.01-.04,.02,0,0,0,0,0,0-.29,.15-.44,.31-.44,.49,0,.08,.1,.31,.29,.68,.19,.39,.38,.62,.56,.69,.15,.06,.36,.03,.63-.11,0,0,0,0,0,0,.01,0,.02-.01,.03-.02,.07-.03,.16-.09,.29-.16,.16-.09,.29-.16,.41-.22,.02,0,.05-.02,.07-.03,.7-.35,1.4-.72,2.09-1.11,.06-.03,.21-.13,.45-.28,.18-.11,.32-.2,.43-.26,.16-.07,.26-.05,.32,.09,0-.01,0-.02,0-.02-.01,0,.16,.47,.51,1.41,.18,.48,.38,.95,.61,1.41,.06,.11,0,.21-.16,.29,0,0-.28,.11-.82,.3-.42,.16-.99,.43-3.17,1.51-.23,.11-.34,.24-.33,.37,0,.03,.07,.16,.18,.39,.02,.05,.05,.1,.07,.15,0,0,.01,.02,.02,.03,.21,.42,.37,.68,.49,.77,.2,.16,.63,.11,1.29-.16l1.26-.62c.3-.15,.74-.4,1.31-.75,.56-.34,.98-.59,1.28-.73,0,0,.02,0,.02-.01,.13-.06,.24,0,.34,.21,0,0,0,0,0,0Z"/><path class="cls-6" d="M197.36,230.12c-.41-.66-.91-.99-1.5-.98-.46,0-1.05,.23-1.77,.68-.52,.32-.75,.56-.68,.74,.08,.21,.4,.77,.98,1.7,.07,.12,.18,.28,.31,.48s.23,.36,.31,.48c.01,.03,.03,.05,.04,.07,.05,.07,.79-.27,1.4-.65,1.19-.74,1.5-1.57,.92-2.52Zm7.94,5.22s-.02,.1-.11,.18c-.19,.16-.7,.49-1.53,1.01-.72,.44-1.21,.72-1.48,.85-.13,.06-.21,.08-.23,.08-.05,0-.12-.03-.22-.09-.21-.16-.53-.4-.95-.72-.55-.42-1.37-1.01-2.48-1.8-.23-.15-.52-.13-.89,.07,.03-.02,.05-.03,.05-.02,0,0-.29,.19-.88,.56-.08,.05-.03,.21,.15,.51,.23,.37,.6,.9,1.11,1.58,.52,.69,.9,1.22,1.12,1.59,.06,.09,.07,.16,.03,.21-.54,.39-.83,.58-1.59,1.05-.9,.55-1.36,.82-1.55,.88-.18,.07-.31,.03-.39-.11-.37-.6-.9-1.52-1.58-2.77-.67-1.21-1.19-2.13-1.57-2.73,0-.01-.02-.03-.03-.04-.02-.03-.03-.06-.05-.09-1.39-2.26-2.53-4-3.42-5.21l-.09-.12c-.05-.08,0-.2,.15-.34,.15-.14,.96-.68,2.43-1.63,.94-.61,1.7-1.09,2.29-1.45,.03-.02,.07-.04,.1-.06,0,0,0,0,.01,0,1.24-.76,2.42-1.1,3.55-1.03,1.27,.09,2.28,.73,3.01,1.92,.49,.8,.77,1.5,.83,2.12,.07,.62-.07,1.34-.41,2.16-.07,.16-.08,.29-.04,.36,0,0,.76,.48,2.26,1.44,1.51,.96,2.31,1.52,2.39,1.66Z"/><path class="cls-6" d="M205.2,226.67c.44,.62,1.12,1.53,2.03,2.73,.92,1.21,1.59,2.12,2.03,2.73,.07,.1,.1,.19,.07,.24,0,.01-.07,.07-.18,.18-.31,.28-.75,.62-1.31,1.04-.75,.54-1.25,.87-1.49,.98-.17,.08-.3,.05-.4-.08h0s-.31-.47-.92-1.42c-1.46-2.24-2.36-3.58-2.88-4.3-.4-.56-1-1.35-1.81-2.41-.81-1.05-1.41-1.85-1.81-2.4-.01-.02-.03-.04-.04-.06-.08-.12-.07-.22,.05-.3,.16-.12,.41-.29,.75-.5,.33-.22,.58-.38,.74-.5,.16-.12,.39-.29,.7-.54,.3-.24,.53-.42,.7-.54,.15-.1,.26-.1,.34,.02,.4,.55,.97,1.41,1.71,2.56,.74,1.15,1.31,2.01,1.7,2.56Z"/><path class="cls-6" d="M216.63,222.76c.17,.21,.46,.64,.84,1.27,.42,.69,.64,1.12,.67,1.3,.02,.14-.02,.26-.13,.34-.05,.04-.12,.09-.24,.16-.39,.24-1.43,1.05-3.09,2.42l-.33,.27c-.37,.3-.87,.71-1.5,1.22-.63,.51-1.12,.92-1.49,1.21-.07,.06-.14,.12-.2,.17-.16,.13-.3,.13-.42-.01,0,0-.02-.02-.03-.03-.46-.56-1.1-1.4-1.93-2.53-.85-1.16-1.5-2.02-1.96-2.57-.73-.89-2.31-2.68-4.22-4.78-.07-.07-.05-.05-.11-.12-.08-.1-.06-.2,.07-.3,.02-.02,.04-.03,.06-.05,.36-.3,.9-.73,1.61-1.28,.71-.55,1.24-.98,1.6-1.27,.02-.02,.04-.03,.07-.05,.02-.02,.04-.03,.06-.05,.36-.29,.88-.74,1.54-1.32,.67-.59,1.18-1.02,1.54-1.32,.21-.17,.31-.22,.45-.23,.1,0,.2,.03,.29,.1,.24,.19,1.63,1.6,1.9,1.91,.1,.12,.09,.2-.03,.3-.03,.03-.08,.06-.15,.11-1.39,.96-2.6,1.87-3.64,2.72,0,0-.02,.02-.03,.03,0,0,0,0,0,0-.26,.21-.36,.4-.33,.57,.03,.08,.17,.28,.44,.6,.27,.33,.5,.52,.69,.55,.16,.03,.36-.06,.59-.25,0,0,0,0,0,0,0,0,.02-.01,.03-.02,.06-.05,.14-.12,.26-.22,.13-.13,.25-.23,.34-.31,.02-.02,.04-.03,.06-.05,.6-.49,1.2-1.01,1.78-1.55,.05-.05,.18-.17,.38-.37,.15-.15,.26-.27,.36-.35,.13-.11,.24-.11,.33,.01,0-.01-.01-.02-.01-.02,0,0,.26,.43,.82,1.26,.29,.43,.59,.84,.91,1.24,.08,.1,.05,.2-.09,.32,0,0-.25,.17-.72,.48-.38,.25-.87,.64-2.75,2.19-.2,.16-.28,.31-.23,.44,.01,.02,.1,.13,.26,.33,.03,.04,.07,.08,.11,.13,0,0,.01,.02,.02,.03,.29,.36,.51,.57,.65,.64,.24,.11,.65-.03,1.22-.45l1.08-.89c.26-.21,.63-.56,1.11-1.04,.46-.46,.82-.79,1.08-1,0,0,.01-.01,.02-.02,.11-.09,.23-.05,.38,.13t0,0Z"/></g></g></svg>