<?xml version="1.0" encoding="UTF-8"?><svg id="Layer_2" xmlns="http://www.w3.org/2000/svg" viewBox="0 0 119.66 88.27"><defs><style>.cls-1{fill:#5dcc38;}.cls-2{opacity:.7;}</style></defs><g id="Layer_1-2"><g class="cls-2"><path class="cls-1" d="M52.18,30.21c0,22.75-12.55,46.29-47.08,58.06L0,78.86c16.87-6.28,27.85-17.65,27.85-32.96h-1.18c-12.16,0-21.18-10.2-21.18-22.76S14.91,0,27.47,0c16.48,0,24.72,12.95,24.72,30.21Zm67.48,0c0,22.75-12.55,46.29-47.08,58.06l-5.1-9.41c16.87-6.28,27.85-17.65,27.85-32.96h-1.18c-12.16,0-21.19-10.2-21.19-22.76S82.39,0,94.94,0c16.48,0,24.72,12.95,24.72,30.21Z"/></g></g></svg>