<?xml version="1.0" encoding="UTF-8"?><svg id="Layer_2" xmlns="http://www.w3.org/2000/svg" viewBox="0 0 50 50"><defs><style>.cls-1{fill:#fff;}</style></defs><g id="Layer_1-2"><path class="cls-1" d="M25,0C11.19,0,0,11.19,0,25s11.19,25,25,25,25-11.19,25-25S38.81,0,25,0Zm15.48,17.77c-.71,.89-1.51,1.68-2.43,2.35-.17,.12-.22,.25-.22,.46,.07,5.06-1.65,9.44-5.13,13.1-2.66,2.8-5.94,4.46-9.74,5.1-3.76,.63-7.4,.23-10.89-1.33-.62-.28-1.21-.62-1.81-.93-.12-.06-.24-.14-.36-.22,3.43,.27,6.53-.56,9.37-2.66-2.91-.24-4.89-1.66-5.99-4.38,.98,.13,1.9,.14,2.82-.13-1.45-.36-2.67-1.08-3.62-2.23-.95-1.15-1.42-2.48-1.43-4.02,.91,.46,1.83,.73,2.9,.78-1.76-1.26-2.71-2.9-2.83-4.99-.07-1.16,.32-2.64,.86-3.4,3.48,4.02,7.86,6.21,13.19,6.57-.04-.36-.09-.67-.11-.98-.14-2.19,.66-3.99,2.35-5.36,2.55-2.06,6.19-1.86,8.55,.41,.12,.12,.22,.16,.39,.12,1.25-.27,2.44-.71,3.56-1.33,.07-.04,.14-.07,.27-.14-.52,1.49-1.43,2.6-2.68,3.47,.39-.07,.78-.13,1.17-.21,.39-.09,.77-.19,1.15-.31,.39-.12,.76-.26,1.21-.42-.2,.27-.35,.49-.51,.7Z"/></g></svg>