<?xml version="1.0" encoding="UTF-8"?><svg id="Layer_2" xmlns="http://www.w3.org/2000/svg" viewBox="0 0 50 34.33"><defs><style>.cls-1{fill:#5dcc38;}</style></defs><g id="Layer_1-2"><g id="GELcap.tif"><path class="cls-1" d="M50,13.35v7.52c-.02,.22-.06,.45-.07,.67-.11,1.97-.18,3.93-.31,5.9-.21,3.09-2.67,5.92-5.73,6.39-1.68,.26-3.4,.28-5.11,.31-5.45,.09-10.9,.21-16.34,.19-5.14-.03-10.28-.17-15.41-.36-3.23-.12-6.02-2.61-6.51-5.8-.29-1.87-.29-3.79-.41-5.69C.06,21.97,.03,21.47,0,20.97c0-2.54,0-5.08,0-7.62,.03-.48,.07-.97,.1-1.45,.11-1.82,.09-3.65,.35-5.45C.95,2.93,3.77,.43,7.36,.34,14.16,.16,20.96,.01,27.76,0c5.06,0,10.12,.17,15.17,.36,3.11,.12,5.78,2.35,6.47,5.38,.3,1.32,.3,2.71,.41,4.07,.09,1.18,.13,2.36,.2,3.55ZM18.79,6.25V28.07c5.22-3.65,10.38-7.26,15.59-10.91-5.23-3.66-10.38-7.27-15.59-10.91Z"/></g></g></svg>