<?xml version="1.0" encoding="UTF-8"?><svg id="Layer_2" xmlns="http://www.w3.org/2000/svg" viewBox="0 0 50 50"><defs><style>.cls-1{fill:#fff;}</style></defs><g id="Layer_1-2"><g><path class="cls-1" d="M29.53,23.81c-2.2-1.14-4.4-2.28-6.6-3.42-.93-.48-1.72,0-1.72,1.04,0,1.14,0,2.28,0,3.42s0,2.3,0,3.45c0,1.03,.79,1.51,1.71,1.03,2.21-1.15,4.41-2.3,6.62-3.45,.42-.22,.71-.52,.72-1.02,0-.51-.29-.82-.73-1.04Z"/><path class="cls-1" d="M25,0C11.19,0,0,11.19,0,25s11.19,25,25,25,25-11.19,25-25S38.81,0,25,0Zm16.52,28.85c0,.23-.03,.46-.06,.69,0,0,0,0,0,0-.11,.81-.17,1.62-.34,2.42-.45,2.11-1.67,3.55-3.8,4.16-1.2,.34-2.42,.48-3.66,.49-5.44,.02-10.89,.02-16.33,.02-1.47,0-2.94-.1-4.37-.51-1.27-.37-2.37-.99-3.15-2.1-.75-1.07-1.03-2.3-1.18-3.57-.05-.4-.09-.8-.13-1.2,0-3.12-.02-6.21-.02-9.34,.05-.49,.09-.98,.15-1.46,.1-.87,.29-1.71,.73-2.48,.7-1.22,1.85-1.78,3.14-2.11,1.4-.36,2.84-.45,4.28-.45,5.31,0,10.61,0,15.92,0,1.53,0,3.05,.06,4.55,.39,.96,.21,1.87,.55,2.62,1.23,.93,.85,1.3,1.97,1.46,3.17,.08,.59,.13,1.19,.19,1.78v8.88Z"/></g></g></svg>